<?xml version="1.0" encoding="utf-8"?>
<!-- Generator: Adobe Illustrator 17.0.0, SVG Export Plug-In . SVG Version: 6.00 Build 0)  -->
<!DOCTYPE svg PUBLIC "-//W3C//DTD SVG 1.1//EN" "http://www.w3.org/Graphics/SVG/1.1/DTD/svg11.dtd">
<svg version="1.1" id="Layer_1" xmlns="http://www.w3.org/2000/svg" xmlns:xlink="http://www.w3.org/1999/xlink" x="0px" y="0px"
	 width="166px" height="116px" viewBox="0 0 166 116" enable-background="new 0 0 166 116" xml:space="preserve">
<desc>Created with Sketch.</desc>
<g id="Welcome">
	<g id="start1" transform="translate(-637.000000, -71.000000)">
		<g id="Group" transform="translate(637.000000, 71.000000)">
			<g id="Group-31">
				<g id="Group-29" transform="translate(0.000000, 29.000000)">
					<path id="heldisch-copy-11" fill="#404040" d="M14.357,10.693H7.526V1.308c0-0.5-0.27-0.769-0.772-0.769H0.772
						C0.27,0.538,0,0.808,0,1.308V27.27c0,0.5,0.27,0.769,0.772,0.769h5.982c0.502,0,0.772-0.269,0.772-0.769v-9.577h6.831v9.577
						c0,0.5,0.27,0.769,0.772,0.769h5.982c0.502,0,0.772-0.269,0.772-0.769V1.308c0-0.5-0.27-0.769-0.772-0.769h-5.982
						c-0.502,0-0.772,0.269-0.772,0.769V10.693z M32.651,17.424h8.491c0.502,0,0.772-0.269,0.772-0.769v-5.039
						c0-0.5-0.27-0.769-0.772-0.769h-8.491V7.269h9.996c0.502,0,0.772-0.269,0.772-0.769V1.308c0-0.5-0.27-0.769-0.772-0.769h-16.75
						c-0.502,0-0.772,0.269-0.772,0.769V27.27c0,0.5,0.27,0.769,0.772,0.769h17.406c0.502,0,0.772-0.269,0.772-0.769v-5.192
						c0-0.5-0.27-0.769-0.772-0.769H32.651V17.424z M63.565,28.039c0.502,0,0.772-0.269,0.772-0.769v-5.462
						c0-0.5-0.27-0.769-0.772-0.769h-9.803V1.308c0-0.5-0.27-0.769-0.772-0.769h-5.982c-0.502,0-0.772,0.269-0.772,0.769V27.27
						c0,0.5,0.27,0.769,0.772,0.769H63.565z M75.646,28.039H66.19c-0.502,0-0.772-0.269-0.772-0.769V1.308
						c0-0.5,0.27-0.769,0.772-0.769h9.456c5.944,0,11.385,2.192,11.385,11.193v5.116C87.031,26.001,81.589,28.039,75.646,28.039z
						 M72.944,7.577v13.423H75.8c2.316,0,3.512-1.077,3.512-3.692v-6.077c0-2.539-1.196-3.654-3.512-3.654H72.944z M96.988,1.308
						c0-0.5-0.27-0.769-0.772-0.769h-5.982c-0.502,0-0.772,0.269-0.772,0.769V27.27c0,0.5,0.27,0.769,0.772,0.769h5.982
						c0.502,0,0.772-0.269,0.772-0.769V1.308z M121.187,19.616c0-5.385-3.666-7.462-9.726-8.962
						c-3.242-0.808-4.091-1.154-4.091-2.231c0-0.731,0.695-1.308,2.972-1.308c2.007,0,4.168,0.577,5.982,1.654
						c0.425,0.269,0.81,0.154,1.081-0.231l3.049-4.577c0.27-0.423,0.193-0.808-0.232-1.077C116.942,0.769,114.086,0,110.612,0
						C104.514,0,99.69,2.808,99.69,8.193c0,6.616,6.098,8.731,9.88,9.462c2.123,0.423,3.859,1,3.859,2.192
						c0,0.885-0.849,1.539-3.088,1.539c-2.47,0-4.824-1.038-6.947-2.5c-0.386-0.308-0.81-0.231-1.081,0.154l-3.203,4.577
						c-0.27,0.385-0.232,0.769,0.154,1.077c3.435,2.731,6.407,3.885,10.459,3.885C117.444,28.578,121.187,24.655,121.187,19.616z
						 M142.762,25.847c0.27-0.192,0.232-0.538-0.039-0.923l-3.01-4.577c-0.27-0.423-0.618-0.462-1.042-0.192
						c-1.312,0.808-2.972,1.308-4.709,1.308c-2.624,0-4.207-1.385-4.207-3.923v-6.577c0-2.192,1.544-3.846,4.361-3.846
						c1.467,0,2.972,0.385,4.13,1.077c0.463,0.269,0.81,0.192,1.081-0.231l2.972-4.577c0.27-0.385,0.232-0.769-0.193-1.038
						C139.983,0.923,137.05,0,133.846,0c-7.449,0-11.771,3.962-11.771,10.539v7.462c0,6.616,4.091,10.577,11.771,10.577
						C137.822,28.578,140.716,27.309,142.762,25.847z M158.315,10.693h-6.831V1.308c0-0.5-0.27-0.769-0.772-0.769h-5.982
						c-0.502,0-0.772,0.269-0.772,0.769V27.27c0,0.5,0.27,0.769,0.772,0.769h5.982c0.502,0,0.772-0.269,0.772-0.769v-9.577h6.831
						v9.577c0,0.5,0.27,0.769,0.772,0.769h5.982c0.502,0,0.772-0.269,0.772-0.769V1.308c0-0.5-0.27-0.769-0.772-0.769h-5.982
						c-0.502,0-0.772,0.269-0.772,0.769V10.693z"/>
				</g>
				<g id="Group-24" transform="translate(68.000000, 0.000000)">
					<path id="Rectangle-5-Copy-2" fill="#404040" d="M3.5,0h24C29.433,0,31,1.567,31,3.5l0,0C31,5.433,29.433,7,27.5,7h-24
						C1.567,7,0,5.433,0,3.5l0,0C0,1.567,1.567,0,3.5,0z"/>
					<path id="Rectangle-5-Copy-3" fill="#404040" d="M3.5,12h24c1.933,0,3.5,1.567,3.5,3.5l0,0c0,1.933-1.567,3.5-3.5,3.5h-24
						C1.567,19,0,17.433,0,15.5l0,0C0,13.567,1.567,12,3.5,12z"/>
				</g>
			</g>
			
				<g id="digital_lettering_05" transform="translate(82.803366, 80.532183) rotate(3.000000) translate(-82.803366, -80.532183) translate(4.803366, 44.032183)">
				<path id="Shape" fill="#FBBF2C" d="M25.429,24.303c-0.343,0.111-0.693,0.198-1.02,0.333c-2.541,1.079-5.106,2.119-7.615,3.262
					c-2.318,1.056-4.596,2.214-6.875,3.357c-1.928,0.96-3.792,1.968-5.664,2.961c-0.717,0.381-1.386,0.857-2.087,1.278
					c-0.348,0.235-0.722,0.43-1.115,0.579c-0.709,0.222-1.147-0.183-1.036-0.913c0.137-0.791,0.63-1.475,1.338-1.857
					c2.286-1.405,4.533-2.873,6.875-4.167c3.25-1.786,6.524-3.532,9.886-5.096c2.424-1.22,4.961-2.2,7.576-2.929
					c0.542-0.135,0.94-0.317,0.797-1.008c-0.04-0.158-0.003-0.325,0.098-0.452c0.101-0.127,0.257-0.201,0.42-0.198
					c0.303-0.065,0.618-0.032,0.9,0.095c0.673,0.485,1.551,0.588,2.318,0.27c2.553-0.535,5.158-0.786,7.767-0.746
					c2.061-0.062,4.109,0.342,5.99,1.183c2.489,0.917,3.886,3.554,3.242,6.119c-0.048,0.246-0.096,0.5-0.159,0.857
					c1.044-0.175,1.999-0.294,2.931-0.516c0.382-0.13,0.729-0.347,1.012-0.635c0.327-0.302,0.653-0.405,0.972-0.103
					c0.699,0.509,1.296,1.145,1.76,1.873c0.302,0.481,0.253,1.103-0.119,1.532c-0.749,0.947-1.495,1.897-2.238,2.849
					c-0.743,0.952-1.54,1.974-2.39,3.064c-0.109,0.16-0.207,0.327-0.295,0.5l0.112,0.119c0.207-0.127,0.422-0.246,0.621-0.381
					c3.051-2.016,6.118-3.969,9.145-6.056c0.908-0.619,1.681-1.421,2.541-2.111c1.163-0.945,2.342-1.865,3.521-2.786
					c0.454-0.375,1.06-0.513,1.633-0.373c0.387,0.084,0.778,0.147,1.171,0.19c0.661,0.08,1.259,0.431,1.649,0.968
					c0.542,0.683,0.661,0.683,1.29,0.048c1.059-1.064,2.095-2.143,3.186-3.175c2.037-2.023,4.391-3.701,6.97-4.969
					c0.826-0.367,1.774-0.341,2.578,0.071c0.804,0.412,1.377,1.166,1.557,2.048c0.049,0.408-0.047,0.821-0.271,1.167
					c-0.494,0.738-1.083,1.413-1.657,2.103c-0.435,0.458-0.713,1.042-0.797,1.667c-0.056,0.651-0.398,0.794-0.9,0.373
					c-0.892-0.794-1.745-1.587-2.573-2.437c-0.574-0.579-0.558-0.619-1.219-0.167c-2.025,1.332-3.822,2.98-5.321,4.881
					c-1.115,1.492-2.334,2.913-3.537,4.334c-0.368,0.358-0.45,0.918-0.199,1.365c0.353,0.755,0.353,1.626,0,2.381
					c-0.65,1.495-1.596,2.845-2.78,3.969c-1.64,1.667-3.64,2.94-5.847,3.722c-1.593,0.595-2.597,1.849-3.776,2.921
					c-0.558,0.5-1.044,1.079-1.657,1.722c0.231,0.015,0.462,0.015,0.693,0c0.916-0.095,1.832-0.183,2.74-0.333
					c0.33-0.066,0.638-0.216,0.892-0.437c1.036-0.889,2.055-1.802,3.067-2.714c1.346-1.214,2.716-2.381,4.031-3.659
					c1.179-1.127,2.286-2.318,3.425-3.476c0.351-0.357,0.725-0.691,1.044-1.071c0.43-0.516,0.797-1.071,1.235-1.587
					c1.968-2.289,3.72-4.755,5.234-7.366c0.184-0.402,0.341-0.816,0.47-1.238c0.175-0.484,0.414-0.643,0.797-0.381
					c0.848,0.525,1.667,1.094,2.454,1.706c0.275,0.281,0.496,0.609,0.653,0.968c0.193,0.329,0.155,0.744-0.096,1.032
					c-0.026,0.044-0.056,0.087-0.088,0.127c-1.792,1.826-2.924,4.095-4.222,6.246c-0.467,0.847-0.887,1.719-1.259,2.611
					c-0.248,0.455-0.171,1.018,0.191,1.389c0.415,0.308,0.977,0.333,1.418,0.063c0.409-0.178,0.792-0.41,1.139-0.691
					c1.913-1.445,3.608-3.156,5.034-5.08c1.737-2.381,3.433-4.826,5.114-7.262c0.844-1.23,1.593-2.508,2.454-3.746
					c0.113-0.105,0.173-0.255,0.164-0.408s-0.087-0.295-0.211-0.386c-0.279-0.278-0.534-0.579-0.797-0.865
					c-0.421-0.387-0.537-1.003-0.287-1.516c0.626-0.042,1.254-0.042,1.88,0c1.092,0.205,2.191-0.319,2.716-1.294
					c0.547-0.832,1.149-1.627,1.8-2.381c0.251-0.299,0.553-0.551,0.892-0.746c0.495-0.36,1.184-0.288,1.593,0.167
					c0.319,0.31,0.717,0.532,1.052,0.794c0.494,0.437,0.47,0.691,0,1.183c-0.47,0.492-0.797,0.889-1.155,1.333l0.127,0.183
					c0.661-0.095,1.322-0.206,1.991-0.294c1.928-0.254,3.863-0.468,5.791-0.746c3.067-0.444,6.126-0.968,9.193-1.389
					c1.171-0.159,2.39-0.159,3.545-0.206c0.693-0.028,1.361,0.265,1.808,0.794c0.454,0.5,0.287,1.016-0.374,1.167
					c-0.534,0.119-1.099,0.135-1.633,0.254c-2.127,0.476-4.246,0.984-6.373,1.452c-2.127,0.468-4.063,0.865-6.102,1.254
					c-2.812,0.54-5.64,1.048-8.46,1.587c-0.568,0.108-1.143,0.169-1.721,0.183c-0.532,0.014-1.013,0.319-1.251,0.794
					c-1.227,1.984-2.39,3.969-3.648,5.977c-0.925,1.527-1.691,3.144-2.286,4.826c-0.067,0.19-0.067,0.397,0,0.587
					c0.908-0.698,1.848-1.365,2.724-2.103c3.035-2.564,6.046-5.151,9.073-7.731c0.743-0.63,1.495-1.249,2.254-1.857
					c1.74-1.289,3.784-2.109,5.935-2.381c0.576-0.059,1.152,0.119,1.593,0.492c0.255,0.183,0.47,0.413,0.757,0.659
					c0.143-0.119,0.303-0.238,0.446-0.381c0.629-0.635,1.267-1.262,1.88-1.913c0.094-0.147,0.256-0.235,0.43-0.235
					s0.337,0.089,0.43,0.235l0.709,0.738c0.552,0.494,0.666,1.312,0.271,1.937c-0.9,1.722-1.808,3.437-2.653,5.183
					c-0.629,1.31-1.163,2.659-1.737,3.969l0.159,0.103c0.494-0.556,1.012-1.095,1.474-1.675c2.159-2.714,4.286-5.461,6.452-8.167
					c2.318-2.889,4.604-5.81,7.026-8.604c2.852-3.286,5.815-6.485,8.763-9.667c1.012-1.024,2.076-1.996,3.186-2.913
					c0.577-0.496,1.386-0.622,2.087-0.325c0.452,0.228,0.776,0.647,0.881,1.141s-0.02,1.008-0.339,1.399
					c-0.518,0.691-1.067,1.365-1.593,2.048c-3.186,3.969-6.492,7.937-9.559,12.017c-2.746,3.425-5.162,7.101-7.217,10.977
					c-1.073,2.285-1.797,4.717-2.151,7.215c-0.21,1.122-0.056,2.281,0.438,3.31c0.319,0.635,0.494,1.341,0.86,1.937
					c1.026,1.95,3.081,3.144,5.289,3.072c1.21,0.008,2.418-0.099,3.609-0.317c1.124-0.285,2.21-0.704,3.234-1.246
					c4.581-2.31,8.646-5.52,11.949-9.437c2.066-2.319,3.821-4.896,5.218-7.667c1.027-2.128,1.828-4.357,2.39-6.651
					c0.363-1.339,0.511-2.726,0.438-4.111c0.035-1.083-0.418-2.126-1.235-2.841c-0.356-0.261-0.741-0.479-1.147-0.651
					c-1.596-0.728-3.418-0.788-5.058-0.167c-1.458,0.532-2.882,1.155-4.262,1.865c-1.314,0.728-2.455,1.73-3.346,2.937
					c-1.382,1.635-2.262,3.633-2.533,5.754c-0.078,0.651-0.078,1.309,0,1.96c0.08,0.317,0.238,0.61,0.462,0.849
					c0.211,0.244,0.44,0.472,0.685,0.683c-0.983,0.211-1.979-0.292-2.39-1.206c-0.45-0.905-0.574-1.936-0.35-2.921
					c0.238-1.199,0.544-2.383,0.916-3.548c0.913-2.405,2.592-4.446,4.78-5.81c1.301-0.867,2.699-1.581,4.166-2.127
					c0.341-0.136,0.697-0.235,1.059-0.294c1.501-0.301,3.043-0.336,4.557-0.103c2.069,0.388,3.915,1.538,5.17,3.222
					c0.349,0.521,0.581,1.111,0.677,1.73c0.382,1.536,0.431,3.135,0.143,4.691c-0.559,2.642-1.447,5.205-2.645,7.627
					c-1.266,2.473-2.695,4.859-4.278,7.143c-1.691,2.31-3.66,4.406-5.863,6.238c-2.247,1.822-4.61,3.497-7.074,5.016
					c-0.778,0.472-1.59,0.886-2.43,1.238c-0.87,0.486-1.792,0.875-2.748,1.159c-1.993,0.518-4.082,0.559-6.094,0.119
					c-0.1-0.033-0.205-0.051-0.311-0.056c-2.007,0.056-3.545-1.024-4.859-2.294c-0.814-0.92-1.495-1.948-2.023-3.056
					c-0.565-1.151-0.921-2.392-1.051-3.667c-0.238-1.742-0.222-3.509,0.048-5.246c0.058-0.415,0.152-0.823,0.279-1.222
					c0.396-1.74,0.928-3.447,1.593-5.103c0.097-0.257,0.169-0.523,0.215-0.794l-0.135-0.103l-0.358,0.437
					c-2.655,3.175-5.311,6.35-7.966,9.524c-0.823,0.925-1.451,2.004-1.848,3.175c-0.319,1-0.709,1.135-1.673,0.722
					c-1.535-0.606-2.351-2.28-1.88-3.857l0.119-0.429c-0.164,0.079-0.321,0.172-0.47,0.278c-1.338,1.222-2.613,2.524-4.039,3.651
					c-0.792,0.5-1.647,0.894-2.541,1.175c-0.149,0.058-0.313,0.058-0.462,0c-1.92-0.897-3.473-2.262-2.716-4.635
					c0.243-0.726,0.445-1.466,0.605-2.214c-0.825,0.476-1.593,1.046-2.286,1.699c-0.733,0.714-1.498,1.405-2.207,2.143
					c-0.709,0.738-1.123,1.31-1.729,1.929c-0.441,0.442-0.915,0.851-1.418,1.222c-0.396,0.3-0.954,0.263-1.306-0.087
					c-1.169-0.765-1.87-2.067-1.864-3.461c0-0.413,0-0.794,0-1.23h-0.167l-0.502,0.46c-1.593,1.508-3.099,3.08-4.78,4.484
					c-0.929,0.864-2.083,1.45-3.33,1.691c-0.877,0.151-1.767-0.183-2.326-0.873c-0.897-0.982-1.367-2.277-1.306-3.603
					c0-0.175,0-0.357,0-0.54c-0.088,0-0.151,0-0.183,0l-6.707,6.397l-3.816,3.651c-0.088,0.087-0.159,0.19-0.335,0.397
					c0.194,0.091,0.401,0.15,0.613,0.175c2.732-0.317,4.78,1.064,6.739,2.675c1.123,0.929,1.386,2.381,1.593,3.762
					c0.276,1.979,0.258,3.987-0.056,5.961c-0.282,1.339-0.751,2.632-1.394,3.842c-1.47,3.11-3.81,5.731-6.739,7.548
					c-1.847,1.23-3.994,1.938-6.213,2.048c-1.708,0.079-3.418-0.079-5.082-0.468c-2.143-0.492-4.564-2.492-4.939-4.897
					c-0.437-2.498-0.101-5.07,0.964-7.373c1.499-3.16,3.592-6.005,6.166-8.381c1.044-0.984,2.135-1.929,3.186-3.048
					c-0.537,0.068-1.069,0.169-1.593,0.302c-1.808,0.494-3.48,1.389-4.891,2.619c-2.15,1.978-4.454,3.783-6.891,5.397
					c-0.484,0.284-1.077,0.314-1.587,0.08s-0.873-0.703-0.97-1.255c0.008-0.312,0.123-0.612,0.327-0.849
					c0.927-1.139,1.916-2.225,2.963-3.254c2.334-2.159,4.78-4.23,7.169-6.35c0.868-0.794,1.768-1.492,2.645-2.246
					c0.51-0.444,1.004-0.913,1.458-1.325c0-0.159,0-0.23,0-0.262c-1.02-1-1.02-2.167-0.757-3.445
					c0.347-1.526,1.018-2.961,1.968-4.207c0.128-0.171,0.203-0.375,0.215-0.587c-0.111,0.043-0.217,0.097-0.319,0.159
					c-2.517,1.82-5.029,3.643-7.536,5.469c-1.442,1.025-2.668,2.322-3.609,3.818c-0.153,0.282-0.417,0.487-0.728,0.567
					c-0.311,0.08-0.642,0.027-0.913-0.147c-0.576-0.215-1.028-0.67-1.236-1.247c-0.209-0.576-0.153-1.214,0.153-1.746
					c1.414-3.105,3.186-6.035,5.281-8.731c0.303-0.389,0.558-0.794,0.797-1.246c0.095-0.178,0.18-0.361,0.255-0.548
					c-0.778,0.12-1.549,0.281-2.31,0.484c-0.271,0.087-0.486,0.452-0.653,0.738c-1.753,2.872-3.741,5.596-5.943,8.143
					c-4.223,4.706-9.161,8.724-14.633,11.906c-2.087,1.27-4.222,2.468-6.373,3.572c-2.747,1.391-5.648,2.456-8.643,3.175
					c-1.667,0.515-3.429,0.648-5.154,0.389c-0.286-0.034-0.56-0.138-0.797-0.302c-1.482-1.31-2.103-2.691-1.354-4.611
					c0.716-1.736,1.804-3.297,3.186-4.572c1.333-1.342,2.743-2.606,4.222-3.786c1.721-1.373,3.601-2.564,5.449-3.754
					c0.975-0.637,1.828-1.444,2.517-2.381c2.521-3.591,4.702-7.406,6.516-11.398c0.486-0.984,0.996-1.96,1.49-2.945L25.429,24.303z
					 M48.617,65.234c-0.021,0.314-0.021,0.63,0,0.945c0.001,0.734,0.287,1.439,0.797,1.968c1.194,1.176,2.833,1.791,4.509,1.691
					c1.92-0.115,3.79-0.658,5.473-1.587c2.119-1.202,3.938-2.865,5.321-4.865c1.333-1.766,2.199-3.837,2.517-6.024
					c0.168-1.56,0.208-3.132,0.119-4.699c-0.027-1.563-1.009-2.95-2.477-3.5c-1.373-0.522-2.843-0.742-4.31-0.643
					c-0.689-0.034-1.369,0.168-1.928,0.571c-1.004,0.794-1.96,1.659-2.924,2.508c-0.436,0.379-0.851,0.782-1.243,1.206
					c-0.808,0.836-1.566,1.719-2.27,2.643c-0.605,0.918-1.153,1.872-1.641,2.857C49.38,60.432,48.714,62.805,48.617,65.234
					L48.617,65.234z M41.791,30.724l-3.64,1.119c-0.38,0.103-0.752,0.23-1.115,0.381c-2.199,1.008-4.421,1.968-6.572,3.072
					c-2.334,1.198-4.58,2.58-6.906,3.81c-3.106,1.575-5.62,4.105-7.169,7.215c-0.749,1.5-1.593,2.937-2.461,4.397
					c-0.343,0.595-0.645,0.73-1.139,0.556c-0.649-0.179-1.173-0.656-1.409-1.284c-0.236-0.628-0.157-1.331,0.214-1.891
					c0.127-0.23,0.287-0.437,0.422-0.667c0.279-0.484,0.542-0.976,0.797-1.46c-1.243,0.539-2.386,1.285-3.378,2.206
					c-1.971,1.707-3.669,3.703-5.034,5.921c-0.283,0.297-0.332,0.746-0.121,1.098c0.212,0.351,0.632,0.519,1.029,0.41
					c0.945-0.059,1.887-0.17,2.82-0.333c3.13-0.471,6.152-1.487,8.93-3c2.175-1.222,4.254-2.611,6.373-3.969
					c1.386-0.905,2.677-1.945,4.047-2.873c2.503-1.701,4.841-3.63,6.986-5.762c1.824-1.81,3.449-3.826,5.098-5.794
					C40.325,32.93,40.97,31.875,41.791,30.724z M23.501,35.605l0.183,0.19c1.203-0.571,2.39-1.103,3.609-1.714
					c4.834-2.613,9.981-4.605,15.318-5.929c0.194-0.053,0.356-0.186,0.446-0.365c0.343-0.937,0.661-1.873,0.948-2.826
					c0.154-0.596-0.029-1.228-0.478-1.651c-0.844-0.899-2.04-1.386-3.274-1.333c-2.175-0.071-4.357,0-6.54,0.135
					c-0.84,0.068-1.674,0.2-2.493,0.397c-0.612,0.07-1.154,0.423-1.466,0.952c-0.597,1.103-1.259,2.183-1.824,3.302
					C26.44,29.708,24.975,32.66,23.501,35.605z M66.995,33.764c-0.096-0.849-0.263-1-0.988-1.318
					c-0.499-0.222-0.959-0.522-1.362-0.889c-0.797-0.691-0.836-0.714-1.593,0.048c-0.757,0.762-1.593,1.754-2.469,2.54
					c-1.681,1.508-2.692,3.461-3.736,5.397c-0.268,0.524-0.176,1.161,0.231,1.587c0.346,0.259,0.791,0.349,1.211,0.246
					c0.861-0.227,1.699-0.536,2.501-0.921c2.361-1.128,4.322-2.943,5.624-5.207c0.239-0.473,0.433-0.968,0.582-1.476V33.764z
					 M109.915,23.922l-0.151-0.183c-0.279,0.103-0.566,0.198-0.836,0.317c-3.322,1.381-5.449,4.151-7.711,6.731
					c-1.129,1.456-2.054,3.058-2.748,4.762c-0.23,0.391-0.158,0.889,0.175,1.198c0.223-0.151,0.446-0.278,0.637-0.437
					c2.167-1.794,4.349-3.572,6.476-5.405c0.584-0.529,1.079-1.148,1.466-1.833c0.797-1.357,1.498-2.77,2.23-4.159
					c0.167-0.325,0.311-0.659,0.462-0.984V23.922z M68.492,27.565c-0.884,0-3.425,1.921-3.752,2.73
					c0.613,0.167,0.629,0.175,1.044-0.19c0.725-0.643,1.434-1.294,2.151-1.945c0.175-0.159,0.335-0.349,0.558-0.587V27.565z"/>
				<path id="Shape_1_" fill="#FBBF2C" d="M76,48.319c0.205-0.702,0.339-1.622,1.362-1.947c1.075-0.365,2.171-0.667,3.284-0.905
					c2.268-0.445,4.536-0.89,6.828-1.169c2.654-0.332,5.324-0.49,7.993-0.755c0.961-0.083,1.914-0.234,2.875-0.272
					c3.064-0.121,6.135-0.279,9.206-0.272c1.914,0,3.835,0.287,5.749,0.438c1.347,0.106,2.567,1.637,2.693,2.686
					c0.087,0.709-0.473,1.192-1.016,0.815c-1.386-0.943-2.938-0.936-4.497-0.86c-3.426,0.166-6.852,0.377-10.277,0.589
					c-2.126,0.136-4.253,0.279-6.371,0.49c-2.244,0.226-4.489,0.528-6.726,0.815c-2.529,0.31-5.017,0.868-7.426,1.667
					c-0.62,0.191-1.263,0.305-1.914,0.34C76.496,50.108,76,49.647,76,48.319z"/>
				<path id="Shape_2_" fill="#FBBF2C" d="M60.407,20.193c-0.07,0.011-0.141,0.011-0.21,0c-0.88-0.424-1.558,0-2.15,0.537
					c-0.927,0.863-1.846,1.741-2.773,2.611c-0.927,0.87-1.262,0.833-2.142,0.151c-1.41-1.098-1.472-1.355-0.351-2.869
					c0.798-1.011,1.713-1.931,2.727-2.74c0.664-0.653,1.6-0.972,2.538-0.864c0.938,0.108,1.772,0.631,2.26,1.416
					c0.237,0.328,0.441,0.678,0.608,1.045C61.131,19.913,60.929,20.185,60.407,20.193z"/>
			</g>
		</g>
	</g>
</g>
</svg>
