
<svg width="166px" height="116px" viewBox="0 0 166 116" version="1.1" xmlns="http://www.w3.org/2000/svg" xmlns:xlink="http://www.w3.org/1999/xlink">
    <!-- Generator: Sketch 47 (45396) - http://www.bohemiancoding.com/sketch -->
    <desc>Created with Sketch.</desc>
    <defs></defs>
    <g id="Welcome" stroke="none" stroke-width="1" fill="none" fill-rule="evenodd">
        <g id="start1" transform="translate(-637.000000, -71.000000)">
            <g id="Group" transform="translate(637.000000, 71.000000)">
                <g id="Group-31" fill="#404040">
                    <g id="Group-29" transform="translate(0.000000, 29.000000)">
                        <path d="M14.357222,10.6926336 L7.52596316,10.6926336 L7.52596316,1.30773217 C7.52596316,0.80771693 7.25580038,0.538477953 6.7540695,0.538477953 L0.771893658,0.538477953 C0.27016278,0.538477953 0,0.80771693 0,1.30773217 L0,27.2700621 C0,27.7700773 0.27016278,28.0393163 0.771893658,28.0393163 L6.7540695,28.0393163 C7.25580038,28.0393163 7.52596316,27.7700773 7.52596316,27.2700621 L7.52596316,17.692847 L14.357222,17.692847 L14.357222,27.2700621 C14.357222,27.7700773 14.6273848,28.0393163 15.1291157,28.0393163 L21.1112915,28.0393163 C21.6130224,28.0393163 21.8831852,27.7700773 21.8831852,27.2700621 L21.8831852,1.30773217 C21.8831852,0.80771693 21.6130224,0.538477953 21.1112915,0.538477953 L15.1291157,0.538477953 C14.6273848,0.538477953 14.357222,0.80771693 14.357222,1.30773217 L14.357222,10.6926336 Z M32.6511016,17.4236081 L41.1419319,17.4236081 C41.6436628,17.4236081 41.9138255,17.1543691 41.9138255,16.6543538 L41.9138255,11.6157387 C41.9138255,11.1157235 41.6436628,10.8464845 41.1419319,10.8464845 L32.6511016,10.8464845 L32.6511016,7.26945237 L42.6471245,7.26945237 C43.1488554,7.26945237 43.4190182,7.00021339 43.4190182,6.50019815 L43.4190182,1.30773217 C43.4190182,0.80771693 43.1488554,0.538477953 42.6471245,0.538477953 L25.8970321,0.538477953 C25.3953013,0.538477953 25.1251385,0.80771693 25.1251385,1.30773217 L25.1251385,27.2700621 C25.1251385,27.7700773 25.3953013,28.0393163 25.8970321,28.0393163 L43.3032341,28.0393163 C43.804965,28.0393163 44.0751278,27.7700773 44.0751278,27.2700621 L44.0751278,22.0775961 C44.0751278,21.5775808 43.804965,21.3083419 43.3032341,21.3083419 L32.6511016,21.3083419 L32.6511016,17.4236081 Z M63.5654426,28.0393163 C64.0671734,28.0393163 64.3373362,27.7700773 64.3373362,27.2700621 L64.3373362,21.8083571 C64.3373362,21.3083419 64.0671734,21.0391029 63.5654426,21.0391029 L53.7623931,21.0391029 L53.7623931,1.30773217 C53.7623931,0.80771693 53.4922303,0.538477953 52.9904994,0.538477953 L47.0083236,0.538477953 C46.5065927,0.538477953 46.2364299,0.80771693 46.2364299,1.30773217 L46.2364299,27.2700621 C46.2364299,27.7700773 46.5065927,28.0393163 47.0083236,28.0393163 L63.5654426,28.0393163 Z M75.6455782,28.0393163 L66.1898809,28.0393163 C65.68815,28.0393163 65.4179873,27.7700773 65.4179873,27.2700621 L65.4179873,1.30773217 C65.4179873,0.80771693 65.68815,0.538477953 66.1898809,0.538477953 L75.6455782,0.538477953 C81.5891594,0.538477953 87.0310097,2.73085248 87.0310097,11.7311268 L87.0310097,16.8466674 C87.0310097,26.0007926 81.5891594,28.0393163 75.6455782,28.0393163 Z M72.9439504,7.57715406 L72.9439504,21.0006402 L75.799957,21.0006402 C78.1156379,21.0006402 79.3120731,19.9236843 79.3120731,17.3082199 L79.3120731,11.2311116 C79.3120731,8.69257267 78.1156379,7.57715406 75.799957,7.57715406 L72.9439504,7.57715406 Z M96.9884378,1.30773217 C96.9884378,0.80771693 96.718275,0.538477953 96.2165441,0.538477953 L90.2343683,0.538477953 C89.7326374,0.538477953 89.4624746,0.80771693 89.4624746,1.30773217 L89.4624746,27.2700621 C89.4624746,27.7700773 89.7326374,28.0393163 90.2343683,28.0393163 L96.2165441,28.0393163 C96.718275,28.0393163 96.9884378,27.7700773 96.9884378,27.2700621 L96.9884378,1.30773217 Z M121.187304,19.6159826 C121.187304,14.231203 117.520809,12.1542167 111.461444,10.6541709 C108.21949,9.846454 107.370407,9.5002896 107.370407,8.4233337 C107.370407,7.69254219 108.065112,7.11560152 110.342198,7.11560152 C112.349121,7.11560152 114.510424,7.69254219 116.324374,8.76949809 C116.748915,9.03873707 117.134862,8.92334894 117.405025,8.53872183 L120.454005,3.96165923 C120.724168,3.53856941 120.646978,3.1539423 120.222437,2.88470332 C116.941889,0.769254219 114.085882,1.77635684e-15 110.612361,1.77635684e-15 C104.514401,1.77635684e-15 99.6900655,2.8077779 99.6900655,8.19255743 C99.6900655,14.8081437 105.788025,16.9235928 109.570304,17.6543843 C111.693012,18.0774741 113.429773,18.6544148 113.429773,19.8467588 C113.429773,20.7314012 112.58069,21.3852673 110.342198,21.3852673 C107.872138,21.3852673 105.517863,20.3467741 103.395155,18.8851911 C103.009208,18.5774894 102.584667,18.6544148 102.314504,19.0390419 L99.1111453,23.6161045 C98.8409825,24.0007316 98.8795772,24.3853587 99.265524,24.6930604 C102.700451,27.4239129 105.672241,28.5777942 109.724683,28.5777942 C117.44362,28.5777942 121.187304,24.6545977 121.187304,19.6159826 Z M142.761732,25.8469418 C143.031894,25.6546282 142.9933,25.3084638 142.723137,24.9238367 L139.712752,20.3467741 C139.442589,19.9236843 139.095237,19.8852216 138.670695,20.1544605 C137.358476,20.9621775 135.698905,21.4621927 133.962144,21.4621927 C131.337705,21.4621927 129.755323,20.0775351 129.755323,17.5389962 L129.755323,10.9618726 C129.755323,8.76949809 131.299111,7.11560152 134.116523,7.11560152 C135.583121,7.11560152 137.088313,7.50022863 138.246154,8.19255743 C138.70929,8.46179641 139.056642,8.38487099 139.326805,7.96178116 L142.298595,3.38471856 C142.568758,3.00009145 142.530163,2.61546434 142.105622,2.34622537 C139.982914,0.923105063 137.049718,1.77635684e-15 133.84636,1.77635684e-15 C126.397586,1.77635684e-15 122.074981,3.96165923 122.074981,10.5387828 L122.074981,18.0005487 C122.074981,24.616135 126.166018,28.5777942 133.84636,28.5777942 C137.821612,28.5777942 140.716213,27.3085248 142.761732,25.8469418 Z M158.315389,10.6926336 L151.48413,10.6926336 L151.48413,1.30773217 C151.48413,0.80771693 151.213967,0.538477953 150.712236,0.538477953 L144.73006,0.538477953 C144.228329,0.538477953 143.958167,0.80771693 143.958167,1.30773217 L143.958167,27.2700621 C143.958167,27.7700773 144.228329,28.0393163 144.73006,28.0393163 L150.712236,28.0393163 C151.213967,28.0393163 151.48413,27.7700773 151.48413,27.2700621 L151.48413,17.692847 L158.315389,17.692847 L158.315389,27.2700621 C158.315389,27.7700773 158.585551,28.0393163 159.087282,28.0393163 L165.069458,28.0393163 C165.571189,28.0393163 165.841352,27.7700773 165.841352,27.2700621 L165.841352,1.30773217 C165.841352,0.80771693 165.571189,0.538477953 165.069458,0.538477953 L159.087282,0.538477953 C158.585551,0.538477953 158.315389,0.80771693 158.315389,1.30773217 L158.315389,10.6926336 Z" id="heldisch-copy-11"></path>
                    </g>
                    <g id="Group-24" transform="translate(68.000000, 0.000000)">
                        <rect id="Rectangle-5-Copy-2" x="0" y="0" width="31" height="7" rx="3.5"></rect>
                        <rect id="Rectangle-5-Copy-3" x="0" y="12" width="31" height="7" rx="3.5"></rect>
                    </g>
                </g>
                <g id="digital_lettering_05" transform="translate(82.803366, 80.532183) rotate(3.000000) translate(-82.803366, -80.532183) translate(4.803366, 44.032183)" fill-rule="nonzero" fill="#FFB8B8">
                    <path d="M25.4286261,24.3027043 C25.0860906,24.4138225 24.7355892,24.5011296 24.4089856,24.6360587 C21.8678504,25.715492 19.3028174,26.7552402 16.7935459,27.8981695 C14.475457,28.9537917 12.1971979,30.112595 9.91893871,31.2555244 C7.99118095,32.2159025 6.12715073,33.2239026 4.25515456,34.2160288 C3.53821986,34.5970052 2.8690808,35.0732258 2.16807798,35.4938873 C1.81995419,35.7291443 1.44573228,35.9235656 1.05284622,36.0732889 C0.343877462,36.2955252 -0.0942493007,35.8907377 0.0172738752,35.1605329 C0.154314823,34.3698906 0.647500861,33.6854479 1.35555199,33.3032727 C3.64177709,31.8984221 5.88817249,30.4300754 8.23015918,29.1363429 C11.4802632,27.3505159 14.754265,25.6043738 18.1158921,24.040783 C20.5394469,22.821279 23.0766787,21.8403766 25.6915022,21.1120266 C26.2331861,20.9770975 26.6314832,20.7945463 26.4880963,20.1040265 C26.4485016,19.9462207 26.4847284,19.7790423 26.5861413,19.6515707 C26.6875542,19.524099 26.8426449,19.4507998 27.0058824,19.4531917 C27.3084146,19.3878365 27.624025,19.4212309 27.9060338,19.5484358 C28.579113,20.0337693 29.4568809,20.1359539 30.2241227,19.8182942 C32.7771955,19.2828794 35.3822056,19.0326419 37.9909153,19.0722153 C40.0517835,19.0098978 42.0999852,19.4142511 43.981303,20.2548297 C46.4705415,21.1718965 47.8677357,23.8090569 47.223441,26.3742637 C47.1756454,26.620311 47.1278497,26.8742953 47.0641222,27.2314607 C48.1076605,27.0568465 49.0635734,26.9377914 49.9955886,26.7155551 C50.378047,26.5857201 50.7245695,26.368231 51.0072631,26.0805944 C51.3338667,25.778988 51.6604702,25.6758069 51.9791079,25.9774133 C52.6782433,26.4867062 53.2753773,27.1220538 53.7395809,27.8505474 C54.0413265,28.3319916 53.9928716,28.9531799 53.6200918,29.3823902 C52.8712933,30.32954 52.1251501,31.2793354 51.3816623,32.2317765 C50.6381745,33.1842176 49.8415804,34.2054461 48.99188,35.295462 C48.8832553,35.4558466 48.7848161,35.6228505 48.6971401,35.7954936 L48.8086633,35.9145487 C49.0157778,35.7875566 49.2308582,35.6685015 49.4300067,35.5335723 C52.4809622,33.517572 55.5478495,31.5650677 58.5749072,29.4776343 C59.4830244,28.8585476 60.2557207,28.0569097 61.1160424,27.3663899 C62.2790698,26.4218858 63.4580291,25.5011927 64.6369884,24.5804997 C65.0914153,24.2056896 65.69709,24.067332 66.2700063,24.2074602 C66.6567913,24.2909714 67.0476415,24.3545519 67.4409996,24.3979484 C68.1020402,24.4777328 68.6996972,24.8286957 69.0899495,25.3662636 C69.6316334,26.0488464 69.7511226,26.0488464 70.3804319,25.4138856 C71.4399021,24.3503264 72.4754744,23.2708931 73.5668084,22.239082 C75.6038193,20.2165394 77.9580866,18.5383466 80.5370069,17.2705142 C81.3625146,16.9032256 82.3107504,16.9292911 83.1146781,17.3413703 C83.9186058,17.7534495 84.4912442,18.5069573 84.6713303,19.3896957 C84.7205291,19.7981874 84.624711,20.2109549 84.4004883,20.556436 C83.9066,21.2945779 83.3171203,21.9692236 82.7435726,22.6597434 C82.3088185,23.1181038 82.0300874,23.7013132 81.9469784,24.3265154 C81.8912169,24.9773501 81.5486814,25.1202163 81.0468271,24.6995548 C80.1546417,23.9058539 79.302286,23.112153 78.4738281,22.262893 C77.9002803,21.6834913 77.9162122,21.6438063 77.2550391,22.0962158 C75.2300286,23.4284268 73.4333211,25.0765733 71.9337904,26.9774764 C70.8185587,28.4696341 69.5997697,29.8903588 68.3969126,31.3110834 C68.0287484,31.6691219 67.947133,32.2285961 68.197764,32.676249 C68.5508888,33.4309576 68.5508888,34.3026432 68.197764,35.0573518 C67.5474923,36.5525357 66.6020399,37.9021325 65.4176506,39.0258563 C63.7773875,40.6926574 61.7778892,41.9656258 59.5706498,42.7483136 C57.9774616,43.3435893 56.973753,44.5976368 55.7947937,45.669133 C55.2371778,46.1691646 54.7512554,46.7485663 54.1378779,47.391464 C54.3686349,47.4067672 54.6001578,47.4067672 54.8309148,47.391464 C55.7469981,47.2962199 56.6630813,47.2089128 57.5711986,47.0581096 C57.9015397,46.9921018 58.2089876,46.8416714 58.463384,46.6215741 C59.4989563,45.7326291 60.5185968,44.819873 61.5302713,43.907117 C62.8765154,42.6927546 64.2466572,41.5260142 65.5610375,40.2481558 C66.7399968,39.1211005 67.8472626,37.9305491 68.9863922,36.7717457 C69.3368936,36.4145803 69.7112929,36.0812259 70.0299305,35.7002495 C70.4600913,35.1843439 70.8265246,34.6287533 71.2646514,34.1128477 C73.2330786,31.8234578 74.9850619,29.3578026 76.4982747,26.7473032 C76.6819344,26.3452589 76.8389348,25.931647 76.9682652,25.5091297 C77.1435159,25.0249722 77.3824942,24.866232 77.7648593,25.1281533 C78.6127624,25.6528052 79.4317782,26.2224443 80.2183692,26.8346103 C80.4931475,27.1153166 80.7144746,27.4434122 80.8715764,27.8029254 C81.0649929,28.1317199 81.0265404,28.5467752 80.7759851,28.8347366 C80.74974,28.8790232 80.7204622,28.9214544 80.6883597,28.9617287 C78.896023,30.7872408 77.7648593,33.0572254 76.4664109,35.2081549 C75.9993764,36.0550519 75.5792085,36.9267807 75.2077922,37.8194309 C74.9595232,38.2742095 75.0369896,38.8370171 75.3989748,39.2084076 C75.8142075,39.5162365 76.3756389,39.5413777 76.8169124,39.2719036 C77.2260686,39.0938341 77.609236,38.8615649 77.9560419,38.5813838 C79.8689993,37.1363297 81.5643713,35.4257329 82.9905167,33.501698 C84.7270919,31.1205952 86.4238374,28.6759964 88.1046509,26.2393346 C88.9490407,25.0090982 89.6978392,23.7312397 90.5581608,22.4930662 C90.6709981,22.3881358 90.7309701,22.2385195 90.7217259,22.0850089 C90.7124816,21.9314983 90.6349852,21.7901001 90.5103652,21.6993653 C90.2315572,21.42157 89.9766471,21.1199637 89.713771,20.8342313 C89.2931901,20.4471689 89.1766899,19.8313158 89.4269972,19.3182626 C90.0529534,19.276591 90.6810031,19.276591 91.3069593,19.3182626 C92.3986124,19.5227673 93.4974961,18.9994022 94.0233452,18.0245301 C94.570658,17.1925394 95.1720447,16.397138 95.8236479,15.6434273 C96.0748562,15.3445543 96.3768487,15.0920168 96.7158333,14.8973485 C97.2111775,14.5374681 97.8995038,14.6094798 98.3090215,15.0640257 C98.6276592,15.373569 99.0259562,15.5958053 99.3605258,15.8577266 C99.8544141,16.2942621 99.8305163,16.5482464 99.3605258,17.0403409 C98.8905352,17.5324355 98.5639316,17.929286 98.2054643,18.3737585 L98.3329194,18.5563097 C98.9940925,18.4610656 99.6552656,18.3499475 100.324405,18.2626404 C102.252162,18.0086561 104.187886,17.7943568 106.115644,17.5165615 C109.182531,17.072089 112.241453,16.5482464 115.30834,16.1275849 C116.479333,15.9688447 117.698122,15.9688447 118.853184,15.9212227 C119.546631,15.8932714 120.21411,16.1862471 120.661452,16.7149236 C121.115511,17.2149551 120.948226,17.7308607 120.287053,17.8816639 C119.753335,18.0007191 119.187753,18.0165931 118.654035,18.1356482 C116.527129,18.6118688 114.408189,19.1198373 112.281282,19.5881209 C110.154376,20.0564044 108.218652,20.4532549 106.179371,20.8421683 C103.367394,21.381885 100.539485,21.8898535 97.7195419,22.4295702 C97.1519648,22.5371694 96.5764896,22.5982243 95.9988986,22.6121214 C95.4669566,22.626467 94.9861896,22.9315758 94.7482458,23.4058223 C93.5214909,25.3900746 92.3584635,27.3743269 91.0998448,29.3823902 C90.1748682,30.9092111 89.4088184,32.5261681 88.8136197,34.2080918 C88.7468319,34.3982167 88.7468319,34.6053056 88.8136197,34.7954305 C89.721737,34.0969736 90.661718,33.4302649 91.5379716,32.692123 C94.5729951,30.1284691 97.5841209,27.5410041 100.611179,24.9614761 C101.354666,24.3318067 102.10612,23.71272 102.86554,23.104216 C104.605421,21.8153993 106.649413,20.9953044 108.800166,20.7231132 C109.376323,20.6641666 109.95169,20.8418823 110.393354,21.2152078 C110.648264,21.397759 110.863345,21.6279322 111.150119,21.8739795 C111.293506,21.7549244 111.452824,21.6358693 111.596211,21.4930031 C112.225521,20.8580424 112.862796,20.2310186 113.476173,19.5801839 C113.569747,19.4336208 113.731997,19.3448605 113.906334,19.3448605 C114.080672,19.3448605 114.242922,19.4336208 114.336495,19.5801839 L115.045464,20.3183257 C115.597352,20.8118459 115.71176,21.6299086 115.316306,22.254956 C114.416155,23.977287 113.508037,25.6916809 112.663647,27.437823 C112.034338,28.7474295 111.50062,30.096721 110.927072,31.4063275 L111.086391,31.5095087 C111.580279,30.953918 112.098066,30.4142014 112.56009,29.8347997 C114.71886,27.1203426 116.845767,24.3741374 119.012503,21.6676173 C121.330591,18.778546 123.616817,15.8577266 126.038463,13.0638994 C128.89027,9.77797756 131.8536,6.57936286 134.800998,3.39662219 C135.813438,2.37304889 136.876907,1.40086 137.987374,0.483739822 C138.56408,-0.0119404767 139.373335,-0.138119746 140.074451,0.158322446 C140.526251,0.386124058 140.850179,0.805563789 140.955429,1.29906081 C141.06068,1.79255783 140.935924,2.30699661 140.616135,2.69816538 C140.098349,3.38868518 139.548699,4.06333096 139.022947,4.74591375 C135.83657,8.71441833 132.530705,12.6829229 129.463817,16.7625456 C126.718001,20.1879493 124.301644,23.8630972 122.246675,27.7394293 C121.174113,30.024572 120.449221,32.4561767 120.095871,34.9541706 C119.886078,36.0757957 120.039506,37.2348323 120.533997,38.2639035 C120.852635,38.8988642 121.027886,39.605258 121.394319,40.2005337 C122.42006,42.1506382 124.475171,43.3440709 126.683704,43.2721562 C127.893918,43.2799425 129.102157,43.1736422 130.292275,42.9546759 C131.416391,42.6694268 132.502178,42.2510782 133.526447,41.7085654 C138.107863,39.3986578 142.172483,36.1884712 145.475359,32.2714615 C147.541834,29.9527032 149.295866,27.3752359 150.69305,24.6043107 C151.720342,22.4763771 152.521299,20.2471639 153.082833,17.953097 C153.445779,16.6142758 153.593652,15.2266344 153.52096,13.8417263 C153.55618,12.7583336 153.103256,11.7160243 152.286239,11.000277 C151.930483,10.7397679 151.545533,10.5213565 151.139143,10.3494422 C149.543381,9.62151089 147.721316,9.56147248 146.080771,10.182765 C144.622384,10.7149767 143.198988,11.3379356 141.818992,12.0479622 C140.505166,12.7762884 139.364088,13.7778724 138.473297,14.9846556 C137.090851,16.6199874 136.21129,18.617994 135.940127,20.7389872 C135.862194,21.3901609 135.862194,22.0482548 135.940127,22.6994285 C136.019666,23.0168555 136.178619,23.3090314 136.402152,23.5486885 C136.613635,23.7924295 136.842593,24.0205563 137.087223,24.2312713 C136.104589,24.4423272 135.107823,23.9391333 134.697441,23.0248459 C134.247524,22.1202053 134.123761,21.0888534 134.346939,20.1040265 C134.585048,18.9051776 134.890896,17.7206785 135.263022,16.5561834 C136.176031,14.1510885 137.854872,12.1103409 140.042587,10.7462927 C141.343929,9.87884846 142.742036,9.16502123 144.208774,8.61917422 C144.550027,8.48278884 144.90533,8.38430416 145.268245,8.32550488 C146.769173,8.02437062 148.311653,7.98944157 149.824763,8.22232376 C151.893654,8.60996244 153.73976,9.76065146 154.994659,11.4447495 C155.344107,11.9655056 155.575193,12.5560203 155.671764,13.1750175 C156.054179,14.7106064 156.103065,16.309859 155.815151,17.8657899 C155.256307,20.508227 154.367843,23.0706163 153.170458,25.4932557 C151.904552,27.965929 150.475515,30.3522642 148.892748,32.636564 C147.201657,34.9469749 145.232658,37.0420996 143.029815,38.8750532 C140.782522,40.6968219 138.419705,42.3723591 135.956059,43.891243 C135.178106,44.3633927 134.365997,44.7772579 133.526447,45.1294164 C132.65618,45.6157327 131.734462,46.0043764 130.778198,46.2882197 C128.784717,46.8060909 126.696575,46.8468862 124.684253,46.4072749 C124.583785,46.3744807 124.479224,46.3557815 124.373581,46.3517158 C122.366164,46.4072749 120.828737,45.3278416 119.514357,44.0579202 C118.700144,43.1383673 118.01909,42.1098102 117.491008,41.0021716 C116.926283,39.8511953 116.570299,38.6097793 116.439504,37.3352734 C116.201817,35.5933153 116.217915,33.8262824 116.487299,32.0889103 C116.545659,31.6744061 116.638924,31.2655303 116.766107,30.8666109 C117.161793,29.126387 117.694504,27.4199388 118.359295,25.763114 C118.455888,25.5058776 118.527901,25.2401324 118.574376,24.9694131 L118.438955,24.866232 L118.080487,25.3027675 C115.425174,28.4775712 112.76986,31.6523748 110.114546,34.8271785 C109.291795,35.7517784 108.663386,36.8313077 108.266448,38.0019822 C107.94781,39.0020453 107.557479,39.1369745 106.5936,38.72425 C105.058443,38.1180729 104.242447,36.4437781 104.713638,34.8668635 L104.833127,34.438265 C104.668933,34.5175864 104.511716,34.6105116 104.363137,34.7160604 C103.024859,35.9383598 101.750308,37.2400293 100.324405,38.3670846 C99.5319943,38.8666464 98.6777996,39.2615105 97.7832694,39.5417619 C97.6346831,39.5993454 97.4698311,39.5993454 97.3212448,39.5417619 C95.401453,38.6448799 93.8480945,37.2797143 94.6048589,34.9065486 C94.8475158,34.1801021 95.0496288,33.4408294 95.2102704,32.692123 C94.38495,33.1684731 93.6177657,33.7384423 92.9240453,34.390643 C92.1911787,35.1049738 91.4264484,35.7954936 90.7174796,36.5336355 C90.0085109,37.2717773 89.5942819,37.843242 88.9888704,38.4623287 C88.5478124,38.9047801 88.073816,39.3133774 87.5709329,39.6846281 C87.174781,39.984995 86.616863,39.9477096 86.2645185,39.597321 C85.0957495,38.8321707 84.3944247,37.5301747 84.4004883,36.136785 C84.4004883,35.7240605 84.4004883,35.3430841 84.4004883,34.9065486 L84.2332035,34.9065486 L83.7313493,35.3668951 C82.138161,36.8749269 80.6325982,38.4464547 78.9517846,39.8513053 C78.0232609,40.7152587 76.8692777,41.3011575 75.6220212,41.5418882 C74.7451372,41.6926766 73.8550477,41.3585867 73.2959664,40.6688172 C72.3991367,39.6872218 71.9293593,38.3914635 71.989552,37.0654151 C71.989552,36.8908009 71.989552,36.7082497 71.989552,36.5256985 C71.9019267,36.5256985 71.8381991,36.5256985 71.8063354,36.5256985 L65.0990129,42.9229278 L61.2833271,46.5739521 C61.1957018,46.6612592 61.1240083,46.7644403 60.9487576,46.9708025 C61.1422722,47.0619974 61.3494762,47.1209835 61.5621351,47.1454167 C64.2944529,46.8279364 66.3416998,48.2089759 68.3013213,49.8201888 C69.424519,50.7488189 69.687395,52.2012916 69.8945095,53.5823312 C70.1708256,55.5611111 70.1520353,57.5697208 69.8387479,59.543025 C69.5565821,60.8821623 69.0873329,62.175258 68.4447082,63.3845375 C66.9746672,66.4946642 64.6345374,69.1156815 61.705522,70.9326332 C59.8585213,72.1628701 57.7110539,72.8706064 55.4920879,72.9803816 C53.7844212,73.0589345 52.0740663,72.9013413 50.4098175,72.512098 C48.2669793,72.0200035 45.8453332,70.0198771 45.470934,67.6149634 C45.0341548,65.1166194 45.3703231,62.5449993 46.4348129,60.2414818 C47.934245,57.0811425 50.0271385,54.2360926 52.6004513,51.8600002 C53.6439896,50.875811 54.7353235,49.9313069 55.7868278,48.8121886 C55.2501095,48.8803879 54.7180608,48.98111 54.1936395,49.113795 C52.3856637,49.6076027 50.7134527,50.5030839 49.3025517,51.733008 C47.152858,53.7111304 44.8487555,55.5158693 42.4120126,57.1301743 C41.9280969,57.4146028 41.3349437,57.4444596 40.8247223,57.2100717 C40.3145009,56.9756838 39.9521058,56.5068628 39.8549455,55.9554969 C39.8625474,55.6434097 39.977895,55.3434741 40.1815491,55.1062369 C41.1081519,53.9677324 42.0974495,52.8813376 43.1448792,51.8520632 C45.4788999,49.6931967 47.9244439,47.6216373 50.3142262,45.5024558 C51.1825138,44.7087549 52.0826651,44.0102981 52.9589187,43.2562822 C53.4687389,42.8118097 53.9626272,42.3435262 54.4166859,41.9308017 C54.4166859,41.7720615 54.4166859,41.7006284 54.4166859,41.6688804 C53.3970454,40.6688172 53.3970454,39.5020769 53.6599215,38.2242184 C54.0066796,36.6980761 54.6776009,35.2636762 55.6275089,34.0176036 C55.7553641,33.8470246 55.8301494,33.6428018 55.8425893,33.4302649 C55.7318822,33.473703 55.6252532,33.5268239 55.5239517,33.5890051 C53.0067143,35.4092258 50.4947875,37.2320923 47.9881714,39.0576044 C46.5462978,40.0827762 45.3202881,41.3798377 44.3796001,42.8753058 C44.2266782,43.1571842 43.9627362,43.3627797 43.6512878,43.4426186 C43.3398395,43.5224575 43.0090852,43.4693107 42.7386162,43.2959673 C42.1630231,43.0812248 41.7111038,42.6254803 41.5025398,42.0494282 C41.2939757,41.4733762 41.3498071,40.8351296 41.6552482,40.3037148 C43.0690226,37.1987684 44.8414727,34.2687324 46.9366672,31.5730047 C47.2393729,31.1840913 47.494283,30.7793038 47.7332613,30.3268943 C47.8284193,30.1492245 47.9135225,29.9663874 47.9881714,29.7792407 C47.2098865,29.8987569 46.4387055,30.0603817 45.6780485,30.2633982 C45.4072065,30.3507053 45.192126,30.7158077 45.0248413,31.0015401 C43.2714512,33.8737711 41.2838841,36.5974136 39.0822492,39.1449115 C34.8591352,43.8512799 29.9213279,47.8685963 24.4488153,51.0504252 C22.3617388,52.3203467 20.2268665,53.5188351 18.0760624,54.6220794 C15.3293136,56.0128958 12.4285412,57.0784209 9.4330163,57.796883 C7.76636225,58.3116787 6.00450989,58.4446265 4.27905238,58.1857965 C3.99281611,58.1514613 3.71934535,58.0479199 3.48245827,57.8841901 C2.00079322,56.5745836 1.37944981,55.193544 2.12824828,53.2727878 C2.84444026,51.5363438 3.93178877,49.9762488 5.31462473,48.7010705 C6.64776074,47.3593055 8.05741516,46.0952244 9.53657353,44.9151171 C11.2572168,43.5420146 13.1371789,42.3514632 14.9852773,41.1609118 C15.9607471,40.5238743 16.8133775,39.7173549 17.5025147,38.7798091 C20.0230563,35.1892133 22.2044188,31.373737 24.0186545,27.3822639 C24.5045769,26.3980748 25.0143972,25.4218226 25.5082855,24.4376335 L25.4286261,24.3027043 Z M48.6174807,65.2338606 C48.5965679,65.5483505 48.5965679,65.8638748 48.6174807,66.1783647 C48.6187047,66.912218 48.9040507,67.6173059 49.4140748,68.146743 C50.6078559,69.3226223 52.2471366,69.9372842 53.9227975,69.8373259 C55.8430816,69.7220136 57.7130579,69.1796018 59.3953991,68.2499241 C61.5144347,67.0483488 63.3335029,65.3851171 64.7166478,63.3845375 C66.0497299,61.6187192 66.9153904,59.5470421 67.2338852,57.3603475 C67.4019779,55.7999604 67.4419404,54.2285047 67.3533743,52.6616381 C67.3262784,51.0990462 66.3441419,49.7114285 64.8759666,49.161417 C63.5029787,48.6392243 62.032671,48.4198853 60.5663924,48.5185193 C59.877218,48.4845214 59.1970688,48.6861449 58.6386347,49.089984 C57.6349261,49.8836849 56.6790132,50.7488189 55.7151343,51.5980789 C55.2791442,51.9773506 54.8642959,52.3800937 54.4724475,52.8045043 C53.6644357,53.6404966 52.9063677,54.5230222 52.2021542,55.4475283 C51.5968312,56.365516 51.0488001,57.3197618 50.5611704,58.3048516 C49.3796033,60.4318034 48.7139614,62.804733 48.6174807,65.2338606 L48.6174807,65.2338606 Z M41.7906692,30.7237448 L38.1502341,31.842863 C37.7706463,31.9458015 37.3981271,32.0730585 37.0350023,32.2238395 C34.8364026,33.2318396 32.613905,34.1922178 30.4631009,35.295462 C28.1290801,36.4939504 25.8826847,37.87499 23.5566299,39.1052264 C20.4506486,40.6798052 17.9366186,43.2097534 16.3872829,46.3199678 C15.6384844,47.8200625 14.7940947,49.2566612 13.9258071,50.7170708 C13.5832716,51.3123465 13.2805659,51.4472757 12.7866775,51.2726615 C12.1376887,51.0941036 11.6137386,50.6167346 11.3773352,49.9886151 C11.1409318,49.3604956 11.2206581,48.6575702 11.5917863,48.0978578 C11.7192414,47.8676846 11.8785602,47.6613223 12.0139812,47.431149 C12.2927892,46.9469915 12.5556652,46.4548969 12.8105753,45.9707394 C11.5672201,46.5099518 10.4250548,47.2561044 9.4330163,48.1772279 C7.46206401,49.8839713 5.76432705,51.8806673 4.3985415,54.0982367 C4.11549703,54.3956124 4.06608602,54.8445003 4.27771352,55.1959318 C4.48934103,55.5473633 4.91011467,55.7151651 5.30665879,55.6062685 C6.25215176,55.5477246 7.19360891,55.436432 8.12660195,55.2729141 C11.2565317,54.8014281 14.2790434,53.785942 17.056422,52.2727246 C19.2311239,51.0504252 21.3102345,49.6614486 23.4291749,48.3042201 C24.8152486,47.399401 26.1057311,46.3596528 27.475873,45.4310227 C29.9785598,43.7298462 32.3173084,41.8008102 34.4620033,39.6687541 C36.2862039,37.859116 37.9112559,35.8431157 39.5602057,33.8747374 C40.324936,32.9302333 40.9701772,31.8746111 41.7906692,30.7237448 Z M23.5008683,35.6050054 L23.684085,35.7954936 C24.8869421,35.2240289 26.0738673,34.6922493 27.2926563,34.0810996 C32.1269873,31.4680425 37.2741492,29.4758608 42.6111611,28.1521538 C42.8051073,28.0990152 42.9672704,27.9662936 43.0572538,27.7870514 C43.3997893,26.8504843 43.7184269,25.9139172 44.0052008,24.9614761 C44.1593455,24.3655175 43.9762744,23.733176 43.5272444,23.3105782 C42.6831257,22.411899 41.4874678,21.924938 40.2532425,21.9771606 C38.0785406,21.9057276 35.8958727,21.9771606 33.7132049,22.1120898 C32.8730311,22.1798379 32.0394096,22.3125206 31.2198653,22.5089403 C30.6082488,22.5793711 30.0654131,22.9321086 29.7541321,23.4613814 C29.1566865,24.5646256 28.4955134,25.6440589 27.9299316,26.7631772 C26.4403006,29.7078076 24.9745674,32.660375 23.5008683,35.6050054 Z M66.9949069,33.7636193 C66.8993156,32.9143593 66.7320309,32.7635561 66.0071302,32.4460757 C65.5082039,32.2243901 65.0482802,31.9242476 64.6449543,31.5571307 C63.8483602,30.8666109 63.8085305,30.8427999 63.0517661,31.6047528 C62.2950017,32.3667056 61.4585778,33.3588318 60.5823243,34.1445957 C58.9015107,35.6526274 57.8898362,37.6051317 56.8462979,39.5417619 C56.5778994,40.0662076 56.6704651,40.7022729 57.0773102,41.1291638 C57.4234,41.3880879 57.8679187,41.4784171 58.2881333,41.3752111 C59.1492934,41.1479615 59.9868276,40.8396777 60.7894388,40.454518 C63.1502261,39.3267561 65.111468,37.511031 66.4133932,35.24784 C66.6521451,34.7745045 66.8467992,34.280338 66.9949069,33.7715563 L66.9949069,33.7636193 Z M109.915398,23.9217279 L109.764045,23.7391767 C109.485237,23.8423578 109.198463,23.9376019 108.927621,24.0566571 C105.605824,25.4376966 103.478917,28.2077128 101.21659,30.7872408 C100.087632,32.2428759 99.1630409,33.8450198 98.4683404,35.5494463 C98.2378571,35.9405382 98.3106908,36.4386271 98.6435911,36.7479347 C98.8666374,36.5971315 99.0896838,36.4701394 99.2808663,36.3113992 C101.447602,34.5176351 103.63027,32.7397451 105.757176,30.906296 C106.341352,30.3774917 106.836264,29.7584194 107.22291,29.0728468 C108.019504,27.7156183 108.720507,26.3028306 109.453373,24.913854 C109.620658,24.5884367 109.764045,24.2550823 109.915398,23.9296649 L109.915398,23.9217279 Z M68.4925039,27.5648151 C67.6082844,27.5648151 65.0671492,29.4855713 64.7405456,30.2951463 C65.3539231,30.4618234 65.3698549,30.4697605 65.7840839,30.104658 C66.5089845,29.4617603 67.2179533,28.8109255 67.934888,28.1600908 C68.1101387,28.0013506 68.2694575,27.8108624 68.4925039,27.5727521 L68.4925039,27.5648151 Z" id="Shape"></path>
                    <path d="M76,48.3194823 C76.2047593,47.6177976 76.3386404,46.697308 77.3624371,46.3728732 C78.437114,46.008085 79.5337805,45.705736 80.6464619,45.4674736 C82.9145653,45.0223188 85.1826687,44.577164 87.4743982,44.2979991 C90.1283943,43.9660192 92.798141,43.8075743 95.4678877,43.5434994 C96.4286816,43.4605045 97.3816,43.3096045 98.3423938,43.2718795 C101.405909,43.1511596 104.477299,42.9927147 107.548689,43.0002597 C109.462401,43.0002597 111.383989,43.2869695 113.297701,43.4378695 C114.644387,43.5434994 115.865068,45.0751337 115.991074,46.1238883 C116.077703,46.833118 115.518552,47.3159977 114.975152,46.9387479 C113.589089,45.9956233 112.037643,46.0031683 110.478322,46.0786183 C107.052541,46.2446082 103.62676,46.4558681 100.200979,46.667128 C98.0746316,46.802938 95.9482847,46.9462929 93.829813,47.1575528 C91.5853357,47.3839027 89.3408583,47.6857026 87.1042564,47.9724125 C84.5754971,48.2820421 82.0868321,48.8408155 79.6777927,49.6398567 C79.05765,49.8309002 78.4145059,49.9450048 77.7640804,49.9793816 C76.4961476,50.1076465 76,49.6474017 76,48.3194823 Z" id="Shape"></path>
                    <path d="M60.4069655,20.192865 C60.3373246,20.2040194 60.2662739,20.2040194 60.196633,20.192865 C59.3163524,19.7689905 58.6386143,20.192865 58.0465672,20.7302772 C57.119546,21.5931644 56.200315,22.47119 55.2732938,23.3416465 C54.3462727,24.2121029 54.0112987,24.174257 53.1310181,23.4930302 C51.7210112,22.3954982 51.6586904,22.1381459 52.7804639,20.6243086 C53.578904,19.6130138 54.4936843,18.6936998 55.5069967,17.8842632 C56.170728,17.2313732 57.1074464,16.9126955 58.0453668,17.0206932 C58.9832872,17.128691 59.8174013,17.6512728 60.3056943,18.4368138 C60.5430686,18.764751 60.746595,19.1146252 60.9133216,19.4813615 C61.1314442,19.9128051 60.9289018,20.1852958 60.4069655,20.192865 Z" id="Shape"></path>
                </g>
            </g>
        </g>
    </g>
</svg>
