<?xml version="1.0" encoding="utf-8"?>
<!-- Generator: Adobe Illustrator 17.0.0, SVG Export Plug-In . SVG Version: 6.00 Build 0)  -->
<!DOCTYPE svg PUBLIC "-//W3C//DTD SVG 1.1//EN" "http://www.w3.org/Graphics/SVG/1.1/DTD/svg11.dtd">
<svg version="1.1" id="Layer_1" xmlns="http://www.w3.org/2000/svg" xmlns:xlink="http://www.w3.org/1999/xlink" x="0px" y="0px"
	 width="52px" height="52px" viewBox="0 0 52 52" enable-background="new 0 0 52 52" xml:space="preserve">
<title>button</title>
<desc>Created with Sketch.</desc>
<g id="Welcome">
	<g id="start3" transform="translate(-1316.000000, -1511.000000)">
		<g id="button" transform="translate(1318.000000, 1513.000000)">
			<circle id="Oval-2" fill="none" stroke="#FFFFFF" stroke-width="3" cx="24" cy="24" r="24"/>
			
				<g id="Group-3" transform="translate(26.000000, 24.500000) scale(-1, 1) translate(-26.000000, -24.500000) translate(17.000000, 12.000000)">
				<path id="Rectangle-5-Copy-4" fill="#FFFFFF" d="M21.734,10.7c0.546,1.186,0.224,2.7-0.716,3.38L7.761,23.67
					c-0.942,0.681-2.148,0.272-2.694-0.913l-0.292-0.634c-0.546-1.186-0.224-2.7,0.716-3.38l13.256-9.59
					c0.942-0.681,2.148-0.272,2.694,0.913"/>
				<path id="Rectangle-5-Copy-5" fill="#FFFFFF" d="M21.442,13.499c-0.546,1.186-1.754,1.593-2.694,0.913L5.491,4.821
					C4.549,4.14,4.229,2.626,4.775,1.441l0.292-0.634c0.546-1.186,1.754-1.593,2.694-0.913l13.256,9.59
					c0.942,0.681,1.262,2.195,0.716,3.38"/>
			</g>
		</g>
	</g>
</g>
</svg>
