<?xml version="1.0" encoding="utf-8"?>
<!-- Generator: Adobe Illustrator 17.0.0, SVG Export Plug-In . SVG Version: 6.00 Build 0)  -->
<!DOCTYPE svg PUBLIC "-//W3C//DTD SVG 1.1//EN" "http://www.w3.org/Graphics/SVG/1.1/DTD/svg11.dtd">
<svg version="1.1" id="Layer_1" xmlns="http://www.w3.org/2000/svg" xmlns:xlink="http://www.w3.org/1999/xlink" x="0px" y="0px"
	 width="80px" height="80px" viewBox="0 0 80 80" enable-background="new 0 0 80 80" xml:space="preserve">
<g>
	<path fill="#FFFFFF" d="M40,79.722C18.097,79.722,0.278,61.903,0.278,40S18.097,0.278,40,0.278S79.722,18.097,79.722,40
		S61.903,79.722,40,79.722z M40,4.604C20.483,4.604,4.604,20.483,4.604,40S20.483,75.396,40,75.396S75.396,59.518,75.396,40
		S59.517,4.604,40,4.604z"/>
	<path fill-rule="evenodd" clip-rule="evenodd" fill="#FFFFFF" d="M48.274,51.597L33.61,40.743l14.663-10.854
		c1.431-1.06,1.922-3.418,1.09-5.266l-0.444-0.986c-0.831-1.846-2.668-2.484-4.101-1.422L25.804,36.289
		c-0.505,0.179-0.969,0.535-1.347,1.031c-0.896,0.784-1.364,2.096-1.295,3.425c-0.069,1.323,0.397,2.631,1.29,3.415
		c0.382,0.503,0.851,0.864,1.362,1.043l19.004,14.068c1.431,1.06,3.27,0.424,4.101-1.422l0.444-0.986
		C50.195,55.016,49.707,52.659,48.274,51.597z"/>
</g>
</svg>
