<?xml version="1.0" encoding="utf-8"?>
<!-- Generator: Adobe Illustrator 17.0.0, SVG Export Plug-In . SVG Version: 6.00 Build 0)  -->
<!DOCTYPE svg PUBLIC "-//W3C//DTD SVG 1.1//EN" "http://www.w3.org/Graphics/SVG/1.1/DTD/svg11.dtd">
<svg version="1.1" id="Layer_1" xmlns="http://www.w3.org/2000/svg" xmlns:xlink="http://www.w3.org/1999/xlink" x="0px" y="0px"
	 width="64.75px" height="64.25px" viewBox="0 0 64.75 64.25" enable-background="new 0 0 64.75 64.25" xml:space="preserve">
<g>
	<circle fill="none" stroke="#FED4D5" stroke-width="5" stroke-miterlimit="10" cx="32.375" cy="32.125" r="28.5"/>
	<path fill-rule="evenodd" clip-rule="evenodd" fill="#FED4D5" d="M20.034,44.89c-1.488-1.488-1.492-3.895-0.004-5.383
		l19.531-19.531c1.486-1.485,3.899-1.48,5.383,0.004c1.488,1.488,1.493,3.895,0.004,5.383L25.417,44.894
		C23.932,46.379,21.519,46.374,20.034,44.89z"/>
	<path fill-rule="evenodd" clip-rule="evenodd" fill="#FED4D5" d="M20.034,19.979c1.488-1.488,3.895-1.492,5.383-0.004
		l19.531,19.531c1.486,1.485,1.481,3.898-0.004,5.383c-1.487,1.488-3.895,1.492-5.383,0.004L20.03,25.362
		C18.545,23.877,18.549,21.464,20.034,19.979z"/>
</g>
</svg>
