<?xml version="1.0" encoding="utf-8"?>
<!-- Generator: Adobe Illustrator 17.0.0, SVG Export Plug-In . SVG Version: 6.00 Build 0)  -->
<!DOCTYPE svg PUBLIC "-//W3C//DTD SVG 1.1//EN" "http://www.w3.org/Graphics/SVG/1.1/DTD/svg11.dtd">
<svg version="1.1" id="Layer_1" xmlns="http://www.w3.org/2000/svg" xmlns:xlink="http://www.w3.org/1999/xlink" x="0px" y="0px"
	 width="82.227px" height="48.735px" viewBox="0 0 82.227 48.735" enable-background="new 0 0 82.227 48.735" xml:space="preserve">
<g>
	<g>
		<defs>
			<path id="SVGID_9_" d="M1.785,6.563c0-2.5,2.034-4.527,4.547-4.527h69.191c2.511,0,4.547,2.031,4.547,4.527v7.925
				c0,2.5-2.034,4.527-4.547,4.527H6.333c-2.511,0-4.547-2.031-4.547-4.527V6.563z"/>
		</defs>
		<clipPath id="SVGID_1_">
			<use xlink:href="#SVGID_9_"  overflow="visible"/>
		</clipPath>
		<g clip-path="url(#SVGID_1_)">
			<defs>
				<rect id="SVGID_11_" x="-763.008" y="-994.238" width="1633.981" height="4137.147"/>
			</defs>
			<clipPath id="SVGID_2_">
				<use xlink:href="#SVGID_11_"  overflow="visible"/>
			</clipPath>
			<rect x="-3.888" y="-3.638" clip-path="url(#SVGID_2_)" fill="#404040" width="89.633" height="28.327"/>
		</g>
	</g>
	<g>
		<defs>
			<path id="SVGID_13_" d="M1.785,34.966c0-2.501,2.034-4.527,4.547-4.527h69.191c2.511,0,4.547,2.031,4.547,4.527v7.924
				c0,2.501-2.034,4.529-4.547,4.529H6.333c-2.511,0-4.547-2.032-4.547-4.529V34.966z"/>
		</defs>
		<clipPath id="SVGID_3_">
			<use xlink:href="#SVGID_13_"  overflow="visible"/>
		</clipPath>
		<g clip-path="url(#SVGID_3_)">
			<defs>
				<rect id="SVGID_15_" x="-763.008" y="-994.238" width="1633.981" height="4137.147"/>
			</defs>
			<clipPath id="SVGID_4_">
				<use xlink:href="#SVGID_15_"  overflow="visible"/>
			</clipPath>
			<rect x="-3.888" y="24.765" clip-path="url(#SVGID_4_)" fill="#404040" width="89.633" height="28.327"/>
		</g>
	</g>
</g>
</svg>
