<?xml version="1.0" encoding="utf-8"?>
<!-- Generator: Adobe Illustrator 17.0.0, SVG Export Plug-In . SVG Version: 6.00 Build 0)  -->
<!DOCTYPE svg PUBLIC "-//W3C//DTD SVG 1.1//EN" "http://www.w3.org/Graphics/SVG/1.1/DTD/svg11.dtd">
<svg version="1.1" id="Layer_1" xmlns="http://www.w3.org/2000/svg" xmlns:xlink="http://www.w3.org/1999/xlink" x="0px" y="0px"
	 width="484.375px" height="292.188px" viewBox="0 0 484.375 292.188" enable-background="new 0 0 484.375 292.188"
	 xml:space="preserve">
<g>
	<g>
		<defs>
			<path id="SVGID_9_" d="M6.215,29.617c0-11.601,9.401-21.005,21.003-21.005h429.938c11.6,0,21.003,9.402,21.003,21.005v60.868
				c0,11.601-9.401,21.005-21.003,21.005H27.218c-11.6,0-21.003-9.402-21.003-21.005V29.617z"/>
		</defs>
		<clipPath id="SVGID_1_">
			<use xlink:href="#SVGID_9_"  overflow="visible"/>
		</clipPath>
		<g clip-path="url(#SVGID_1_)">
			<defs>
				<rect id="SVGID_11_" x="-476.785" y="-378.388" width="1440" height="1024"/>
			</defs>
			<clipPath id="SVGID_2_">
				<use xlink:href="#SVGID_11_"  overflow="visible"/>
			</clipPath>
			<rect x="1.215" y="3.612" clip-path="url(#SVGID_2_)" fill="#FCE5E5" width="481.944" height="112.878"/>
		</g>
	</g>
	<g>
		<defs>
			<path id="SVGID_13_" d="M6.215,201.703c0-11.601,9.401-21.005,21.003-21.005h429.938c11.6,0,21.003,9.402,21.003,21.005v60.868
				c0,11.601-9.401,21.005-21.003,21.005H27.218c-11.6,0-21.003-9.403-21.003-21.005V201.703z"/>
		</defs>
		<clipPath id="SVGID_3_">
			<use xlink:href="#SVGID_13_"  overflow="visible"/>
		</clipPath>
		<g clip-path="url(#SVGID_3_)">
			<defs>
				<rect id="SVGID_15_" x="-476.785" y="-378.388" width="1440" height="1024"/>
			</defs>
			<clipPath id="SVGID_4_">
				<use xlink:href="#SVGID_15_"  overflow="visible"/>
			</clipPath>
			<rect x="1.215" y="175.698" clip-path="url(#SVGID_4_)" fill="#FCE5E5" width="481.944" height="112.878"/>
		</g>
	</g>
</g>
</svg>
