<?xml version="1.0" encoding="utf-8"?>
<!-- Generator: Adobe Illustrator 17.0.0, SVG Export Plug-In . SVG Version: 6.00 Build 0)  -->
<!DOCTYPE svg PUBLIC "-//W3C//DTD SVG 1.1//EN" "http://www.w3.org/Graphics/SVG/1.1/DTD/svg11.dtd">
<svg version="1.1" id="Layer_1" xmlns="http://www.w3.org/2000/svg" xmlns:xlink="http://www.w3.org/1999/xlink" x="0px" y="0px"
	 width="80px" height="80px" viewBox="0 0 80 80" enable-background="new 0 0 80 80" xml:space="preserve">
<g>
	<path fill="#FFFFFF" d="M0.278,40C0.278,18.097,18.097,0.278,40,0.278S79.722,18.097,79.722,40S61.903,79.722,40,79.722
		S0.278,61.903,0.278,40z M4.604,40c0,19.518,15.879,35.396,35.396,35.396S75.396,59.517,75.396,40S59.517,4.604,40,4.604
		S4.604,20.482,4.604,40z"/>
	<path fill="#FFFFFF" d="M30.637,56.863l0.444,0.986c0.831,1.846,2.67,2.482,4.101,1.422l19.004-14.068
		c0.511-0.179,0.98-0.54,1.362-1.043c0.893-0.784,1.359-2.092,1.29-3.415c0.069-1.329-0.399-2.641-1.295-3.425
		c-0.378-0.496-0.842-0.852-1.347-1.031L35.182,22.215c-1.433-1.062-3.27-0.424-4.101,1.422l-0.444,0.986
		c-0.832,1.848-0.341,4.206,1.09,5.266L46.39,40.743L31.726,51.597C30.293,52.659,29.805,55.016,30.637,56.863z"/>
</g>
</svg>
