<?xml version="1.0" encoding="utf-8"?>
<!-- Generator: Adobe Illustrator 17.0.0, SVG Export Plug-In . SVG Version: 6.00 Build 0)  -->
<!DOCTYPE svg PUBLIC "-//W3C//DTD SVG 1.1//EN" "http://www.w3.org/Graphics/SVG/1.1/DTD/svg11.dtd">
<svg version="1.1" id="Layer_1" xmlns="http://www.w3.org/2000/svg" xmlns:xlink="http://www.w3.org/1999/xlink" x="0px" y="0px"
	 width="222.333px" height="162px" viewBox="652.667 0 222.333 162" enable-background="new 652.667 0 222.333 162"
	 xml:space="preserve">
<filter  height="103.5%" width="103.5%" y="-1.7%" x="-1.7%" id="filter-9" filterUnits="objectBoundingBox">
	<feGaussianBlur  in="SourceGraphic" stdDeviation="0"></feGaussianBlur>
</filter>
<filter  height="110.3%" width="110.3%" y="-5.1%" x="-5.1%" id="filter-7" filterUnits="objectBoundingBox">
	<feGaussianBlur  in="SourceGraphic" stdDeviation="1.47058824"></feGaussianBlur>
</filter>
<title>Group</title>
<desc>Created with Sketch.</desc>
<g id="Welcome">
	<g id="Artboard-Copy" transform="translate(-226.000000, -38.000000)">
		<g id="Group" transform="translate(228.000000, 38.000000)">
			<g id="Group-3-Copy" transform="translate(78.000000, 0.000000)">
				<path id="Rectangle-2-Copy-19" fill="#FCC000" d="M577,67h13c1.105,0,2,0.895,2,2v45c0,1.105-0.895,2-2,2h-13
					c-1.105,0-2-0.895-2-2V69C575,67.895,575.895,67,577,67z"/>
				<path id="Rectangle-2-Copy-20" fill="#FCC000" d="M604,70h13c1.105,0,2,0.895,2,2v42c0,1.105-0.895,2-2,2h-13
					c-1.105,0-2-0.895-2-2V72C602,70.895,602.895,70,604,70z"/>
				<path id="Rectangle-2-Copy-21" fill="#FCC000" d="M631,76h13c1.105,0,2,0.895,2,2v36c0,1.105-0.895,2-2,2h-13
					c-1.105,0-2-0.895-2-2V78C629,76.895,629.895,76,631,76z"/>
				<path id="Rectangle-2-Copy-22" fill="#FCC000" d="M658,84h13c1.105,0,2,0.895,2,2v28c0,1.105-0.895,2-2,2h-13
					c-1.105,0-2-0.895-2-2V86C656,84.895,656.895,84,658,84z"/>
				<path id="Rectangle-2-Copy-23" opacity="0.5969" fill="#FCC000" enable-background="new    " d="M685,93h13c1.105,0,2,0.895,2,2
					v19c0,1.105-0.895,2-2,2h-13c-1.105,0-2-0.895-2-2V95C683,93.895,683.895,93,685,93z"/>
			</g>
			<path id="Line-Copy_2_" fill="none" stroke="#FF4647" stroke-width="3" stroke-linecap="square" d="M649.296,69.269
				c70.053,6.114,158.461,46.052,158.461,46.052"/>
			<g id="Group-2-Copy-7" transform="translate(783.000000, 70.000000)">
				<g id="Oval-2-Copy-3_2_" filter="url(#filter-7)">
					<circle fill="#9C9C9C" cx="44" cy="46" r="43"/>
				</g>
				<g id="Oval-2_2_" filter="url(#filter-9)">
					<g>
						<circle id="path-8_3_" fill="#F4F4F4" stroke="#9A9292" stroke-width="3" cx="43" cy="43" r="43"/>
					</g>
					<g>
						<circle id="path-8_2_" fill="none" stroke="#000000" cx="43" cy="43" r="43"/>
					</g>
				</g>
			</g>
			<path id="_x33_-copy" fill="#FF4647" d="M833.688,116.792c0-4.752-3.708-7.38-7.524-7.272l-0.036-0.072l6.516-6.912
				c0.144-0.18,0.252-0.396,0.252-0.648V99.8c0-0.36-0.18-0.54-0.504-0.54h-14.688c-0.324,0-0.504,0.18-0.504,0.54v2.808
				c0,0.36,0.18,0.54,0.504,0.54h9.756c-0.684,0.54-2.376,2.304-3.06,3.024l-3.528,3.852c-0.216,0.252-0.252,0.504-0.144,0.756
				l0.684,1.476c0.144,0.252,0.36,0.396,0.648,0.324c0.828-0.18,1.728-0.252,2.268-0.252c3.276,0,5.076,1.476,5.076,4.356
				c0,3.132-1.944,4.788-4.68,4.788c-2.916,0-4.5-0.972-6.264-2.232c-0.252-0.216-0.54-0.216-0.756,0l-1.764,2.052
				c-0.216,0.252-0.216,0.504,0,0.756c2.196,1.908,4.752,3.384,8.784,3.384C829.872,125.432,833.688,122.156,833.688,116.792z"/>
		</g>
	</g>
</g>
</svg>
