<?xml version="1.0" encoding="utf-8"?>
<!-- Generator: Adobe Illustrator 17.0.0, SVG Export Plug-In . SVG Version: 6.00 Build 0)  -->
<!DOCTYPE svg PUBLIC "-//W3C//DTD SVG 1.1//EN" "http://www.w3.org/Graphics/SVG/1.1/DTD/svg11.dtd">
<svg version="1.1" id="Layer_1" xmlns="http://www.w3.org/2000/svg" xmlns:xlink="http://www.w3.org/1999/xlink" x="0px" y="0px"
	 width="210px" height="162px" viewBox="0 0 210 162" enable-background="new 0 0 210 162" xml:space="preserve">
<filter  height="103.5%" width="103.5%" y="-1.7%" x="-1.7%" id="filter-3" filterUnits="objectBoundingBox">
	<feGaussianBlur  in="SourceGraphic" stdDeviation="0"></feGaussianBlur>
</filter>
<filter  height="110.3%" width="110.3%" y="-5.1%" x="-5.1%" id="filter-1" filterUnits="objectBoundingBox">
	<feGaussianBlur  in="SourceGraphic" stdDeviation="1.47058824"></feGaussianBlur>
</filter>
<title>Group</title>
<desc>Created with Sketch.</desc>
<g id="Welcome">
	<g id="Artboard-Copy" transform="translate(-226.000000, -38.000000)">
		<g id="Group" transform="translate(228.000000, 38.000000)">
			<g id="Group-3-Copy" transform="translate(78.000000, 0.000000)">
				<path id="Rectangle-2" fill="#FCC000" d="M2,60h13c1.105,0,2,0.895,2,2v52c0,1.105-0.895,2-2,2H2c-1.105,0-2-0.895-2-2V62
					C0,60.895,0.895,60,2,60z"/>
				<path id="Rectangle-2-Copy" fill="#FCC000" d="M29,35h13c1.105,0,2,0.895,2,2v77c0,1.105-0.895,2-2,2H29c-1.105,0-2-0.895-2-2
					V37C27,35.895,27.895,35,29,35z"/>
				<path id="Rectangle-2-Copy-2" fill="#FCC000" d="M56,14h13c1.105,0,2,0.895,2,2v98c0,1.105-0.895,2-2,2H56c-1.105,0-2-0.895-2-2
					V16C54,14.895,54.895,14,56,14z"/>
				<path id="Rectangle-2-Copy-3" fill="#FCC000" d="M83,0h13c1.105,0,2,0.895,2,2v112c0,1.105-0.895,2-2,2H83c-1.105,0-2-0.895-2-2
					V2C81,0.895,81.895,0,83,0z"/>
				<path id="Rectangle-2-Copy-4" fill="#FCC000" d="M110,6h13c1.105,0,2,0.895,2,2v106c0,1.105-0.895,2-2,2h-13
					c-1.105,0-2-0.895-2-2V8C108,6.895,108.895,6,110,6z"/>
			</g>
			<path id="Line-Copy_1_" fill="none" stroke="#FF4647" stroke-width="3" stroke-linecap="square" d="M46,115.32
				C46,115.32,140.367,5,173.91,5c1.792,0,10.115,5.772,28.729,16.121"/>
			<g id="Group-2-Copy-5" transform="translate(0.000000, 70.000000)">
				<g id="Oval-2-Copy-3" filter="url(#filter-1)">
					<circle fill="#9C9C9C" cx="44" cy="46" r="43"/>
				</g>
				<g id="Oval-2" filter="url(#filter-3)">
					<g>
						<circle id="path-2_3_" fill="#F4F4F4" stroke="#9A9292" stroke-width="3" cx="43" cy="43" r="43"/>
					</g>
					<g>
						<circle id="path-2_2_" fill="none" stroke="#000000" cx="43" cy="43" r="43"/>
					</g>
				</g>
			</g>
			<path id="_x31_-copy" fill="#FF4647" d="M45.902,125c0.324,0,0.504-0.18,0.504-0.54V99.8c0-0.36-0.18-0.54-0.504-0.54H43.13
				c-0.252,0-0.468,0.036-0.648,0.18l-6.156,4.176c-0.252,0.216-0.324,0.504-0.144,0.756l1.476,2.376
				c0.216,0.324,0.468,0.36,0.72,0.18l3.816-2.628v20.16c0,0.36,0.18,0.54,0.54,0.54H45.902z"/>
		</g>
	</g>
</g>
</svg>
