<svg xmlns="http://www.w3.org/2000/svg" xmlns:xlink="http://www.w3.org/1999/xlink" viewBox="0 0 174.73 101.86"><defs><style>.a{fill:none;}.b{clip-path:url(#a);}.c{opacity:0.87;}.d{clip-path:url(#c);}.e{fill:#fff;}.f{fill:#636363;}</style><clipPath id="a" transform="translate(-17 -13)"><rect class="a" x="17" y="13" width="174.73" height="101.86"/></clipPath><clipPath id="c" transform="translate(-17 -13)"><rect class="a" width="208.73" height="115.86"/></clipPath></defs><title>Element 1</title><g class="b"><g class="b"><g class="c"><g class="d"><path class="e" d="M184.2,61h-6.83V51.57a.69.69,0,0,0-.77-.77h-6a.69.69,0,0,0-.77.77v26a.69.69,0,0,0,.77.77h6a.69.69,0,0,0,.77-.77V68h6.83v9.61a.69.69,0,0,0,.77.77h6a.69.69,0,0,0,.77-.77v-26a.69.69,0,0,0-.77-.77h-6a.69.69,0,0,0-.77.77Zm-17.48,15.2c.27-.19.23-.54,0-.93l-3-4.59a.66.66,0,0,0-1-.19,9.05,9.05,0,0,1-4.71,1.31c-2.62,0-4.21-1.39-4.21-3.94v-6.6c0-2.2,1.54-3.86,4.36-3.86a8.23,8.23,0,0,1,4.13,1.08.7.7,0,0,0,1.08-.23l3-4.59a.66.66,0,0,0-.19-1,15,15,0,0,0-8.26-2.35c-7.45,0-11.77,4-11.77,10.57v7.48c0,6.64,4.09,10.61,11.77,10.61a14.92,14.92,0,0,0,8.91-2.74m-23.5-6.25c0-5.4-3.67-7.48-9.72-9-3.24-.81-4.09-1.16-4.09-2.24,0-.73.69-1.31,3-1.31a12,12,0,0,1,6,1.66.73.73,0,0,0,1.08-.23l3-4.59a.7.7,0,0,0-.23-1.08,16.45,16.45,0,0,0-9.61-2.89c-6.1,0-10.92,2.82-10.92,8.22,0,6.64,6.1,8.76,9.88,9.49,2.12.42,3.86,1,3.86,2.2,0,.89-.85,1.54-3.09,1.54a12.41,12.41,0,0,1-6.94-2.51.7.7,0,0,0-1.08.15l-3.2,4.59a.72.72,0,0,0,.15,1.08c3.43,2.74,6.4,3.9,10.46,3.9,7.72,0,11.46-3.94,11.46-9M117.87,51.57a.69.69,0,0,0-.77-.77h-6a.69.69,0,0,0-.77.77v26a.69.69,0,0,0,.77.77h6a.69.69,0,0,0,.77-.77Zm-25.2,6.29h2.86C97.84,57.85,99,59,99,61.52v6.1c0,2.62-1.2,3.7-3.51,3.7H92.67Zm2.7,20.53c5.94,0,11.38-2,11.38-11.23V62c0-9-5.44-11.23-11.38-11.23H85.92a.69.69,0,0,0-.77.77v26a.69.69,0,0,0,.77.77Zm-14,0a.69.69,0,0,0,.77-.77V72.13a.69.69,0,0,0-.77-.77h-9.8V51.57a.69.69,0,0,0-.77-.77h-6a.69.69,0,0,0-.77.77v26a.69.69,0,0,0,.77.77ZM49.67,67.73h8.49a.69.69,0,0,0,.77-.77V61.91a.69.69,0,0,0-.77-.77H49.67V57.55h10a.69.69,0,0,0,.77-.77V51.57a.69.69,0,0,0-.77-.77H42.92a.69.69,0,0,0-.77.77v26a.69.69,0,0,0,.77.77h17.4a.69.69,0,0,0,.77-.77V72.4a.69.69,0,0,0-.77-.77H49.67ZM31.35,61H24.52V51.57a.69.69,0,0,0-.77-.77h-6a.69.69,0,0,0-.77.77v26a.69.69,0,0,0,.77.77h6a.69.69,0,0,0,.77-.77V68h6.83v9.61a.69.69,0,0,0,.77.77h6a.69.69,0,0,0,.77-.77v-26a.69.69,0,0,0-.77-.77h-6a.69.69,0,0,0-.77.77Z" transform="translate(-17 -13)"/><path class="f" d="M97.4,77.15a6.31,6.31,0,0,0-3.28,2.14c.51.17.52.17.89-.11l1.9-1.54c.15-.13.3-.28.49-.47Zm35.08-1.24-.12-.16c-.24.07-.49.14-.72.23-2.86,1-4.78,3.26-6.8,5.33a17.07,17.07,0,0,0-2.53,3.89.81.81,0,0,0,.09,1,6.51,6.51,0,0,0,.56-.34c1.91-1.42,3.82-2.82,5.7-4.27A6.2,6.2,0,0,0,130,80.13c.73-1.11,1.39-2.27,2.06-3.41.16-.27.29-.54.43-.81Zm-36.61,6.4c0-.72-.18-.85-.77-1.15A4.3,4.3,0,0,1,94,80.35c-.64-.62-.67-.64-1.35,0s-1.42,1.41-2.19,2a15.9,15.9,0,0,0-3.39,4.38,1.17,1.17,0,0,0,.12,1.35,1.22,1.22,0,0,0,1,.26,11.87,11.87,0,0,0,2.15-.67,10.89,10.89,0,0,0,5-4.14,7.32,7.32,0,0,0,.56-1.22Zm-36.74-.37.15.17c1-.43,2.06-.82,3.12-1.29A55.09,55.09,0,0,1,75.56,76.5a.6.6,0,0,0,.39-.29c.33-.77.64-1.55.92-2.34a1.42,1.42,0,0,0-.33-1.41,3.58,3.58,0,0,0-2.7-1.27C72,71,70.17,71,68.32,71a13.71,13.71,0,0,0-2.12.23,1.65,1.65,0,0,0-1.28.74c-.55.9-1.16,1.78-1.68,2.7-1.39,2.42-2.75,4.84-4.12,7.26m15.63-3.31-3.12.78a7.68,7.68,0,0,0-1,.27c-1.9.75-3.81,1.46-5.68,2.3-2,.91-4,2-6,2.91a13.66,13.66,0,0,0-6.36,5.76c-.7,1.23-1.47,2.41-2.27,3.6-.31.49-.58.59-1,.42a1.77,1.77,0,0,1-.87-2.73c.12-.19.26-.36.39-.54.26-.4.5-.8.74-1.2a10.1,10.1,0,0,0-2.94,1.71,21.61,21.61,0,0,0-4.51,4.77A.77.77,0,0,0,42.9,98a21.25,21.25,0,0,0,2.39-.16A22.87,22.87,0,0,0,53,95.71c1.89-.93,3.7-2,5.55-3.06,1.21-.7,2.34-1.52,3.54-2.24a41.34,41.34,0,0,0,6.14-4.55c1.62-1.45,3.08-3.07,4.55-4.66.69-.76,1.28-1.62,2-2.56M79,108a6.44,6.44,0,0,0,0,.8,2.4,2.4,0,0,0,.58,1.69,5,5,0,0,0,3.73,1.62,10.92,10.92,0,0,0,4.68-1.1,13.65,13.65,0,0,0,4.7-3.87,11.1,11.1,0,0,0,2.39-5,24.16,24.16,0,0,0,.31-4A3.21,3.21,0,0,0,93.4,95.2a8.6,8.6,0,0,0-3.6-.73,2.56,2.56,0,0,0-1.65.4c-.88.62-1.72,1.31-2.58,2a13.23,13.23,0,0,0-1.1,1,25,25,0,0,0-2,2.13,22.31,22.31,0,0,0-1.51,2.34A13.13,13.13,0,0,0,79,108M61.24,72.5c-.29.08-.59.14-.87.24-2.19.8-4.4,1.56-6.56,2.41-2,.79-4,1.66-5.94,2.53-1.67.72-3.28,1.49-4.9,2.24-.62.29-1.21.66-1.82,1a4.62,4.62,0,0,1-1,.44c-.61.16-1-.2-.83-.81A2.21,2.21,0,0,1,40.55,79c2-1.08,3.95-2.22,6-3.21,2.82-1.36,5.66-2.69,8.56-3.86a35.33,35.33,0,0,1,6.52-2.13c.46-.09.81-.23.72-.82a.44.44,0,0,1,.1-.38.44.44,0,0,1,.36-.15,1.22,1.22,0,0,1,.75.12,2,2,0,0,0,1.94.33,29.7,29.7,0,0,1,6.58-.29,11.54,11.54,0,0,1,5,1.26,4.37,4.37,0,0,1,2.46,5.3l-.17.72c.89-.1,1.7-.16,2.49-.31a2.17,2.17,0,0,0,.88-.49c.29-.24.57-.31.82,0A5.83,5.83,0,0,1,85,76.74,1.09,1.09,0,0,1,84.78,78l-2,2.3-2.15,2.48a4.12,4.12,0,0,0-.27.41l.09.11c.18-.1.37-.19.54-.29,2.66-1.56,5.33-3.08,8-4.7.79-.48,1.48-1.12,2.24-1.67,1-.74,2.06-1.47,3.09-2.19a1.58,1.58,0,0,1,1.39-.24,9.86,9.86,0,0,0,1,.21,2,2,0,0,1,1.35.89c.43.6.53.6,1.08.1.94-.85,1.86-1.71,2.83-2.54A22.35,22.35,0,0,1,108,69a2.52,2.52,0,0,1,3.39,2,1.48,1.48,0,0,1-.28,1,22.32,22.32,0,0,1-1.49,1.7,2.53,2.53,0,0,0-.75,1.37c-.07.55-.37.65-.77.28-.72-.71-1.4-1.42-2.06-2.17-.46-.51-.44-.55-1-.19a19.08,19.08,0,0,0-4.7,3.88c-1,1.21-2.1,2.35-3.17,3.5a1,1,0,0,0-.23,1.14,2.38,2.38,0,0,1-.1,2,10.27,10.27,0,0,1-2.52,3.22,13.05,13.05,0,0,1-5.09,2.88,10.3,10.3,0,0,0-3.31,2.3c-.49.4-.93.86-1.47,1.38a4.58,4.58,0,0,0,.58,0c.78,0,1.55-.07,2.33-.16a1.65,1.65,0,0,0,.77-.33c.91-.7,1.81-1.43,2.7-2.15,1.19-1,2.4-1.89,3.56-2.91s2-1.85,3-2.78c.31-.29.64-.55.93-.86s.72-.87,1.11-1.28a41.3,41.3,0,0,0,4.74-6,8.7,8.7,0,0,0,.45-1c.17-.4.38-.52.69-.29a23.47,23.47,0,0,1,2,1.55,2.7,2.7,0,0,1,.51.85.75.75,0,0,1-.13.87l-.08.1a27.18,27.18,0,0,0-3.84,5.08,22.55,22.55,0,0,0-1.18,2.15,1,1,0,0,0,.1,1.18,1.07,1.07,0,0,0,1.19.12,4.19,4.19,0,0,0,1-.53,21.22,21.22,0,0,0,4.47-4.06c1.57-1.93,3.11-3.92,4.63-5.9.77-1,1.46-2,2.23-3a.43.43,0,0,0,.16-.34.44.44,0,0,0-.16-.33c-.22-.25-.42-.51-.63-.77a1.09,1.09,0,0,1-.17-1.29,11.81,11.81,0,0,1,1.58.08,2.15,2.15,0,0,0,2.35-1A19.52,19.52,0,0,1,121,68.31a2.83,2.83,0,0,1,.79-.59,1,1,0,0,1,1.34.21,10.23,10.23,0,0,0,.85.72c.4.39.37.6-.05,1s-.71.71-1,1.07l.1.16,1.69-.16c1.64-.13,3.28-.22,4.92-.37,2.6-.24,5.21-.55,7.81-.76,1-.08,2,0,3,0a1.9,1.9,0,0,1,1.49.75c.36.44.2.87-.37,1s-.93.06-1.39.14c-1.81.31-3.62.64-5.44.94s-3.46.55-5.2.79c-2.39.33-4.8.63-7.2,1a9.1,9.1,0,0,1-1.46.08,1.22,1.22,0,0,0-1.09.61c-1.12,1.62-2.19,3.24-3.34,4.88a21.93,21.93,0,0,0-2.14,4,.74.74,0,0,0,0,.5c.8-.55,1.62-1.07,2.39-1.65,2.67-2,5.32-4.08,8-6.11q1-.75,2-1.47a10.66,10.66,0,0,1,5.11-1.75,1.8,1.8,0,0,1,1.32.49c.21.17.38.37.61.59.13-.09.27-.19.39-.3.56-.51,1.12-1,1.67-1.53a.43.43,0,0,1,.73,0l.57.65a1.28,1.28,0,0,1,.14,1.65c-.83,1.41-1.68,2.82-2.46,4.25-.59,1.08-1.1,2.19-1.64,3.27l.13.09c.44-.45.9-.88,1.32-1.35,1.94-2.19,3.85-4.41,5.8-6.6s4.14-4.69,6.3-6.94c2.55-2.64,5.19-5.21,7.81-7.76q1.35-1.23,2.81-2.31a1.69,1.69,0,0,1,1.77-.18,1.4,1.4,0,0,1,.35,2.17c-.47.56-1,1.1-1.43,1.66-2.86,3.2-5.82,6.4-8.59,9.71a59.06,59.06,0,0,0-6.57,8.93,21.41,21.41,0,0,0-2.13,6,4.52,4.52,0,0,0,.22,2.81c.24.55.36,1.15.64,1.67A4.87,4.87,0,0,0,145.76,93a16.24,16.24,0,0,0,3.05-.11,12.26,12.26,0,0,0,2.78-.91,32.09,32.09,0,0,0,10.49-7.43,30.05,30.05,0,0,0,4.74-6.23,28.44,28.44,0,0,0,2.31-5.5,11.06,11.06,0,0,0,.55-3.45,3.05,3.05,0,0,0-.91-2.45,4.8,4.8,0,0,0-.94-.6,5.55,5.55,0,0,0-4.26-.36,31.27,31.27,0,0,0-3.68,1.38,8.82,8.82,0,0,0-3,2.33,9.38,9.38,0,0,0-2.39,4.74,6.93,6.93,0,0,0-.09,1.65,1.64,1.64,0,0,0,.35.74,5.72,5.72,0,0,0,.55.6,1.8,1.8,0,0,1-2-1.12,3.69,3.69,0,0,1-.17-2.48,27.19,27.19,0,0,1,.93-3,9.93,9.93,0,0,1,4.28-4.69,17.08,17.08,0,0,1,3.61-1.61,4.26,4.26,0,0,1,.9-.2,11,11,0,0,1,3.85.12A7.06,7.06,0,0,1,171,67.39a3.64,3.64,0,0,1,.49,1.49,9.33,9.33,0,0,1-.09,4,27.28,27.28,0,0,1-2.57,6.31A53.2,53.2,0,0,1,165,85a29.6,29.6,0,0,1-5.22,5,56.81,56.81,0,0,1-6.18,3.92,15.39,15.39,0,0,1-2.1.94,11.38,11.38,0,0,1-2.37.86,11.06,11.06,0,0,1-5.14-.17,1,1,0,0,0-.26-.06,5.67,5.67,0,0,1-4-2.15,11,11,0,0,1-1.57-2.67,9.15,9.15,0,0,1-.73-3.14,15.4,15.4,0,0,1,.27-4.42,6.52,6.52,0,0,1,.29-1,28.78,28.78,0,0,1,1.57-4.23,3.8,3.8,0,0,0,.22-.66l-.11-.09-.32.35-7.14,7.68a7.78,7.78,0,0,0-1.7,2.59c-.31.83-.65.93-1.44.53a2.67,2.67,0,0,1-1.42-3.33l.12-.36a2.68,2.68,0,0,0-.41.21c-1.18,1-2.31,2-3.57,2.9a9.13,9.13,0,0,1-2.19.88.54.54,0,0,1-.39,0c-1.58-.84-2.83-2.06-2.08-4a17.53,17.53,0,0,0,.61-1.84,10.36,10.36,0,0,0-2,1.33c-.65.57-1.32,1.12-2,1.71s-1,1.06-1.54,1.55a10.28,10.28,0,0,1-1.25,1,.84.84,0,0,1-1.1-.13,3.47,3.47,0,0,1-1.42-3l.05-1h-.14l-.44.37c-1.41,1.2-2.75,2.46-4.23,3.57a5.71,5.71,0,0,1-2.88,1.28,2.07,2.07,0,0,1-1.92-.84,4.22,4.22,0,0,1-.94-3.09l0-.45H99.8l-5.94,5.1-3.38,2.91c-.08.07-.14.15-.3.32a1.65,1.65,0,0,0,.51.17c2.32-.15,4,1.11,5.56,2.55a4.77,4.77,0,0,1,1.18,3.24,17.08,17.08,0,0,1-.31,5,12.37,12.37,0,0,1-1.35,3.18,15.08,15.08,0,0,1-6,6.06,10.38,10.38,0,0,1-5.33,1.45,15.6,15.6,0,0,1-4.26-.62,5.64,5.64,0,0,1-3.95-4.35,10.52,10.52,0,0,1,1.14-6.17,23.11,23.11,0,0,1,5.57-6.79c.92-.78,1.88-1.53,2.82-2.43a11.46,11.46,0,0,0-1.36.18,10.51,10.51,0,0,0-4.24,2,46.64,46.64,0,0,1-6,4.25,1.45,1.45,0,0,1-2.1-1.1,1.13,1.13,0,0,1,.31-.7A33.37,33.37,0,0,1,75,96.51c2.06-1.72,4.22-3.36,6.32-5,.77-.63,1.56-1.18,2.33-1.78.45-.35.89-.73,1.29-1.05,0-.13,0-.19,0-.22a2.87,2.87,0,0,1-.49-2.94A9.22,9.22,0,0,1,86.27,82a.91.91,0,0,0,.21-.49,1.6,1.6,0,0,0-.28.12l-6.59,4.28A11.42,11.42,0,0,0,76.4,89a1,1,0,0,1-1.4.28,1.76,1.76,0,0,1-.78-2.57,36.91,36.91,0,0,1,4.84-7.13,7.18,7.18,0,0,0,.73-1,4,4,0,0,0,.24-.45,18.42,18.42,0,0,0-2,.31c-.23.06-.43.36-.58.59a51.82,51.82,0,0,1-5.37,6.6A51.12,51.12,0,0,1,59.24,95c-1.81,1-3.67,1.89-5.53,2.73a33.38,33.38,0,0,1-7.43,2.3,9.84,9.84,0,0,1-4.36.1,1.51,1.51,0,0,1-.66-.29c-1.19-1.17-1.65-2.36-.94-3.95a10.9,10.9,0,0,1,2.89-3.71,41.69,41.69,0,0,1,3.73-3,55.56,55.56,0,0,1,4.76-2.92,8.2,8.2,0,0,0,2.23-1.9,59.82,59.82,0,0,0,6-9.32c.45-.81.93-1.61,1.39-2.42Z" transform="translate(-17 -13)"/><path class="f" d="M102.81,95c.2-.58.36-1.35,1.23-1.58a24.78,24.78,0,0,1,2.81-.62c1.93-.27,3.86-.55,5.81-.68,2.25-.16,4.51-.18,6.77-.28.81,0,1.62-.11,2.44-.1,2.59,0,5.18,0,7.77.18,1.61.08,3.22.41,4.83.62a2.9,2.9,0,0,1,2.15,2.38c0,.6-.45,1-.89.64a5.88,5.88,0,0,0-3.75-.92c-2.89,0-5.79,0-8.69,0-1.8,0-3.6,0-5.39.13s-3.81.25-5.7.39a32.36,32.36,0,0,0-6.33,1.08,6.71,6.71,0,0,1-1.63.2c-1.07.05-1.47-.36-1.41-1.48" transform="translate(-17 -13)"/><path class="f" d="M90.91,70.58h-.18a1.54,1.54,0,0,0-1.84.36L86.44,73c-.82.69-1.1.65-1.81,0-1.14-1-1.18-1.21-.17-2.43a14.31,14.31,0,0,1,2.42-2.19,2.63,2.63,0,0,1,4,.68,5.12,5.12,0,0,1,.46.91c.17.37,0,.59-.46.58" transform="translate(-17 -13)"/><path class="e" d="M167.64,101.48c.09,0,.14,0,.14-.13V96.51a4.72,4.72,0,0,1,1.35-.2,1.44,1.44,0,0,1,1.63,1.64v3.41a.11.11,0,0,0,.13.13h.67c.09,0,.14,0,.14-.13V97.92a2.25,2.25,0,0,0-2.57-2.46,5.7,5.7,0,0,0-2.19.44.16.16,0,0,0-.09.16v5.3a.11.11,0,0,0,.13.13Zm-6.22-2.11V97.73a1.58,1.58,0,0,1,3.14,0v1.64c0,.86-.55,1.4-1.58,1.4s-1.56-.55-1.56-1.4m4.07,0V97.73a2.52,2.52,0,0,0-5,0v1.64a2.53,2.53,0,0,0,5,0m-6.28-5.44a.54.54,0,0,0-.56-.56.55.55,0,0,0-.57.56.56.56,0,0,0,.57.56.55.55,0,0,0,.56-.56m-.23,7.55a.11.11,0,0,0,.13-.13V95.72a.12.12,0,0,0-.13-.14h-.67a.12.12,0,0,0-.13.14v5.64c0,.08,0,.13.13.13Zm-3.57-1.94V96.47h1.48c.08,0,.13,0,.13-.14v-.57a.11.11,0,0,0-.12-.13h-1.49l-.08-1.38c0-.08-.06-.12-.12-.12h-.59a.12.12,0,0,0-.14.14v5.32a1.82,1.82,0,0,0,2,2l.62,0a.13.13,0,0,0,.11-.14v-.6c0-.08,0-.13-.14-.13l-.55,0c-.71,0-1.1-.45-1.1-1.2m-6.22.19c0-.63.48-1,1.52-1a8,8,0,0,1,1.37.14v1.71a5.1,5.1,0,0,1-1.37.2c-.88,0-1.52-.35-1.52-1m-.6-3.69s0,.09,0,.16l.33.48a.11.11,0,0,0,.17,0,3.24,3.24,0,0,1,1.62-.42c1,0,1.37.47,1.37,1.39v.37a8.37,8.37,0,0,0-1.37-.14c-1.46,0-2.45.6-2.45,1.81s1.17,1.87,2.45,1.87a6.79,6.79,0,0,0,2.2-.36.15.15,0,0,0,.1-.15V97.67a2,2,0,0,0-2.27-2.21,3.83,3.83,0,0,0-2.16.59m-.77,5.43c.1,0,.14-.07.07-.16l-2.62-3.2,2.42-2.39c.08-.08,0-.16-.06-.16h-.83a.19.19,0,0,0-.16.07l-2.58,2.52V93.45c0-.08,0-.13-.14-.13h-.67a.11.11,0,0,0-.13.13v7.91a.11.11,0,0,0,.13.13h.67c.09,0,.14,0,.14-.13v-2l.58-.56,2.17,2.64a.2.2,0,0,0,.17.08Zm-6.17-7.55a.54.54,0,0,0-.56-.56.55.55,0,0,0-.57.56.55.55,0,0,0,.57.56.54.54,0,0,0,.56-.56m-.23,7.55a.11.11,0,0,0,.13-.13V95.72a.12.12,0,0,0-.13-.14h-.67a.13.13,0,0,0-.14.14v5.64c0,.08,0,.13.14.13Zm-6.38,0c.09,0,.14,0,.14-.13V96.51a4.72,4.72,0,0,1,1.35-.2,1.43,1.43,0,0,1,1.63,1.64v3.41a.12.12,0,0,0,.13.13H139c.09,0,.14,0,.14-.13V97.92a2.25,2.25,0,0,0-2.57-2.46,5.69,5.69,0,0,0-2.19.44.16.16,0,0,0-.09.16v5.3a.11.11,0,0,0,.12.13Zm-3.15-5.9a.13.13,0,0,0-.14.14v4.84a4.08,4.08,0,0,1-1.31.22c-1,0-1.59-.46-1.59-1.66v-3.4a.12.12,0,0,0-.13-.14h-.67a.13.13,0,0,0-.14.14v3.42a2.24,2.24,0,0,0,2.52,2.46,5.3,5.3,0,0,0,2.16-.44.15.15,0,0,0,.09-.16V95.72a.12.12,0,0,0-.13-.14Zm-9.56.43a2.38,2.38,0,0,0-1.63-.56,4.77,4.77,0,0,0-2,.44.16.16,0,0,0-.1.16v5.3a.12.12,0,0,0,.13.13h.67c.09,0,.14,0,.14-.13V96.51a3.31,3.31,0,0,1,1.15-.2c.93,0,1.37.49,1.37,1.46v3.59a.12.12,0,0,0,.13.13h.68a.11.11,0,0,0,.13-.13V97.77a2.62,2.62,0,0,0-.22-1.08,2.18,2.18,0,0,1,1.26-.39,1.31,1.31,0,0,1,1.45,1.46v3.59c0,.08,0,.13.14.13h.67a.11.11,0,0,0,.13-.13V97.79a2.17,2.17,0,0,0-2.36-2.33,3,3,0,0,0-1.76.56M113,96a2.38,2.38,0,0,0-1.63-.56,4.76,4.76,0,0,0-2,.44.16.16,0,0,0-.1.16v5.3a.11.11,0,0,0,.13.13h.67c.09,0,.14,0,.14-.13V96.51a3.32,3.32,0,0,1,1.15-.2c.92,0,1.37.49,1.37,1.46v3.59a.11.11,0,0,0,.12.13h.68a.11.11,0,0,0,.13-.13V97.77a2.62,2.62,0,0,0-.22-1.08,2.18,2.18,0,0,1,1.26-.39,1.3,1.3,0,0,1,1.45,1.46v3.59c0,.08,0,.13.14.13H117a.11.11,0,0,0,.13-.13V97.79a2.17,2.17,0,0,0-2.36-2.33A3,3,0,0,0,113,96m-9.12,3.36V97.73a1.58,1.58,0,0,1,3.14,0v1.64c0,.86-.55,1.4-1.58,1.4s-1.57-.55-1.57-1.4m4.07,0V97.73a2.52,2.52,0,0,0-5,0v1.64a2.53,2.53,0,0,0,5,0m-10.52,2.11a.11.11,0,0,0,.13-.13V98.47l.77-.79,3,3.72a.17.17,0,0,0,.16.08h.93c.1,0,.15-.07.08-.16L99,97l3.28-3.52c.08-.08,0-.16-.08-.16h-.91a.22.22,0,0,0-.17.08l-3.53,3.82V93.45a.11.11,0,0,0-.13-.13h-.71c-.09,0-.14,0-.14.13v7.91c0,.08,0,.13.14.13Zm-6.9,0c.09,0,.14,0,.14-.13V96.52a3.43,3.43,0,0,1,1.23-.23,7.45,7.45,0,0,1,1,.08c.09,0,.14,0,.14-.11V95.7a.13.13,0,0,0-.12-.15,8.55,8.55,0,0,0-1.18-.09,4.65,4.65,0,0,0-2,.42.14.14,0,0,0-.09.15v5.33a.11.11,0,0,0,.13.13Zm-3.07-7.55a.54.54,0,1,0-.54.53.51.51,0,0,0,.54-.53m-2.19,0a.51.51,0,0,0-.53-.55.54.54,0,0,0,0,1.08.5.5,0,0,0,.53-.53m2.11,1.65a.13.13,0,0,0-.14.14v4.84a4.08,4.08,0,0,1-1.31.22c-1,0-1.59-.46-1.59-1.66v-3.4a.12.12,0,0,0-.13-.14h-.67a.13.13,0,0,0-.14.14v3.42a2.24,2.24,0,0,0,2.52,2.46,5.3,5.3,0,0,0,2.16-.44.15.15,0,0,0,.09-.16V95.72a.12.12,0,0,0-.12-.14Zm-4.93-1.53a.11.11,0,0,0,.11-.12v-.55a.13.13,0,0,0-.12-.15,6.5,6.5,0,0,0-.69,0,1.86,1.86,0,0,0-1.92,2.08v6.08a.11.11,0,0,0,.13.13h.67c.09,0,.14,0,.14-.13V96.47h1.57c.08,0,.13,0,.13-.14v-.57a.11.11,0,0,0-.13-.13H80.77v-.38c0-.78.39-1.25,1.11-1.25a4.83,4.83,0,0,1,.57,0M74,101.48c.09,0,.14,0,.14-.13V96.52a3.44,3.44,0,0,1,1.23-.23,7.42,7.42,0,0,1,1,.08c.09,0,.14,0,.14-.11V95.7a.13.13,0,0,0-.11-.15,8.57,8.57,0,0,0-1.18-.09,4.65,4.65,0,0,0-2,.42.14.14,0,0,0-.09.15v5.33a.11.11,0,0,0,.13.13Zm-3.15-5.9a.13.13,0,0,0-.14.14v4.84a4.1,4.1,0,0,1-1.31.22c-1,0-1.59-.46-1.59-1.66v-3.4a.12.12,0,0,0-.12-.14H67a.13.13,0,0,0-.14.14v3.42a2.23,2.23,0,0,0,2.52,2.46,5.3,5.3,0,0,0,2.16-.44.15.15,0,0,0,.09-.16V95.72a.12.12,0,0,0-.12-.14Zm-6.69,4V96.47h1.48c.08,0,.13,0,.13-.14v-.57a.11.11,0,0,0-.13-.13H64.16l-.08-1.38c0-.08-.06-.12-.13-.12h-.59a.12.12,0,0,0-.14.14v5.32a1.82,1.82,0,0,0,2,2l.62,0a.12.12,0,0,0,.11-.14v-.6c0-.08,0-.13-.14-.13l-.55,0a1,1,0,0,1-1.1-1.2m-6.47,1.94c.09,0,.14,0,.14-.13V96.51a4.71,4.71,0,0,1,1.35-.2,1.44,1.44,0,0,1,1.63,1.64v3.41a.11.11,0,0,0,.13.13h.67c.09,0,.14,0,.14-.13V97.92a2.25,2.25,0,0,0-2.57-2.46A5.7,5.7,0,0,0,57,95.9a.16.16,0,0,0-.09.16v5.3a.11.11,0,0,0,.13.13Zm-3-3.75v.48H51.73v-.48A1.32,1.32,0,0,1,53.2,96.3a1.34,1.34,0,0,1,1.47,1.43m.91,0a2.41,2.41,0,0,0-4.8,0v1.73a2.19,2.19,0,0,0,2.41,2.15,3.41,3.41,0,0,0,2.26-.82.11.11,0,0,0,0-.18l-.33-.43a.12.12,0,0,0-.18,0,2.7,2.7,0,0,1-1.75.64,1.31,1.31,0,0,1-1.48-1.32V99h3.73c.08,0,.13,0,.13-.14ZM45.52,99V97.83c0-1.13.64-1.53,1.62-1.53a4.92,4.92,0,0,1,1.35.19v3.62a2.7,2.7,0,0,1-1.39.34c-.9,0-1.58-.39-1.58-1.48m3.9,2.35V96.05a.14.14,0,0,0-.1-.15,5.63,5.63,0,0,0-2.19-.44c-1.43,0-2.56.65-2.56,2.37V99A2.21,2.21,0,0,0,47,101.3a3.56,3.56,0,0,0,1.46-.33v.27c0,1.16-.44,1.68-1.47,1.68a2.64,2.64,0,0,1-1.7-.64.11.11,0,0,0-.18,0l-.33.49c0,.08,0,.14,0,.18a3.26,3.26,0,0,0,2.2.79,2.16,2.16,0,0,0,2.41-2.44m-9-6.92h0l1.39,4H39.06Zm-2.55,7.07a.14.14,0,0,0,.15-.1l.71-2h3.42l.7,2a.15.15,0,0,0,.15.1h.76c.09,0,.14-.06.1-.15l-2.83-7.91a.15.15,0,0,0-.15-.1H40a.13.13,0,0,0-.14.1L37,101.34c0,.09,0,.15.1.15Z" transform="translate(-17 -13)"/><path class="e" d="M126.88,36.75c1.12,0,1.73-.39,1.73-1.12V28.25c0-.73-.6-1.12-1.73-1.12h-45c-1.12,0-1.73.39-1.73,1.12v7.38c0,.73.6,1.12,1.73,1.12Zm0-14.13c1.12,0,1.73-.39,1.73-1.12V14.12c0-.73-.6-1.12-1.73-1.12h-45c-1.12,0-1.73.39-1.73,1.12V21.5c0,.73.6,1.12,1.73,1.12Z" transform="translate(-17 -13)"/></g></g></g></g></svg>