<?xml version="1.0" encoding="UTF-8"?>
<svg width="169px" height="99px" viewBox="0 0 169 99" version="1.1" xmlns="http://www.w3.org/2000/svg" xmlns:xlink="http://www.w3.org/1999/xlink">
    <!-- Generator: Sketch 51.3 (57544) - http://www.bohemiancoding.com/sketch -->
    <title>HELDISCH_Logo</title>
    <desc>Created with Sketch.</desc>
    <defs>
        <polygon id="path-1" points="0.0923577377 0.0539401559 168.779148 0.0539401559 168.779148 61.6804124 0.0923577377 61.6804124"></polygon>
        <polygon id="path-3" points="0.0923577377 0.0539401559 168.779148 0.0539401559 168.779148 61.6804124 0.0923577377 61.6804124"></polygon>
    </defs>
    <g id="Page-1" stroke="none" stroke-width="1" fill="none" fill-rule="evenodd">
        <g id="HELDISCH_Logo">
            <g id="Group-4" transform="translate(0.000000, 37.000000)">
                <g id="Fill-1-Clipped">
                    <mask id="mask-2" fill="white">
                        <use xlink:href="#path-1"></use>
                    </mask>
                    <g id="path-1"></g>
                    <path d="M161.513672,10.2849925 L154.917791,10.2849925 L154.917791,1.30641187 C154.917791,0.827615036 154.65611,0.570736736 154.169693,0.570736736 L148.394256,0.570736736 C147.909378,0.570736736 147.649237,0.827615036 147.649237,1.30641187 L147.649237,26.1460875 C147.649237,26.6233643 147.909378,26.8817626 148.394256,26.8817626 L154.169693,26.8817626 C154.65611,26.8817626 154.917791,26.6233643 154.917791,26.1460875 L154.917791,16.9835881 L161.513672,16.9835881 L161.513672,26.1460875 C161.513672,26.6233643 161.775353,26.8817626 162.257152,26.8817626 L168.034129,26.8817626 C168.520546,26.8817626 168.779148,26.6233643 168.779148,26.1460875 L168.779148,1.30641187 C168.779148,0.827615036 168.520546,0.570736736 168.034129,0.570736736 L162.257152,0.570736736 C161.775353,0.570736736 161.513672,0.827615036 161.513672,1.30641187 L161.513672,10.2849925 Z M144.630678,24.7841765 C144.890819,24.6002577 144.853876,24.2704199 144.593735,23.9010624 L141.686005,19.5234913 C141.424325,19.117654 141.090298,19.0796543 140.680845,19.3380526 C139.412466,20.1102074 137.810059,20.5905243 136.133766,20.5905243 C133.598546,20.5905243 132.073104,19.265093 132.073104,16.8361491 L132.073104,10.5433907 C132.073104,8.44428464 133.563142,6.86197511 136.281538,6.86197511 C137.69769,6.86197511 139.152325,7.23133266 140.269853,7.89404828 C140.716249,8.15092658 141.053355,8.07644707 141.315035,7.67212975 L144.182743,3.29303872 C144.444423,2.92520116 144.405941,2.55736359 143.996488,2.2989653 C141.946146,0.937054312 139.113842,0.0539401559 136.021397,0.0539401559 C128.828269,0.0539401559 124.655239,3.84479507 124.655239,10.1375534 L124.655239,17.2769462 C124.655239,23.6077043 128.605071,27.3970392 136.021397,27.3970392 C139.860401,27.3970392 142.655762,26.1825673 144.630678,24.7841765 Z M121.933764,18.824296 C121.933764,13.67153 118.393384,11.6833832 112.542521,10.2485127 C109.411594,9.47635781 108.592689,9.14348001 108.592689,8.11444682 C108.592689,7.41525145 109.263822,6.86197511 111.461936,6.86197511 C113.399909,6.86197511 115.487194,7.41525145 117.238912,8.44428464 C117.649904,8.70268293 118.020874,8.59324365 118.282555,8.2238861 L121.225688,3.84479507 C121.487368,3.44047775 121.411943,3.07264018 121.00249,2.81424189 C117.836159,0.791135278 115.077741,0.0539401559 111.722077,0.0539401559 C105.834271,0.0539401559 101.176362,2.74128237 101.176362,7.89404828 C101.176362,14.2232864 107.065707,16.246393 110.718456,16.9455884 C112.765719,17.3514257 114.445091,17.903182 114.445091,19.0431745 C114.445091,19.8913289 113.623107,20.5160448 111.461936,20.5160448 C109.076027,20.5160448 106.805566,19.5234913 104.755225,18.1251006 C104.382715,17.8287025 103.971723,17.903182 103.710043,18.2710196 L100.617598,22.6501106 C100.355918,23.0179482 100.3944,23.3857858 100.76537,23.6806638 C104.082552,26.2935265 106.9518,27.3970392 110.866228,27.3970392 C118.319498,27.3970392 121.933764,23.6426641 121.933764,18.824296 Z M97.4389526,1.30641187 C97.4389526,0.827615036 97.1772723,0.570736736 96.6923942,0.570736736 L90.9154177,0.570736736 C90.4320789,0.570736736 90.1703986,0.827615036 90.1703986,1.30641187 L90.1703986,26.1460875 C90.1703986,26.6233643 90.4320789,26.8817626 90.9154177,26.8817626 L96.6923942,26.8817626 C97.1772723,26.8817626 97.4389526,26.6233643 97.4389526,26.1460875 L97.4389526,1.30641187 Z M73.0903743,7.30429218 L75.8487921,7.30429218 C78.0853886,7.30429218 79.2413996,8.37132512 79.2413996,10.800269 L79.2413996,16.6142306 C79.2413996,19.117654 78.0853886,20.1482072 75.8487921,20.1482072 L73.0903743,20.1482072 L73.0903743,7.30429218 Z M75.6994804,26.8817626 C81.4379745,26.8817626 86.6931298,24.9316155 86.6931298,16.1734335 L86.6931298,11.2790659 C86.6931298,2.66832286 81.4379745,0.570736736 75.6994804,0.570736736 L66.5683787,0.570736736 C66.0835006,0.570736736 65.8233596,0.827615036 65.8233596,1.30641187 L65.8233596,26.1460875 C65.8233596,26.6233643 66.0835006,26.8817626 66.5683787,26.8817626 L75.6994804,26.8817626 Z M62.1706111,26.8817626 C62.6554892,26.8817626 62.9171695,26.6233643 62.9171695,26.1460875 L62.9171695,20.9203621 C62.9171695,20.4415653 62.6554892,20.1846869 62.1706111,20.1846869 L52.7054823,20.1846869 L52.7054823,1.30641187 C52.7054823,0.827615036 52.443802,0.570736736 51.9604632,0.570736736 L46.1834867,0.570736736 C45.6986086,0.570736736 45.4384676,0.827615036 45.4384676,1.30641187 L45.4384676,26.1460875 C45.4384676,26.6233643 45.6986086,26.8817626 46.1834867,26.8817626 L62.1706111,26.8817626 Z M31.5570997,16.7251898 L39.7569275,16.7251898 C40.2418056,16.7251898 40.5019466,16.4683115 40.5019466,15.9895147 L40.5019466,11.1696266 C40.5019466,10.6893098 40.2418056,10.4324315 39.7569275,10.4324315 L31.5570997,10.4324315 L31.5570997,7.01093412 L41.2100226,7.01093412 C41.6949007,7.01093412 41.9550416,6.75253583 41.9550416,6.273739 L41.9550416,1.30641187 C41.9550416,0.827615036 41.6949007,0.570736736 41.2100226,0.570736736 L25.0351041,0.570736736 C24.5517653,0.570736736 24.290085,0.827615036 24.290085,1.30641187 L24.290085,26.1460875 C24.290085,26.6233643 24.5517653,26.8817626 25.0351041,26.8817626 L41.8442124,26.8817626 C42.3275512,26.8817626 42.5876921,26.6233643 42.5876921,26.1460875 L42.5876921,21.1772404 C42.5876921,20.6999635 42.3275512,20.4415653 41.8442124,20.4415653 L31.5570997,20.4415653 L31.5570997,16.7251898 Z M13.8628964,10.2849925 L7.26701466,10.2849925 L7.26701466,1.30641187 C7.26701466,0.827615036 7.0068737,0.570736736 6.52199558,0.570736736 L0.745019084,0.570736736 C0.260140961,0.570736736 0,0.827615036 0,1.30641187 L0,26.1460875 C0,26.6233643 0.260140961,26.8817626 0.745019084,26.8817626 L6.52199558,26.8817626 C7.0068737,26.8817626 7.26701466,26.6233643 7.26701466,26.1460875 L7.26701466,16.9835881 L13.8628964,16.9835881 L13.8628964,26.1460875 C13.8628964,26.6233643 14.1245767,26.8817626 14.6094548,26.8817626 L20.384892,26.8817626 C20.8697701,26.8817626 21.1299111,26.6233643 21.1299111,26.1460875 L21.1299111,1.30641187 C21.1299111,0.827615036 20.8697701,0.570736736 20.384892,0.570736736 L14.6094548,0.570736736 C14.1245767,0.570736736 13.8628964,0.827615036 13.8628964,1.30641187 L13.8628964,10.2849925 Z" id="Fill-1" fill="#636363" fill-rule="nonzero" mask="url(#mask-2)"></path>
                </g>
                <g id="Fill-3-Clipped">
                    <mask id="mask-4" fill="white">
                        <use xlink:href="#path-3"></use>
                    </mask>
                    <g id="path-1"></g>
                    <path d="M77.6620823,25.7128904 C76.941692,25.6748906 74.791296,27.1128011 74.4911333,27.7496769 C74.9837079,27.9092758 74.9960223,27.9168758 75.348521,27.6402376 C75.9657785,27.1538408 76.5707217,26.6613641 77.1833614,26.1673674 C77.3326731,26.0488081 77.4696704,25.9013691 77.6620823,25.7189703 L77.6620823,25.7128904 Z M111.548136,24.5288182 L111.432689,24.3752992 C111.200255,24.4467387 110.961665,24.5120983 110.736927,24.5941778 C107.973892,25.5654513 106.123658,27.7025572 104.170292,29.6815841 C103.189761,30.8048567 102.367777,32.0542884 101.730509,33.3949195 C101.525782,33.7004375 101.562726,34.1032349 101.821327,34.3661931 C102.010661,34.2552338 102.198455,34.1609945 102.358541,34.0424353 C104.199539,32.6926842 106.052851,31.355093 107.863063,29.9703822 C108.361794,29.5691049 108.791258,29.091828 109.134521,28.5567916 C109.841057,27.5003985 110.473708,26.3923259 111.127909,25.3070531 C111.27876,25.0516947 111.4096,24.7902565 111.548136,24.5348982 L111.548136,24.5288182 Z M76.1782013,30.6330978 C76.1366404,29.9460624 76.0073395,29.8183832 75.4301037,29.5311051 C75.0329654,29.3335064 74.6712309,29.0735881 74.3587539,28.7604702 C73.7399571,28.1722341 73.7091711,28.1509542 73.0595884,28.7315904 C72.4115449,29.3122266 71.688076,30.0752615 70.9399783,30.6695776 C69.5084334,31.81109 68.600249,33.3386799 67.6689751,34.8525899 C67.4273057,35.2614672 67.4750239,35.7782638 67.7890402,36.1369814 C68.0599562,36.3604199 68.4170728,36.4516193 68.7634143,36.3862597 C69.4745689,36.2403407 70.1703305,36.0275421 70.8399241,35.7509039 C72.8102225,34.9437893 74.4849761,33.5681984 75.6409872,31.8034901 C75.8564885,31.4326125 76.0350468,31.0434951 76.1782013,30.6391778 L76.1782013,30.6330978 Z M40.6851227,30.2819801 L40.8251986,30.4415791 C41.8303587,30.0342218 42.8185865,29.6557443 43.8376002,29.2164672 C47.8859477,27.3179997 52.1621109,25.9332889 56.5629571,25.0942545 C56.7230439,25.0592947 56.8615805,24.9604953 56.9416239,24.8191363 C57.2602581,24.0819412 57.56196,23.3401861 57.8344153,22.587791 C57.9852663,22.1150742 57.863662,21.5982776 57.5157811,21.23956 C56.8661984,20.481085 55.9133744,20.0387679 54.9066751,20.029648 C53.1395637,19.880689 51.3585986,19.8457292 49.5760943,19.8624491 C48.8895684,19.882209 48.2045819,19.9536485 47.5288311,20.0767677 C47.02856,20.1071675 46.5713892,20.3686057 46.294316,20.780523 C45.7617197,21.6423573 45.1767874,22.4829117 44.6688198,23.3584259 C43.3296326,25.6642507 42.0104563,27.9761554 40.6851227,30.2819801 Z M55.7856129,27.126481 L52.7732113,27.8743161 C52.4607343,27.9411956 52.1513359,28.0263151 51.8496339,28.1342343 C50.0163328,28.8501496 48.1645602,29.5295851 46.3682022,30.3260598 C44.4148361,31.1909341 42.5276596,32.2062874 40.5804506,33.0970015 C37.9851982,34.232434 35.8301843,36.1613012 34.4355825,38.5963251 C33.761371,39.7712773 33.0132733,40.8899899 32.2436255,42.0284624 C31.938845,42.4935793 31.6864005,42.5878187 31.2923408,42.4282198 C30.7720589,42.2564609 30.3656849,41.8506236 30.1994409,41.335347 C30.0347363,40.8200704 30.1286333,40.2576741 30.454964,39.824477 C30.5688719,39.6451182 30.7074085,39.4855192 30.8274735,39.3061604 C31.0737608,38.9276829 31.3092731,38.5431255 31.5386281,38.164648 C30.5026822,38.5461655 29.5406224,39.0979218 28.6940098,39.7971172 C27.0161776,41.0860686 25.5476895,42.6197385 24.3408818,44.3464471 C24.0976731,44.5729256 24.0391798,44.9316432 24.196188,45.2234813 C24.3531961,45.5137993 24.6887626,45.6673183 25.0166325,45.5973988 C25.789359,45.5897988 26.5605461,45.5396392 27.3271153,45.4469198 C29.8961997,45.2006814 32.4006337,44.510606 34.7265094,43.4101333 C36.5490354,42.5194192 38.3007538,41.491906 40.0847974,40.4902326 C41.2515835,39.819917 42.347562,39.0371222 43.5020337,38.3485668 C45.612408,37.0869751 47.5996387,35.6338647 49.4375577,34.0105155 C50.9999427,32.6334046 52.4083982,31.0799749 53.8353253,29.5675849 C54.4972224,28.8395097 55.0683011,28.0171951 55.7856129,27.126481 Z M59.8724427,55.1626955 C59.8416568,55.4150138 59.8278032,55.6688521 59.8308818,55.9226905 C59.8016351,56.5124466 60.0032829,57.0915627 60.3958033,57.5384398 C61.3178413,58.5340332 62.6277819,59.0979495 63.9946764,59.0873095 C65.5632187,59.0751496 67.1086715,58.717952 68.5186663,58.0415564 C70.2950134,57.1645223 71.8481627,55.9044506 73.0595884,54.3540608 C74.2202173,52.9906299 75.0129545,51.3612007 75.3654532,49.6162522 C75.5701796,48.3683405 75.6686945,47.1067488 75.6640766,45.8436372 C75.7087162,44.5866055 74.968315,43.4283731 73.7953717,42.9252565 C72.7009325,42.4479796 71.5125963,42.2078212 70.3150243,42.2260611 C69.7547207,42.1698215 69.1928778,42.3035806 68.7218533,42.6045386 C67.8690835,43.2003747 67.0532569,43.8554903 66.2328123,44.4969261 C65.861842,44.7857242 65.5062647,45.0912421 65.169159,45.41652 C64.476476,46.0549158 63.820736,46.7313113 63.2080964,47.4457066 C62.6755001,48.1555419 62.1890827,48.9018569 61.7503834,49.6740118 C60.6975052,51.3338408 60.0540796,53.2140684 59.8724427,55.1626955 Z M42.7370038,21.2745197 C42.4537734,21.3505192 42.1643858,21.4052389 41.8919305,21.4994782 C39.7769383,22.2609932 37.6450139,22.9890684 35.5531111,23.802263 C33.6197558,24.553138 31.7156471,25.3891325 29.8115384,26.2114471 C28.2014352,26.9030425 26.6405894,27.6341577 25.0735865,28.3531129 C24.4732612,28.6297511 23.9083397,28.9839087 23.3187895,29.2924667 C23.024784,29.4687855 22.712307,29.6071046 22.3859763,29.7119839 C21.7995047,29.8594229 21.4593204,29.5174252 21.582464,28.9337491 C21.7271578,28.3044732 22.1581606,27.7739967 22.7507894,27.4973586 C24.6733696,26.4637654 26.5651639,25.3784926 28.5262266,24.4360988 C31.2492405,23.1365074 33.9891868,21.8703558 36.7937834,20.7562032 C38.8194964,19.877649 40.9267922,19.1966935 43.0879632,18.7209366 C43.534359,18.6358172 43.8668468,18.5050981 43.779107,17.9427018 C43.7529389,17.8165426 43.789882,17.6827835 43.8776219,17.5839842 C43.9653617,17.4867048 44.0946626,17.4319852 44.2285813,17.4411051 C44.4764079,17.4031054 44.731931,17.4426251 44.9566681,17.5566243 C45.4846465,17.9746216 46.1942618,18.0947008 46.8330695,17.8712623 C48.9357473,17.5490244 51.0661325,17.456305 53.1888211,17.5991841 C54.869732,17.6356638 56.5198569,18.0475811 58.0160522,18.8014961 C60.0032829,19.6450905 61.0284538,21.8232361 60.394264,23.8585026 C60.3450065,24.0545813 60.295749,24.25674 60.22802,24.5409781 C61.0854077,24.4452188 61.8689092,24.3904991 62.6370177,24.25066 C62.9541126,24.1609806 63.2465788,24.0013817 63.4882482,23.7825031 C63.7668607,23.5545047 64.039316,23.4845851 64.284064,23.7399434 C64.8320533,24.1792205 65.2923027,24.715777 65.6371049,25.320733 C65.8633813,25.7204903 65.7971916,26.217527 65.4754788,26.5473648 C64.8243568,27.27696 64.1763133,28.0095952 63.5313485,28.7437503 C62.8863836,29.4779055 62.1921613,30.2667802 61.4532994,31.1073347 C61.3594023,31.2319738 61.2716625,31.361173 61.1931584,31.4964521 L61.2778197,31.5967714 C61.4517601,31.5025321 61.6349362,31.4174126 61.8011802,31.3155733 C64.3702646,29.8244632 66.9516633,28.3835127 69.5053548,26.831603 C70.271924,26.372566 70.9338211,25.76153 71.6649866,25.2416935 C72.6516751,24.5303382 73.6506779,23.8402628 74.6496808,23.1501873 C75.036044,22.8689892 75.5347758,22.7823498 75.9965645,22.9191489 C76.3075022,23.0027483 76.6230578,23.0696279 76.941692,23.1228275 C77.4773668,23.2140269 77.9483913,23.5210649 78.2423968,23.9694619 C78.654928,24.5409781 78.7519036,24.5470581 79.2906571,24.0621813 C80.1988415,23.2520267 81.0885544,22.4281921 82.0213675,21.6438773 C83.7669288,20.1026075 85.7556987,18.8531758 87.9091733,17.9427018 C88.5987778,17.6827835 89.3699649,17.7435831 90.005694,18.1083807 C90.6429624,18.4731783 91.0755044,19.1039741 91.1847944,19.8214094 C91.2078838,20.1527672 91.1124475,20.478045 90.9154177,20.7470832 C90.4813363,21.3201194 89.9718295,21.838436 89.4761763,22.3704325 C89.1036667,22.7185102 88.8512222,23.1760272 88.7557859,23.6761038 C88.683439,24.1974604 88.3986693,24.2962597 88.0076882,23.9375421 C87.3165445,23.2626666 86.6546474,22.587791 86.0158397,21.8688358 C85.5756011,21.379399 85.5894548,21.3489992 85.0306905,21.683397 C83.3251509,22.6713905 81.7920125,23.9193022 80.4897684,25.3845725 C79.5184728,26.5382449 78.4640553,27.6295977 77.4250308,28.7194305 C77.1094752,28.9930287 77.0186567,29.4399057 77.2049115,29.8092633 C77.4588953,30.4309392 77.4219522,31.1316545 77.103318,31.7244506 C76.5091499,32.8978828 75.6825481,33.9451559 74.6696916,34.7978703 C73.2627754,36.0685818 71.5803253,37.0079356 69.7501028,37.5444921 C68.4278478,37.9564094 67.5566065,38.921603 66.5499072,39.7332776 C66.0758041,40.1117551 65.6555764,40.5571121 65.127598,41.0495889 C65.3153921,41.0708687 65.5031862,41.0799887 65.6925195,41.0784687 C66.4421565,41.0404689 67.1917935,41.0085492 67.9383518,40.9264697 C68.2092679,40.88543 68.4663302,40.7790307 68.6833709,40.6133518 C69.563848,39.9415162 70.4335501,39.2499208 71.2955556,38.5598454 C72.4438701,37.6402514 73.6091169,36.7586573 74.734342,35.7873837 C75.7425807,34.9301094 76.6954047,34.0196354 77.6713181,33.1365212 C77.97302,32.864443 78.2916542,32.6121247 78.5687274,32.3187667 C78.9396977,31.9220493 79.2614105,31.4918921 79.6400772,31.0951748 C81.3409989,29.3365464 82.872598,27.428959 84.2164031,25.3921725 C84.382647,25.0775346 84.5288801,24.7507367 84.6520238,24.4163389 C84.8167284,24.0348215 85.0168368,23.9162623 85.3185388,24.1442607 C85.9850538,24.6017777 86.6269401,25.0942545 87.2426583,25.618651 C87.4535418,25.8557694 87.6197857,26.1293676 87.7321543,26.4257657 C87.8753088,26.6978439 87.8275906,27.0307216 87.61055,27.2511202 C87.5874605,27.28608 87.5628318,27.3179997 87.5335852,27.3499195 C85.9958289,28.7422303 84.9783544,30.5190986 83.8285006,32.1926075 C83.4128908,32.8553231 83.0326848,33.5377986 82.6925004,34.2400339 C82.4708419,34.5957116 82.5124028,35.0517086 82.7894761,35.3648265 C83.1142674,35.6308247 83.5698989,35.6733845 83.9408692,35.4773058 C84.2810535,35.3511466 84.6043056,35.1793877 84.8983111,34.9696291 C86.5176501,33.8889163 87.9707451,32.5832449 89.214496,31.0966947 C90.7291629,29.2559869 92.2161225,27.3620795 93.6876891,25.4742519 C94.4296296,24.5196983 95.093066,23.5225849 95.8473209,22.5634712 C95.9427572,22.4844317 95.9981718,22.3673925 95.9966325,22.2442733 C95.9950933,22.1196341 95.9381393,22.0025949 95.842703,21.9250754 C95.6256623,21.687957 95.4317111,21.4356387 95.228524,21.1954803 C94.9037327,20.8656424 94.8344643,20.3655658 95.0607408,19.9642884 C95.571787,19.9566885 96.0828331,19.9825283 96.5908007,20.0433279 C97.4712778,20.2530865 98.388698,19.879169 98.8597224,19.117654 C99.3399827,18.4716583 99.8633432,17.8575823 100.425186,17.2784662 C100.643766,17.0504677 100.899289,16.858949 101.184059,16.7160699 C101.602747,16.4485517 102.159972,16.5351911 102.473989,16.9182286 C102.720276,17.1796668 103.035831,17.3742255 103.295972,17.600704 C103.680796,17.9715816 103.65001,18.1752602 103.246715,18.5506978 C102.84342,18.9276553 102.560189,19.2316533 102.250791,19.575171 L102.344688,19.72565 C102.88652,19.6785303 103.429891,19.6162107 103.980959,19.575171 C105.558737,19.4520518 107.144211,19.3608524 108.728147,19.2179733 C111.243356,18.9899749 113.755486,18.6981368 116.270695,18.4898982 C117.231216,18.4108587 118.225601,18.4625383 119.16611,18.4716583 C119.731032,18.4792582 120.262089,18.7437365 120.605352,19.1875735 C120.953233,19.6086108 120.796224,20.0159681 120.249774,20.1086875 C119.809536,20.181647 119.349287,20.171007 118.909048,20.2439666 C117.15733,20.5373246 115.411768,20.8565225 113.658511,21.1438006 C111.906792,21.4310787 110.313621,21.6681971 108.635789,21.8946756 C106.323767,22.2108335 103.999431,22.4996316 101.681251,22.8157895 C101.213305,22.8781091 100.742281,22.902429 100.272796,22.8887491 C99.8371751,22.8796291 99.4338797,23.1030676 99.2183783,23.4739452 C98.1347142,25.018255 97.1033861,26.5640847 95.993554,28.1266344 C95.1746487,29.3152665 94.4819656,30.5829381 93.9278192,31.9098894 C93.8631688,32.0603684 93.8554723,32.2275673 93.9001119,32.3810862 C94.6697597,31.8597297 95.4655756,31.362693 96.2090553,30.8048567 C98.7904541,28.8729495 101.353381,26.9197624 103.928623,24.9726553 C104.559734,24.4984184 105.198542,24.0317815 105.843507,23.5757845 C107.313534,22.6121109 109.012916,22.0390747 110.77541,21.9098755 C111.246434,21.8870757 111.708223,22.0542746 112.051486,22.3734725 C112.251594,22.5300314 112.416299,22.7245901 112.641036,22.9343488 C112.761101,22.8446693 112.898099,22.7549899 113.019703,22.6470707 C113.558456,22.1637139 114.104906,21.684917 114.632885,21.1878803 C114.714467,21.0738811 114.849925,21.0100415 114.991541,21.0176414 C115.133156,21.0252414 115.262457,21.1027609 115.333264,21.2243601 L115.878175,21.8475559 C116.307638,22.2670732 116.366132,22.9313088 116.015172,23.4161856 C115.210121,24.7628967 114.395833,26.1035278 113.633882,27.4715187 C113.065882,28.4990319 112.573307,29.5599849 112.051486,30.5890181 L112.176169,30.6786975 C112.602554,30.2531003 113.04741,29.8411831 113.447627,29.394306 C115.32095,27.3027998 117.171183,25.1839339 119.052202,23.1000277 C121.060983,20.8747624 123.048214,18.6221373 125.138577,16.4789515 C127.60145,13.9557682 130.152063,11.5085844 132.685744,9.07356047 C133.555446,8.29380563 134.46363,7.55661051 135.40414,6.86653508 C135.895175,6.49261755 136.560151,6.424218 137.117376,6.69325622 C137.476032,6.89541489 137.723858,7.24501257 137.788509,7.64780991 C137.853159,8.04908725 137.730016,8.45644456 137.451403,8.75740256 C137.000389,9.29091903 136.523208,9.81075559 136.067576,10.3366721 C133.303001,13.3933719 130.441451,16.4455117 127.769234,19.5949309 C125.387943,22.2351534 123.263715,25.0881745 121.424257,28.1175145 C120.454501,29.9095826 119.761818,31.8338899 119.366219,33.8281167 C119.146099,34.7218708 119.223064,35.6597046 119.58172,36.5078589 C119.812615,37.0322555 119.926522,37.6068117 120.198978,38.1008084 C120.950154,39.7135177 122.574111,40.7577508 124.376626,40.7942306 C125.360236,40.8519902 126.348464,40.8155104 127.327456,40.6908713 C128.254112,40.5084725 129.156139,40.2181544 130.013527,39.824477 C133.841755,38.160088 137.288238,35.7509039 140.14517,32.7413239 C141.927675,30.9629356 143.465431,28.9641489 144.723036,26.7966432 C145.648152,25.1276942 146.39625,23.3705859 146.950396,21.5496379 C147.302895,20.4871649 147.484532,19.3775723 147.484532,18.2603797 C147.558418,17.3909454 147.233627,16.5351911 146.599437,15.9241551 C146.322364,15.7007166 146.016044,15.5091979 145.692792,15.3526389 C144.424412,14.7005632 142.94361,14.5759241 141.582873,15.0060812 C140.371447,15.3723988 139.18465,15.8131959 138.031718,16.3254325 C136.929582,16.857429 135.958286,17.614384 135.180942,18.5461378 C133.986449,19.8031695 133.184476,21.3717991 132.873538,23.0665879 C132.784259,23.5864244 132.753473,24.1153809 132.791955,24.6428175 C132.842752,24.9012157 132.958199,25.1428941 133.129061,25.3450528 C133.293766,25.5487315 133.467706,25.7417702 133.658579,25.921129 C132.850448,26.0503281 132.059251,25.6034511 131.765245,24.8510561 C131.437375,24.104741 131.380421,23.2702665 131.603619,22.4889917 C131.848367,21.534438 132.150069,20.5950842 132.501028,19.6739703 C133.346102,17.7785429 134.800736,16.2099133 136.641734,15.2051999 C137.737712,14.5622442 138.906037,14.0469676 140.12362,13.6700101 C140.406851,13.5742507 140.700856,13.5104111 140.99948,13.4784913 C142.233995,13.3006525 143.493138,13.3356123 144.715339,13.5864106 C146.382396,13.986168 147.835491,14.9893613 148.785237,16.396872 C149.046917,16.8300691 149.211622,17.3134259 149.263958,17.8165426 C149.508706,19.0674943 149.480998,20.3534058 149.179296,21.5937176 C148.611296,23.6958637 147.778537,25.7174503 146.70257,27.6159178 C145.563491,29.549345 144.29819,31.4082927 142.914363,33.179081 C141.438179,34.9650691 139.744954,36.5656186 137.871631,37.9472894 C135.964444,39.3168004 133.969516,40.5647121 131.899164,41.6834247 C131.246502,42.0284624 130.566134,42.3279004 129.867294,42.5756588 C129.139207,42.9298164 128.371098,43.2049346 127.5799,43.3918934 C125.934393,43.7232512 124.231932,43.6685316 122.612593,43.2307745 C122.534089,43.2003747 122.447889,43.1806148 122.361688,43.1730148 C120.726956,43.1334951 119.520148,42.2002213 118.504213,41.1240684 C117.879259,40.3503935 117.369752,39.4931192 116.986468,38.5826452 C116.575476,37.6326515 116.338424,36.6203382 116.286088,35.588265 C116.169102,34.1777144 116.255302,32.7580438 116.549308,31.3718129 C116.617037,31.0419751 116.707855,30.7166973 116.82792,30.4020593 C117.225059,29.0188685 117.731487,27.6691174 118.344126,26.366486 C118.433406,26.1628074 118.502674,25.9515288 118.55501,25.7356902 L118.447259,25.6475308 L118.136322,25.9819286 C115.838153,28.4245524 113.543063,30.8641363 111.243356,33.3052401 C110.53528,34.0150754 109.976515,34.8556299 109.604006,35.7813037 C109.300765,36.5701785 108.977513,36.6628979 108.210943,36.2905004 C106.985664,35.738744 106.393035,34.3570732 106.844049,33.1106814 L106.959496,32.7702037 C106.822499,32.8264433 106.691659,32.8948428 106.565436,32.9738823 C105.423279,33.8995562 104.330379,34.8936296 103.120493,35.740264 C102.455517,36.1081016 101.742823,36.3892997 101.000883,36.5762585 C100.877739,36.6172982 100.74382,36.6096983 100.625295,36.5580186 C99.0998525,35.7554639 97.8945841,34.5926716 98.6118958,32.715484 C98.8397116,32.1409278 99.0367414,31.5557317 99.1983675,30.9614156 C98.5056844,31.3079733 97.857641,31.7350905 97.2650121,32.2306072 C96.6369795,32.7732437 95.9858575,33.2961202 95.3762964,33.8600365 C94.7682746,34.4239527 94.4065402,34.8662698 93.8862582,35.3389867 C93.5091308,35.6749045 93.1058354,35.9849824 92.6794505,36.2601006 C92.343884,36.4865791 91.8913311,36.4318594 91.6204151,36.1354614 C90.7014556,35.4712258 90.1857916,34.3950729 90.250442,33.2748403 C90.2689135,32.9434825 90.2843065,32.6364446 90.302778,32.2853269 L90.1657807,32.2792469 L89.7378565,32.6288446 C88.3755799,33.773397 87.0825716,34.9741891 85.6556445,36.0321021 C84.861368,36.6872178 83.8977689,37.109775 82.8710587,37.251134 C82.1506684,37.3347335 81.4395138,37.0292155 81.0146682,36.4500993 C80.3266031,35.6232248 79.9987331,34.5622718 80.1049445,33.4982789 C80.112641,33.3584398 80.1203374,33.2110008 80.1280339,33.0650817 C80.055687,33.0620417 80.0048903,33.0590018 79.9787222,33.0574818 L74.2433067,37.9184096 L70.9815393,40.6923912 C70.9061138,40.7592708 70.8430027,40.8398303 70.6921517,40.9963892 C70.8460813,41.0784687 71.0123252,41.1347083 71.183187,41.1635881 C73.4228622,41.0237491 75.0298868,42.2199811 76.5568681,43.598612 C77.4327273,44.3935668 77.5835782,45.571559 77.6944075,46.6902716 C77.8344834,48.293861 77.7344292,49.9080903 77.3942449,51.4812799 C77.1063966,52.5467928 76.6692366,53.5667061 76.0950794,54.5106198 C74.7651279,56.9502037 72.7486507,58.9581104 70.2857777,60.2957015 C68.7295498,61.2076955 66.950124,61.6864923 65.1383731,61.6804124 C63.7453105,61.6728124 62.3584052,61.4736937 61.0207573,61.0906563 C59.2967462,60.6042595 57.4095697,58.8942708 57.207922,56.9441237 C56.9585561,54.9179771 57.3418407,52.8644707 58.3069791,51.0572027 C59.6630985,48.5780991 61.4887032,46.3786736 63.685278,44.5774855 C64.5765302,43.8296505 65.5062647,43.1167752 66.4098313,42.2610209 C65.9695927,42.2929407 65.5324328,42.3522203 65.0998907,42.4373397 C63.6067739,42.7580576 62.2075542,43.4055733 61.0053643,44.3358071 C59.1705239,45.8360372 57.2171578,47.1903483 55.1652767,48.3850603 C54.7589027,48.593299 54.2740245,48.593299 53.8691898,48.3835404 C53.4628158,48.1722618 53.1888211,47.7801044 53.1318672,47.3332273 C53.151878,47.082429 53.2580894,46.8468305 53.4351084,46.6644317 C54.2370815,45.7873975 55.0898512,44.955963 55.9857213,44.1716482 C57.9791091,42.5346191 60.0586975,40.9720694 62.0951856,39.36848 C62.8355868,38.768084 63.5990775,38.2436875 64.3440965,37.6752112 C64.7781779,37.3377734 65.1999449,36.9836158 65.5878474,36.6704979 C65.5955439,36.5428187 65.5986225,36.4850591 65.5986225,36.4592193 C64.8120424,35.6125849 64.8612999,34.6747511 65.1322159,33.6578778 C65.4770181,32.4449258 66.0850399,31.3201333 66.9116417,30.3579796 C67.0240102,30.2257405 67.0932785,30.0661416 67.1117501,29.8959027 C67.0193923,29.9247825 66.9301132,29.9643022 66.8454519,30.0099019 C64.7181454,31.365733 62.5954567,32.727644 60.4758466,34.0895549 C59.2582638,34.8541099 58.2053856,35.8436233 57.3757052,37.0064156 C57.2387079,37.2268142 57.0170494,37.3818532 56.7584477,37.4320128 C56.5013853,37.4836925 56.2335479,37.4274529 56.0226644,37.2754539 C55.5608757,37.0778552 55.2129949,36.6932977 55.0683011,36.2221008 C54.922068,35.749384 54.9959542,35.2386673 55.2668702,34.8237101 C56.5506428,32.3871662 58.1176457,30.1056613 59.9401718,28.0263151 C60.201852,27.726877 60.4265892,27.4122391 60.6420906,27.0596015 C60.7267518,26.9197624 60.8037166,26.7768833 60.8714456,26.6279243 C60.2326379,26.6917639 59.5984481,26.7905632 58.9704155,26.9212824 C58.7456783,26.980562 58.5548057,27.2632801 58.4070333,27.4867186 C56.8569626,29.7226238 55.1237157,31.8278099 53.2211463,33.784037 C49.5807122,37.3894531 45.3892102,40.4127131 40.7974913,42.7398177 C39.0442336,43.6730915 37.2540328,44.5455658 35.4561355,45.3435605 C33.1595064,46.3452338 30.7520481,47.080909 28.2830179,47.532346 C26.903809,47.8758637 25.4630283,47.9077835 24.0699657,47.6281054 C23.8375321,47.5855456 23.6204914,47.4928263 23.4342366,47.3514672 C22.2843828,46.2357946 21.8364478,45.0988421 22.5275915,43.5864521 C23.1848707,42.2199811 24.1376947,41.0115891 25.3183345,40.0448755 C26.4604918,39.0219223 27.6626817,38.0658486 28.9172077,37.1796945 C30.3764599,36.1476213 31.9588558,35.2690671 33.5135444,34.3905129 C34.3355283,33.9177961 35.0636151,33.3067601 35.6654797,32.5802049 C37.8712903,29.8001433 39.8092635,26.824003 41.4578491,23.6928237 C41.8950091,22.9206688 42.3521799,22.1576339 42.7954971,21.386999 L42.7370038,21.2745197 Z" id="Fill-3" fill="#FFB8B8" fill-rule="nonzero" mask="url(#mask-4)"></path>
                </g>
            </g>
            <path d="M84.2122259,78.4215899 C85.1094895,78.2015376 86.0254137,78.0284478 86.9522232,77.8996367 C88.8369433,77.670192 90.7216633,77.4380637 92.6172688,77.3253541 C94.8145538,77.1871505 97.018059,77.1737327 99.2262294,77.0865169 C100.019305,77.0623648 100.80927,76.9925922 101.6039,77.0006429 C104.129301,77.0288203 106.662476,77.0301621 109.187877,77.1509224 C110.761587,77.2220369 112.329077,77.4971021 113.896567,77.6742174 C115.000652,77.7990031 115.938347,78.9328087 115.997439,79.681523 C116.039425,80.1873748 115.55736,80.5107442 115.126611,80.2222611 C114.025636,79.5017243 112.75205,79.4493948 111.464469,79.4440276 C108.638944,79.4346352 105.813419,79.4574455 102.984784,79.478914 C101.229133,79.4976989 99.4734822,79.5191674 97.7224964,79.5902819 C95.8657673,79.6681052 94.0074831,79.7995998 92.155419,79.9190184 C90.0623223,80.0451459 87.9925514,80.3497304 85.974097,80.826063 C85.4578206,80.9387726 84.9213285,80.9951275 84.3848364,80.9964693 C83.336733,81.0394063 82.9479706,80.6945683 83.0055074,79.7512957 C83.2061088,79.2615453 83.3538385,78.6134647 84.2122259,78.4215899 Z" id="Fill-5" fill="#FFB8B8" fill-rule="nonzero"></path>
            <path d="M71.529401,55.4481689 C71.4742817,55.4537133 71.4206129,55.4509411 71.3683947,55.4398523 C70.7084139,55.096098 70.1717262,55.3802497 69.6959598,55.7517261 C68.9518496,56.3477516 68.2091899,56.9576382 67.4636291,57.5592082 C66.7166179,58.1621642 66.4613286,58.1219672 65.8129519,57.5883164 C64.7758392,56.7303169 64.738126,56.5376481 65.6591981,55.4703466 C66.3133769,54.7606604 67.0516851,54.1216656 67.8639691,53.5672232 C68.3977558,53.1139666 69.1288115,52.9171396 69.8439115,53.0321864 C70.5590116,53.1472331 71.1783782,53.5616788 71.5221484,54.1563182 C71.6904073,54.4072034 71.832557,54.6705635 71.9456965,54.9463986 C72.0950988,55.2707474 71.929741,55.46203 71.529401,55.4481689" id="Fill-6" fill="#FFB8B8" fill-rule="nonzero"></path>
            <path d="M146.089286,86.6231906 C146.176977,86.6231906 146.220053,86.5750905 146.220053,86.4921592 L146.220053,81.4433052 C146.563125,81.3238842 147.058503,81.2293426 147.521573,81.2293426 C148.513867,81.2293426 149.098474,81.7037093 149.098474,82.9410434 L149.098474,86.4921592 C149.098474,86.5750905 149.143089,86.6231906 149.218472,86.6231906 L149.867694,86.6231906 C149.956924,86.6231906 150,86.5750905 150,86.4921592 L150,82.9161641 C150,81.0983112 148.998476,80.35193 147.521573,80.35193 C146.763122,80.35193 146.033902,80.5294029 145.406218,80.8130277 C145.340065,80.8495175 145.318527,80.909228 145.318527,80.9805489 L145.318527,86.4921592 C145.318527,86.5750905 145.36468,86.6231906 145.440064,86.6231906 L146.089286,86.6231906 Z M140.083216,84.4271713 L140.083216,82.7154704 C140.083216,81.8115199 140.613978,81.2293426 141.593964,81.2293426 C142.586258,81.2293426 143.115481,81.8115199 143.115481,82.7154704 L143.115481,84.4271713 C143.115481,85.3178528 142.586258,85.8884198 141.593964,85.8884198 C140.613978,85.8884198 140.083216,85.3178528 140.083216,84.4271713 Z M144.018545,84.4271713 L144.018545,82.7154704 C144.018545,81.3238842 143.092404,80.35193 141.593964,80.35193 C140.106292,80.35193 139.169383,81.3238842 139.169383,82.7154704 L139.169383,84.4271713 C139.169383,85.8170989 140.106292,86.7525633 141.593964,86.7525633 C143.092404,86.7525633 144.018545,85.8170989 144.018545,84.4271713 Z M137.957092,78.7579916 C137.957092,78.4146562 137.726326,78.1791315 137.417099,78.1791315 C137.109411,78.1791315 136.866338,78.4146562 136.866338,78.7579916 C136.866338,79.0913752 137.109411,79.3401689 137.417099,79.3401689 C137.726326,79.3401689 137.957092,79.0913752 137.957092,78.7579916 Z M137.737095,86.6231906 C137.812478,86.6231906 137.858632,86.5750905 137.858632,86.4921592 L137.858632,80.6239445 C137.858632,80.5410133 137.812478,80.4829614 137.737095,80.4829614 L137.087873,80.4829614 C136.998644,80.4829614 136.957106,80.5410133 136.957106,80.6239445 L136.957106,86.4921592 C136.957106,86.5750905 136.998644,86.6231906 137.087873,86.6231906 L137.737095,86.6231906 Z M134.286374,84.6046441 L134.286374,81.4084741 L135.718662,81.4084741 C135.797122,81.4084741 135.840198,81.3587153 135.840198,81.2658323 L135.840198,80.6720446 C135.840198,80.5891134 135.797122,80.5410133 135.7202,80.5410133 L134.286374,80.5410133 L134.21099,79.1046441 C134.200221,79.0200543 134.155607,78.9736128 134.089454,78.9736128 L133.517154,78.9736128 C133.429463,78.9736128 133.384848,79.0200543 133.384848,79.1162545 L133.384848,84.6527443 C133.384848,86.1139928 134.200221,86.7525633 135.301744,86.7525633 C135.443281,86.7525633 135.697124,86.7426116 135.895582,86.7293426 C135.972504,86.7177322 136.007888,86.6596803 136.007888,86.5883595 L136.007888,85.9597407 C136.007888,85.8768094 135.961735,85.8287093 135.875583,85.8287093 C135.677124,85.8403197 135.466358,85.85193 135.344821,85.85193 C134.661753,85.85193 134.286374,85.3891737 134.286374,84.6046441 Z M128.281843,84.8069964 C128.281843,84.1518396 128.744913,83.7487937 129.747976,83.7487937 C130.200277,83.7487937 130.717193,83.8201146 131.072573,83.8914355 L131.072573,85.6744572 C130.741808,85.7806092 130.243354,85.8884198 129.747976,85.8884198 C128.898757,85.8884198 128.281843,85.5202051 128.281843,84.8069964 Z M127.698774,80.9689385 C127.654159,81.01538 127.666467,81.0634801 127.698774,81.134801 L128.017231,81.634047 C128.061846,81.7037093 128.11723,81.7169783 128.183383,81.6688782 C128.569531,81.4200844 129.1326,81.2293426 129.747976,81.2293426 C130.706424,81.2293426 131.072573,81.7169783 131.072573,82.6789807 L131.072573,83.0604644 C130.695655,82.9891435 130.200277,82.9178227 129.747976,82.9178227 C128.337227,82.9178227 127.378779,83.5464415 127.378779,84.8069964 C127.378779,86.2201448 128.512609,86.7525633 129.747976,86.7525633 C130.574118,86.7525633 131.357184,86.5767491 131.8741,86.3743969 C131.940253,86.3511761 131.97256,86.2914656 131.97256,86.2201448 L131.97256,82.6574186 C131.97256,81.1231906 131.137187,80.35193 129.781822,80.35193 C128.932603,80.35193 128.21569,80.5891134 127.698774,80.9689385 Z M126.960323,86.6231906 C127.058783,86.6231906 127.092629,86.5518697 127.026476,86.4573281 L124.491127,83.1317853 L126.828017,80.6488239 C126.904939,80.5658926 126.871093,80.4829614 126.772633,80.4829614 L125.968029,80.4829614 C125.912645,80.4829614 125.857261,80.4945718 125.814185,80.5526236 L123.323451,83.1782268 L123.323451,78.2604041 C123.323451,78.1791315 123.278836,78.1293727 123.191145,78.1293727 L122.543462,78.1293727 C122.46654,78.1293727 122.420386,78.1791315 122.420386,78.2604041 L122.420386,86.4921592 C122.420386,86.5750905 122.46654,86.6231906 122.543462,86.6231906 L123.191145,86.6231906 C123.278836,86.6231906 123.323451,86.5750905 123.323451,86.4921592 L123.323451,84.3790712 L123.88652,83.7952352 L125.978798,86.5402593 C126.021874,86.5999698 126.077258,86.6231906 126.143411,86.6231906 L126.960323,86.6231906 Z M120.998868,78.7579916 C120.998868,78.4146562 120.766564,78.1791315 120.458876,78.1791315 C120.149649,78.1791315 119.909652,78.4146562 119.909652,78.7579916 C119.909652,79.0913752 120.149649,79.3401689 120.458876,79.3401689 C120.766564,79.3401689 120.998868,79.0913752 120.998868,78.7579916 Z M120.777333,86.6231906 C120.854255,86.6231906 120.898869,86.5750905 120.898869,86.4921592 L120.898869,80.6239445 C120.898869,80.5410133 120.854255,80.4829614 120.777333,80.4829614 L120.128111,80.4829614 C120.041958,80.4829614 119.995805,80.5410133 119.995805,80.6239445 L119.995805,86.4921592 C119.995805,86.5750905 120.041958,86.6231906 120.128111,86.6231906 L120.777333,86.6231906 Z M114.617419,86.6231906 C114.70511,86.6231906 114.749725,86.5750905 114.749725,86.4921592 L114.749725,81.4433052 C115.091258,81.3238842 115.588175,81.2293426 116.051245,81.2293426 C117.043539,81.2293426 117.626608,81.7037093 117.626608,82.9410434 L117.626608,86.4921592 C117.626608,86.5750905 117.672761,86.6231906 117.748144,86.6231906 L118.397366,86.6231906 C118.485057,86.6231906 118.529672,86.5750905 118.529672,86.4921592 L118.529672,82.9161641 C118.529672,81.0983112 117.528147,80.35193 116.051245,80.35193 C115.291256,80.35193 114.562035,80.5294029 113.93589,80.8130277 C113.869737,80.8495175 113.848199,80.909228 113.848199,80.9805489 L113.848199,86.4921592 C113.848199,86.5750905 113.892814,86.6231906 113.968197,86.6231906 L114.617419,86.6231906 Z M111.579,80.4829614 C111.48977,80.4829614 111.446694,80.5410133 111.446694,80.6239445 L111.446694,85.6628468 C111.103622,85.7938782 110.640552,85.8884198 110.177481,85.8884198 C109.219033,85.8884198 108.645195,85.4123945 108.645195,84.1651086 L108.645195,80.6239445 C108.645195,80.5410133 108.60058,80.4829614 108.523658,80.4829614 L107.874436,80.4829614 C107.788284,80.4829614 107.742131,80.5410133 107.742131,80.6239445 L107.742131,84.1899879 C107.742131,86.0061821 108.732886,86.7525633 110.177481,86.7525633 C110.92824,86.7525633 111.645153,86.5883595 112.25899,86.2914656 C112.325143,86.2665862 112.349758,86.196924 112.349758,86.1256031 L112.349758,80.6239445 C112.349758,80.5410133 112.303605,80.4829614 112.226683,80.4829614 L111.579,80.4829614 Z M102.345283,80.9341074 C101.959135,80.5658926 101.44068,80.35193 100.766844,80.35193 C100.096084,80.35193 99.4576313,80.5294029 98.8714857,80.8130277 C98.7945637,80.8495175 98.7730256,80.909228 98.7730256,80.9805489 L98.7730256,86.4921592 C98.7730256,86.5750905 98.8191788,86.6231906 98.8945623,86.6231906 L99.543784,86.6231906 C99.6314751,86.6231906 99.6760898,86.5750905 99.6760898,86.4921592 L99.6760898,81.4433052 C99.9837778,81.3238842 100.337619,81.2293426 100.788382,81.2293426 C101.682216,81.2293426 102.11144,81.740199 102.11144,82.7503016 L102.11144,86.4921592 C102.11144,86.5750905 102.157594,86.6231906 102.232977,86.6231906 L102.892968,86.6231906 C102.96989,86.6231906 103.014505,86.5750905 103.014505,86.4921592 L103.014505,82.7619119 C103.014505,82.3339867 102.937583,81.9425513 102.805277,81.634047 C103.136041,81.3835947 103.556035,81.2293426 104.019106,81.2293426 C104.966785,81.2293426 105.419086,81.7999095 105.419086,82.7503016 L105.419086,86.4921592 C105.419086,86.5750905 105.462163,86.6231906 105.551392,86.6231906 L106.200614,86.6231906 C106.275997,86.6231906 106.322151,86.5750905 106.322151,86.4921592 L106.322151,82.7735223 C106.322151,81.1945115 105.385241,80.35193 104.039106,80.35193 C103.379115,80.35193 102.87143,80.5526236 102.345283,80.9341074 Z M93.340794,80.9341074 C92.9546456,80.5658926 92.4361913,80.35193 91.7654315,80.35193 C91.0915947,80.35193 90.4531421,80.5294029 89.8700734,80.8130277 C89.7931514,80.8495175 89.7700748,80.909228 89.7700748,80.9805489 L89.7700748,86.4921592 C89.7700748,86.5750905 89.8146896,86.6231906 89.8916116,86.6231906 L90.5423717,86.6231906 C90.6285243,86.6231906 90.6746775,86.5750905 90.6746775,86.4921592 L90.6746775,81.4433052 C90.9808271,81.3238842 91.3346683,81.2293426 91.7869696,81.2293426 C92.6792648,81.2293426 93.1115664,81.740199 93.1115664,82.7503016 L93.1115664,86.4921592 C93.1115664,86.5750905 93.1531043,86.6231906 93.2300263,86.6231906 L93.8900171,86.6231906 C93.9669391,86.6231906 94.0130923,86.5750905 94.0130923,86.4921592 L94.0130923,82.7619119 C94.0130923,82.3339867 93.9346318,81.9425513 93.802326,81.634047 C94.134629,81.3835947 94.5515463,81.2293426 95.0146167,81.2293426 C95.9638342,81.2293426 96.4145971,81.7999095 96.4145971,82.7503016 L96.4145971,86.4921592 C96.4145971,86.5750905 96.4592118,86.6231906 96.5469029,86.6231906 L97.1961246,86.6231906 C97.274585,86.6231906 97.3176613,86.5750905 97.3176613,86.4921592 L97.3176613,82.7735223 C97.3176613,81.1945115 96.3838283,80.35193 95.0392317,80.35193 C94.3761641,80.35193 93.8684789,80.5526236 93.340794,80.9341074 Z M84.5347635,84.4271713 L84.5347635,82.7154704 C84.5347635,81.8115199 85.0639869,81.2293426 86.0455116,81.2293426 C87.0378054,81.2293426 87.5670287,81.8115199 87.5670287,82.7154704 L87.5670287,84.4271713 C87.5670287,85.3178528 87.0378054,85.8884198 86.0455116,85.8884198 C85.0639869,85.8884198 84.5347635,85.3178528 84.5347635,84.4271713 Z M88.4685546,84.4271713 L88.4685546,82.7154704 C88.4685546,81.3238842 87.5439521,80.35193 86.0455116,80.35193 C84.5563017,80.35193 83.6224686,81.3238842 83.6224686,82.7154704 L83.6224686,84.4271713 C83.6224686,85.8170989 84.5563017,86.7525633 86.0455116,86.7525633 C87.5439521,86.7525633 88.4685546,85.8170989 88.4685546,84.4271713 Z M78.3086969,86.6231906 C78.3856189,86.6231906 78.4302337,86.5750905 78.4302337,86.4921592 L78.4302337,83.4883896 L79.1686849,82.669029 L82.0547983,86.5402593 C82.088644,86.5999698 82.1440278,86.6231906 82.2101807,86.6231906 L83.1024759,86.6231906 C83.2009361,86.6231906 83.2455508,86.5518697 83.1793979,86.4573281 L79.7963684,81.9558203 L82.959401,78.2968938 C83.036323,78.212304 82.9917082,78.1293727 82.882479,78.1293727 L82.0024913,78.1293727 C81.9348,78.1293727 81.8901852,78.1542521 81.8348014,78.212304 L78.4302337,82.191345 L78.4302337,78.2604041 C78.4302337,78.1774729 78.3856189,78.1293727 78.3086969,78.1293727 L77.627168,78.1293727 C77.539477,78.1293727 77.4948622,78.1774729 77.4948622,78.2604041 L77.4948622,86.4921592 C77.4948622,86.5750905 77.539477,86.6231906 77.627168,86.6231906 L78.3086969,86.6231906 Z M71.6426365,86.6231906 C71.7303276,86.6231906 71.7764808,86.5750905 71.7764808,86.4921592 L71.7764808,81.4549156 C72.0718613,81.3238842 72.5133935,81.2177322 72.9641565,81.2177322 C73.2949211,81.2177322 73.6472238,81.2525633 73.9564502,81.3006634 C74.0441413,81.3238842 74.0887561,81.2774427 74.0887561,81.1812425 L74.0887561,80.6023824 C74.0887561,80.5177925 74.0549104,80.458082 73.9779884,80.4464717 C73.5810709,80.3884198 73.20723,80.35193 72.8426197,80.35193 C72.193398,80.35193 71.5103307,80.5061821 70.9595692,80.7914656 C70.8934162,80.8130277 70.8718781,80.8743969 70.8718781,80.9457177 L70.8718781,86.4921592 C70.8718781,86.5750905 70.9164928,86.6231906 70.9934148,86.6231906 L71.6426365,86.6231906 Z M68.6780627,78.7579916 C68.6780627,78.4030458 68.4580658,78.1890832 68.1611468,78.1890832 C67.8519204,78.1890832 67.6319235,78.4030458 67.6319235,78.7579916 C67.6319235,79.1029855 67.8519204,79.3169481 68.1611468,79.3169481 C68.4580658,79.3169481 68.6780627,79.1029855 68.6780627,78.7579916 Z M66.5627077,78.7579916 C66.5627077,78.4030458 66.3534799,78.1890832 66.0457919,78.1890832 C65.7473345,78.1890832 65.5273376,78.4030458 65.5273376,78.7579916 C65.5273376,79.1029855 65.7473345,79.3169481 66.0457919,79.3169481 C66.3534799,79.3169481 66.5627077,79.1029855 66.5627077,78.7579916 Z M68.6042176,80.4829614 C68.5134496,80.4829614 68.4703733,80.5410133 68.4703733,80.6239445 L68.4703733,85.6628468 C68.1288396,85.7938782 67.6657692,85.8884198 67.2026987,85.8884198 C66.2427122,85.8884198 65.6704125,85.4123945 65.6704125,84.1651086 L65.6704125,80.6239445 C65.6704125,80.5410133 65.6257978,80.4829614 65.5488758,80.4829614 L64.8996541,80.4829614 C64.811963,80.4829614 64.7673482,80.5410133 64.7673482,80.6239445 L64.7673482,84.1899879 C64.7673482,86.0061821 65.7581036,86.7525633 67.2026987,86.7525633 C67.951919,86.7525633 68.6672936,86.5883595 69.284208,86.2914656 C69.3503609,86.2665862 69.3734375,86.196924 69.3734375,86.1256031 L69.3734375,80.6239445 C69.3734375,80.5410133 69.3288228,80.4829614 69.2519008,80.4829614 L68.6042176,80.4829614 Z M63.8412074,78.8890229 C63.9073603,78.8890229 63.9504366,78.8409228 63.9504366,78.7579916 L63.9504366,78.1890832 C63.9504366,78.106152 63.9181294,78.0464415 63.8304383,78.0364897 C63.6319795,78.0116104 63.388906,78 63.1689091,78 C62.1227699,78 61.3181658,78.7364294 61.3181658,80.1611882 L61.3181658,86.4921592 C61.3181658,86.5750905 61.3627806,86.6231906 61.4397026,86.6231906 L62.0889242,86.6231906 C62.1766153,86.6231906 62.2212301,86.5750905 62.2212301,86.4921592 L62.2212301,81.4084741 L63.7412088,81.4084741 C63.8181308,81.4084741 63.8627455,81.3587153 63.8627455,81.2658323 L63.8627455,80.6720446 C63.8627455,80.5891134 63.8181308,80.5410133 63.7412088,80.5410133 L62.2212301,80.5410133 L62.2212301,80.1495778 C62.2212301,79.3418275 62.595071,78.8541918 63.2889074,78.8541918 C63.465828,78.8541918 63.6750559,78.8658022 63.8412074,78.8890229 Z M55.6874755,86.6231906 C55.7751666,86.6231906 55.8182429,86.5750905 55.8182429,86.4921592 L55.8182429,81.4549156 C56.1167002,81.3238842 56.5566941,81.2177322 57.0089954,81.2177322 C57.33976,81.2177322 57.6920628,81.2525633 57.9997508,81.3006634 C58.0889803,81.3238842 58.1320566,81.2774427 58.1320566,81.1812425 L58.1320566,80.6023824 C58.1320566,80.5177925 58.0997494,80.458082 58.0228274,80.4464717 C57.6259099,80.3884198 57.2505305,80.35193 56.8874587,80.35193 C56.2366986,80.35193 55.5536312,80.5061821 55.0044081,80.7914656 C54.9382552,80.8130277 54.9182555,80.8743969 54.9182555,80.9457177 L54.9182555,86.4921592 C54.9182555,86.5750905 54.9597934,86.6231906 55.0367154,86.6231906 L55.6874755,86.6231906 Z M52.6459796,80.4829614 C52.5582886,80.4829614 52.5136738,80.5410133 52.5136738,80.6239445 L52.5136738,85.6628468 C52.1721401,85.7938782 51.7106081,85.8884198 51.2459993,85.8884198 C50.2875512,85.8884198 49.713713,85.4123945 49.713713,84.1651086 L49.713713,80.6239445 C49.713713,80.5410133 49.6706367,80.4829614 49.5937147,80.4829614 L48.9444931,80.4829614 C48.856802,80.4829614 48.8121872,80.5410133 48.8121872,80.6239445 L48.8121872,84.1899879 C48.8121872,86.0061821 49.8029426,86.7525633 51.2459993,86.7525633 C51.996758,86.7525633 52.7121326,86.5883595 53.329047,86.2914656 C53.3951999,86.2665862 53.4167381,86.196924 53.4167381,86.1256031 L53.4167381,80.6239445 C53.4167381,80.5410133 53.3736618,80.4829614 53.2952013,80.4829614 L52.6459796,80.4829614 Z M46.1876086,84.6046441 L46.1876086,81.4084741 L47.6198962,81.4084741 C47.6983567,81.4084741 47.741433,81.3587153 47.741433,81.2658323 L47.741433,80.6720446 C47.741433,80.5891134 47.6983567,80.5410133 47.6198962,80.5410133 L46.1876086,80.5410133 L46.1106866,79.1046441 C46.0999175,79.0200543 46.0553028,78.9736128 45.9891499,78.9736128 L45.4183886,78.9736128 C45.3306975,78.9736128 45.2860828,79.0200543 45.2860828,79.1162545 L45.2860828,84.6527443 C45.2860828,86.1139928 46.0999175,86.7525633 47.2014406,86.7525633 C47.3445155,86.7525633 47.5983581,86.7426116 47.7968168,86.7293426 C47.8737388,86.7177322 47.9060461,86.6596803 47.9060461,86.5883595 L47.9060461,85.9597407 C47.9060461,85.8768094 47.8629698,85.8287093 47.7737402,85.8287093 C47.5768199,85.8403197 47.3675921,85.85193 47.2460553,85.85193 C46.562988,85.85193 46.1876086,85.3891737 46.1876086,84.6046441 Z M39.9400039,86.6231906 C40.0276949,86.6231906 40.0723097,86.5750905 40.0723097,86.4921592 L40.0723097,81.4433052 C40.4138434,81.3238842 40.9107595,81.2293426 41.3738299,81.2293426 C42.3645853,81.2293426 42.9491925,81.7037093 42.9491925,82.9410434 L42.9491925,86.4921592 C42.9491925,86.5750905 42.9938072,86.6231906 43.0707292,86.6231906 L43.7199509,86.6231906 C43.807642,86.6231906 43.8522567,86.5750905 43.8522567,86.4921592 L43.8522567,82.9161641 C43.8522567,81.0983112 42.8507323,80.35193 41.3738299,80.35193 C40.6123021,80.35193 39.88462,80.5294029 39.2584749,80.8130277 C39.192322,80.8495175 39.1707839,80.909228 39.1707839,80.9805489 L39.1707839,86.4921592 C39.1707839,86.5750905 39.2138602,86.6231906 39.2907822,86.6231906 L39.9400039,86.6231906 Z M37.0323523,82.7154704 L37.0323523,83.2147165 L34.1877768,83.2147165 L34.1877768,82.7154704 C34.1877768,81.6937575 34.783153,81.2293426 35.6108338,81.2293426 C36.4154379,81.2293426 37.0323523,81.7037093 37.0323523,82.7154704 Z M37.91234,82.7154704 C37.91234,81.0867008 36.8108169,80.35193 35.6108338,80.35193 C34.3970046,80.35193 33.2754819,81.0867008 33.2754819,82.7154704 L33.2754819,84.5200543 C33.2754819,86.0177925 34.4077737,86.7525633 35.5985262,86.7525633 C36.5262055,86.7525633 37.2292726,86.3976176 37.7800341,85.9000302 C37.846187,85.8403197 37.8569561,85.7806092 37.8015723,85.7092883 L37.4831152,85.2581423 C37.4400389,85.1868215 37.373886,85.1752111 37.3077331,85.2216526 C36.9000465,85.5666466 36.3815922,85.8884198 35.6216028,85.8884198 C34.8046912,85.8884198 34.1877768,85.4123945 34.1877768,84.5200543 L34.1877768,84.0208082 L37.7923416,84.0208082 C37.8692636,84.0208082 37.91234,83.9743667 37.91234,83.8781665 L37.91234,82.7154704 Z M28.1924762,84.0108565 L28.1924762,82.8216224 C28.1924762,81.6439988 28.810929,81.2293426 29.7586081,81.2293426 C30.1678331,81.2293426 30.7401328,81.3122738 31.0601283,81.4316948 L31.0601283,85.1984318 C30.7509019,85.4240048 30.2109094,85.5550362 29.7155318,85.5550362 C28.8432363,85.5550362 28.1924762,85.1519903 28.1924762,84.0108565 Z M31.9616541,86.4573281 L31.9616541,80.9689385 C31.9616541,80.8843486 31.9293469,80.8379071 31.863194,80.8130277 C31.2908943,80.5410133 30.5201359,80.35193 29.747839,80.35193 C28.3693968,80.35193 27.2801813,81.0269903 27.2801813,82.8216224 L27.2801813,84.0108565 C27.2801813,85.6628468 28.324782,86.4324487 29.6493788,86.4324487 C30.1124493,86.4324487 30.6524417,86.303076 31.0601283,86.0891134 L31.0601283,86.3743969 C31.0924355,87.5868516 30.6293651,88.1209288 29.6370713,88.1209288 C28.9755421,88.1209288 28.4463188,87.8489144 27.9955559,87.4558203 C27.9294029,87.3961098 27.86325,87.4077201 27.8186353,87.479041 L27.5001782,87.9915561 C27.4555634,88.0744873 27.4555634,88.1325392 27.5109473,88.1806393 C28.094016,88.7031062 28.7555452,89 29.6370713,89 C31.2801252,89 31.9616541,88.0147768 31.9616541,86.4573281 Z M23.3017755,79.2588963 L23.3463902,79.2588963 L24.6909868,83.4635103 L21.9571789,83.4635103 L23.3017755,79.2588963 Z M20.8448868,86.6231906 C20.9218088,86.6231906 20.9648851,86.5883595 20.9879617,86.5170386 L21.6710291,84.4006333 L24.9771366,84.4006333 L25.6494349,86.5170386 C25.670973,86.5883595 25.7263569,86.6231906 25.7925098,86.6231906 L26.5294226,86.6231906 C26.6186521,86.6231906 26.6617284,86.5634801 26.6294212,86.4689385 L23.8956133,78.2371834 C23.8740752,78.1658625 23.8202298,78.1293727 23.7540768,78.1293727 L22.8833198,78.1293727 C22.8171669,78.1293727 22.7725521,78.1658625 22.751014,78.2371834 L20.006437,86.4689385 C19.9848989,86.5634801 20.0172061,86.6231906 20.1064356,86.6231906 L20.8448868,86.6231906 Z" id="Fill-7" fill="#636363" fill-rule="nonzero"></path>
            <path d="M106.325236,23 C107.414451,23 108,22.6203449 108,21.916594 L108,14.7710528 C108,14.0673019 107.414451,13.6876468 106.325236,13.6876468 L62.6732192,13.6876468 C61.5855495,13.6876468 61,14.0673019 61,14.7710528 L61,21.916594 C61,22.6203449 61.5855495,23 62.6732192,23 L106.325236,23 Z M106.325236,9.31235322 C107.414451,9.31235322 108,8.93269811 108,8.22894719 L108,1.08340603 C108,0.379655103 107.414451,0 106.325236,0 L62.6732192,0 C61.5855495,0 61,0.379655103 61,1.08340603 L61,8.22894719 C61,8.93269811 61.5855495,9.31235322 62.6732192,9.31235322 L106.325236,9.31235322 Z" id="Fill-8" fill="#636363" fill-rule="nonzero"></path>
        </g>
    </g>
</svg>