<?xml version="1.0" encoding="utf-8"?>
<!-- Generator: Adobe Illustrator 17.0.0, SVG Export Plug-In . SVG Version: 6.00 Build 0)  -->
<!DOCTYPE svg PUBLIC "-//W3C//DTD SVG 1.1//EN" "http://www.w3.org/Graphics/SVG/1.1/DTD/svg11.dtd">
<svg version="1.1" id="Layer_1" xmlns="http://www.w3.org/2000/svg" xmlns:xlink="http://www.w3.org/1999/xlink" x="0px" y="0px"
	 width="82.227px" height="107.75px" viewBox="0 0 82.227 107.75" enable-background="new 0 0 82.227 107.75" xml:space="preserve">
<g>
	<g>
		<defs>
			<rect id="SVGID_83_" x="32.217" y="-10.278" width="34" height="50"/>
		</defs>
		<clipPath id="SVGID_1_">
			<use xlink:href="#SVGID_83_"  overflow="visible"/>
		</clipPath>
		<path clip-path="url(#SVGID_1_)" fill-rule="evenodd" clip-rule="evenodd" fill="#FFFFFF" d="M-20.283,0.722L-20.283,0.722
			c2.485,0,4.5,2.015,4.5,4.5v13c0,2.485-2.015,4.5-4.5,4.5s-4.5-2.015-4.5-4.5v-13C-24.783,2.737-22.768,0.722-20.283,0.722z"/>
	</g>
	<g>
		<defs>
			<path id="SVGID_85_" d="M47.717,0.722L47.717,0.722c2.485,0,4.5,2.015,4.5,4.5v13c0,2.485-2.015,4.5-4.5,4.5s-4.5-2.015-4.5-4.5
				v-13C43.217,2.737,45.232,0.722,47.717,0.722z"/>
		</defs>
		<clipPath id="SVGID_2_">
			<use xlink:href="#SVGID_85_"  overflow="visible"/>
		</clipPath>
		<g clip-path="url(#SVGID_2_)">
			<defs>
				<rect id="SVGID_87_" x="-677.783" y="-1678.278" width="1440" height="3646"/>
			</defs>
			<clipPath id="SVGID_3_">
				<use xlink:href="#SVGID_87_"  overflow="visible"/>
			</clipPath>
			<rect x="38.217" y="-4.278" clip-path="url(#SVGID_3_)" fill="#FF4647" width="19" height="32"/>
		</g>
	</g>
	<g>
		<defs>
			
				<rect id="SVGID_89_" x="16.35" y="-4.418" transform="matrix(-0.766 0.6428 -0.6428 -0.766 72.4492 15.7954)" width="34" height="51.001"/>
		</defs>
		<clipPath id="SVGID_4_">
			<use xlink:href="#SVGID_89_"  overflow="visible"/>
		</clipPath>
		<g clip-path="url(#SVGID_4_)">
			<defs>
				<rect id="SVGID_91_" x="-677.783" y="-1678.278" width="1440" height="3646"/>
			</defs>
			<clipPath id="SVGID_5_">
				<use xlink:href="#SVGID_91_"  overflow="visible"/>
			</clipPath>
			<path clip-path="url(#SVGID_5_)" fill-rule="evenodd" clip-rule="evenodd" fill="#FFFFFF" d="M-28.444,54.005L-28.444,54.005
				c1.904-1.597,4.742-1.349,6.34,0.555l8.356,9.958c1.597,1.904,1.349,4.743-0.555,6.34c-1.904,1.598-4.742,1.349-6.34-0.555
				l-8.356-9.958C-30.596,58.441-30.348,55.603-28.444,54.005z"/>
		</g>
	</g>
	<g>
		<defs>
			<path id="SVGID_93_" d="M23.647,10.296L23.647,10.296c1.904-1.598,4.742-1.35,6.34,0.554l8.356,9.959
				c1.597,1.904,1.349,4.742-0.555,6.339c-1.904,1.598-4.742,1.35-6.34-0.554l-8.356-9.959
				C21.495,14.731,21.743,11.893,23.647,10.296z"/>
		</defs>
		<clipPath id="SVGID_6_">
			<use xlink:href="#SVGID_93_"  overflow="visible"/>
		</clipPath>
		<g clip-path="url(#SVGID_6_)">
			<defs>
				<rect id="SVGID_95_" x="-677.783" y="-1678.278" width="1440" height="3646"/>
			</defs>
			<clipPath id="SVGID_7_">
				<use xlink:href="#SVGID_95_"  overflow="visible"/>
			</clipPath>
			
				<rect x="21.217" y="2.723" transform="matrix(-0.766 0.6428 -0.6428 -0.766 66.2827 13.3198)" clip-path="url(#SVGID_7_)" fill="#FF4647" width="19" height="32"/>
		</g>
	</g>
	<g>
		<defs>
			
				<rect id="SVGID_97_" x="48.172" y="-3.658" transform="matrix(-0.766 -0.6428 0.6428 -0.766 101.3781 79.5827)" width="34" height="50"/>
		</defs>
		<clipPath id="SVGID_8_">
			<use xlink:href="#SVGID_97_"  overflow="visible"/>
		</clipPath>
		<g clip-path="url(#SVGID_8_)">
			<defs>
				<rect id="SVGID_99_" x="-677.783" y="-1678.278" width="1440" height="3646"/>
			</defs>
			<clipPath id="SVGID_9_">
				<use xlink:href="#SVGID_99_"  overflow="visible"/>
			</clipPath>
			<path clip-path="url(#SVGID_9_)" fill-rule="evenodd" clip-rule="evenodd" fill="#FFFFFF" d="M21.697-33.414L21.697-33.414
				c1.904,1.597,2.152,4.436,0.555,6.34l-8.356,9.958c-1.597,1.904-4.436,2.152-6.34,0.555c-1.904-1.598-2.152-4.436-0.555-6.34
				l8.356-9.958C16.955-34.763,19.793-35.012,21.697-33.414z"/>
		</g>
	</g>
	<g>
		<defs>
			<path id="SVGID_101_" d="M73.788,10.296L73.788,10.296c1.904,1.597,2.152,4.435,0.555,6.339l-8.356,9.959
				c-1.598,1.904-4.436,2.152-6.34,0.554c-1.904-1.597-2.152-4.435-0.555-6.339l8.356-9.959
				C69.046,8.946,71.884,8.698,73.788,10.296z"/>
		</defs>
		<clipPath id="SVGID_10_">
			<use xlink:href="#SVGID_101_"  overflow="visible"/>
		</clipPath>
		<g clip-path="url(#SVGID_10_)">
			<defs>
				<rect id="SVGID_103_" x="-677.783" y="-1678.278" width="1440" height="3646"/>
			</defs>
			<clipPath id="SVGID_11_">
				<use xlink:href="#SVGID_103_"  overflow="visible"/>
			</clipPath>
			
				<rect x="57.217" y="2.723" transform="matrix(-0.766 -0.6428 0.6428 -0.766 105.7911 75.9498)" clip-path="url(#SVGID_11_)" fill="#FF4647" width="19" height="32"/>
		</g>
	</g>
	<g>
		<defs>
			<path id="SVGID_105_" d="M11.299,20.728c-0.005-0.004-0.005-0.004-0.01-0.008c-2.812-2.186-6.865-1.678-9.051,1.134
				c-2.215,2.85-1.891,6.919,0.747,9.382l23.315,21.763c1.901,1.775,3.036,4.219,3.164,6.816
				c0.509,10.283-0.899,15.894-3.818,16.899c-3.811,1.312-9.48,1.395-16.977,0.215l-3.697-0.583l2.914,2.349l16.539,13.329
				c7.268,5.858,16.355,8.992,25.689,8.861l-0.623-0.207c4.674,3.585,7.644,5.042,9.405,4.218
				c9.771-4.573,16.589-12.813,20.432-24.653l0.213-0.655l-0.536-0.432c-3.579-2.888-5.644-4.864-6.058-5.717
				c-2.103-4.328-2.958-9.487-2.553-15.49l-0.085,0.342l10.502-23.4c0.28-0.624,0.438-1.296,0.466-1.979
				c0.12-2.96-2.183-5.456-5.142-5.576c-4.366-0.176-8.545,1.784-11.2,5.255l-7.863,10.278c-2.344,3.065-6.402,4.26-10.034,2.956
				l-5.127-1.842c-0.999-0.359-1.934-0.875-2.771-1.528L11.299,20.728z M10.069,22.305L37.91,44.032
				c1.004,0.784,2.127,1.402,3.326,1.833l5.127,1.842c4.451,1.599,9.425,0.134,12.298-3.622l7.863-10.279
				c2.259-2.953,5.815-4.622,9.531-4.471c1.856,0.075,3.3,1.64,3.225,3.496c-0.017,0.428-0.116,0.85-0.292,1.241l-10.502,23.4
				l-0.073,0.164l-0.012,0.178c-0.427,6.334,0.485,11.838,2.75,16.499c0.599,1.233,2.754,3.295,6.602,6.4l-0.323-1.087
				c-3.678,11.333-10.13,19.131-19.377,23.459c-0.273,0.127-1.02-0.018-2.167-0.58c-1.326-0.65-3.055-1.789-5.173-3.414
				l-0.276-0.211l-0.347,0.005c-8.868,0.125-17.501-2.853-24.406-8.418L9.142,77.138l-0.783,1.766
				c7.79,1.227,13.76,1.139,17.939-0.299c4.13-1.422,5.716-7.74,5.164-18.889c-0.154-3.116-1.516-6.05-3.797-8.179L4.351,29.774
				c-1.882-1.757-2.113-4.659-0.533-6.692c1.508-1.941,4.304-2.291,6.244-0.783C10.065,22.302,10.065,22.302,10.069,22.305z
				 M37.415-41.678l99.702,99.703L47.742,147.4L-51.96,47.697L37.415-41.678z"/>
		</defs>
		<clipPath id="SVGID_12_">
			<use xlink:href="#SVGID_105_"  overflow="visible"/>
		</clipPath>
		<g clip-path="url(#SVGID_12_)">
			<defs>
				<path id="SVGID_107_" d="M10.684,21.516l27.841,21.728c0.92,0.718,1.949,1.285,3.048,1.68l5.126,1.842
					c4.041,1.451,8.557,0.121,11.166-3.289l7.863-10.278c2.457-3.212,6.325-5.027,10.366-4.864c2.408,0.098,4.281,2.128,4.183,4.536
					c-0.022,0.556-0.151,1.103-0.379,1.611l-10.502,23.4c-0.416,6.168,0.468,11.499,2.651,15.994
					c0.507,1.043,2.617,3.062,6.33,6.058C74.617,91.521,67.983,99.54,58.473,103.99c-1.251,0.586-4.041-0.783-8.372-4.105
					C41,100.013,32.14,96.957,25.053,91.246L8.515,77.916c7.643,1.204,13.463,1.118,17.458-0.257
					c3.524-1.213,5.021-7.177,4.491-17.893c-0.141-2.857-1.39-5.546-3.48-7.498L3.668,30.505c-2.26-2.11-2.538-5.596-0.64-8.037
					c1.847-2.376,5.271-2.805,7.648-0.958C10.678,21.512,10.681,21.514,10.684,21.516z"/>
			</defs>
			<clipPath id="SVGID_13_">
				<use xlink:href="#SVGID_107_"  overflow="visible"/>
			</clipPath>
			<g clip-path="url(#SVGID_13_)">
				<defs>
					<rect id="SVGID_109_" x="-677.783" y="-1678.278" width="1440" height="3646"/>
				</defs>
				<clipPath id="SVGID_14_">
					<use xlink:href="#SVGID_109_"  overflow="visible"/>
				</clipPath>
				<path clip-path="url(#SVGID_14_)" fill="#F4F4F4" d="M10.684,21.516l27.841,21.728c0.92,0.718,1.949,1.285,3.048,1.68
					l5.126,1.842c4.041,1.451,8.557,0.121,11.166-3.289l7.863-10.278c2.457-3.212,6.325-5.027,10.366-4.864
					c2.408,0.098,4.281,2.128,4.183,4.536c-0.022,0.556-0.151,1.103-0.379,1.611l-10.502,23.4
					c-0.416,6.168,0.468,11.499,2.651,15.994c0.507,1.043,2.617,3.062,6.33,6.058C74.617,91.521,67.983,99.54,58.473,103.99
					c-1.251,0.586-4.041-0.783-8.372-4.105C41,100.013,32.14,96.957,25.053,91.246L8.515,77.916
					c7.643,1.204,13.463,1.118,17.458-0.257c3.524-1.213,5.021-7.177,4.491-17.893c-0.141-2.857-1.39-5.546-3.48-7.498L3.668,30.505
					c-2.26-2.11-2.538-5.596-0.64-8.037c1.847-2.376,5.271-2.805,7.648-0.958C10.678,21.512,10.681,21.514,10.684,21.516z"/>
				<path clip-path="url(#SVGID_14_)" fill="#FCC000" d="M10.684,21.516l27.841,21.728c0.92,0.718,1.949,1.285,3.048,1.68
					l5.126,1.842c4.041,1.451,8.557,0.121,11.166-3.289l7.863-10.278c2.457-3.212,6.325-5.027,10.366-4.864
					c2.408,0.098,4.281,2.128,4.183,4.536c-0.022,0.556-0.151,1.103-0.379,1.611l-10.502,23.4
					c-0.416,6.168,0.468,11.499,2.651,15.994c0.507,1.043,2.617,3.062,6.33,6.058C74.617,91.521,67.983,99.54,58.473,103.99
					c-1.251,0.586-4.041-0.783-8.372-4.105C41,100.013,32.14,96.957,25.053,91.246L8.515,77.916
					c7.643,1.204,13.463,1.118,17.458-0.257c3.524-1.213,5.021-7.177,4.491-17.893c-0.141-2.857-1.39-5.546-3.48-7.498L3.668,30.505
					c-2.26-2.11-2.538-5.596-0.64-8.037c1.847-2.376,5.271-2.805,7.648-0.958C10.678,21.512,10.681,21.514,10.684,21.516z"/>
			</g>
		</g>
	</g>
	<g>
		<defs>
			<path id="SVGID_111_" d="M10.684,21.516l27.841,21.728c0.92,0.718,1.949,1.285,3.048,1.68l5.126,1.842
				c4.041,1.451,8.557,0.121,11.166-3.289l7.863-10.278c2.457-3.212,6.325-5.027,10.366-4.864c2.408,0.098,4.281,2.128,4.183,4.536
				c-0.022,0.556-0.151,1.103-0.379,1.611l-10.502,23.4c-0.416,6.168,0.468,11.499,2.651,15.994c0.507,1.043,2.617,3.062,6.33,6.058
				C74.617,91.521,67.983,99.54,58.473,103.99c-1.251,0.586-4.041-0.783-8.372-4.105C41,100.013,32.14,96.957,25.053,91.246
				L8.515,77.916c7.643,1.204,13.463,1.118,17.458-0.257c3.524-1.213,5.021-7.177,4.491-17.893c-0.141-2.857-1.39-5.546-3.48-7.498
				L3.668,30.505c-2.26-2.11-2.538-5.596-0.64-8.037c1.847-2.376,5.271-2.805,7.648-0.958
				C10.678,21.512,10.681,21.514,10.684,21.516z"/>
		</defs>
		<clipPath id="SVGID_15_">
			<use xlink:href="#SVGID_111_"  overflow="visible"/>
		</clipPath>
		<g clip-path="url(#SVGID_15_)">
			<defs>
				<rect id="SVGID_113_" x="-677.783" y="-1678.278" width="1440" height="3646"/>
			</defs>
			<clipPath id="SVGID_16_">
				<use xlink:href="#SVGID_113_"  overflow="visible"/>
			</clipPath>
			<path clip-path="url(#SVGID_16_)" fill="none" stroke="#000000" stroke-width="4" stroke-miterlimit="10" d="M10.684,21.517
				l27.841,21.727c0.92,0.718,1.95,1.286,3.048,1.68l5.127,1.842c4.041,1.452,8.557,0.122,11.166-3.289l7.863-10.278
				c2.457-3.212,6.325-5.027,10.366-4.863c2.408,0.097,4.281,2.128,4.183,4.536c-0.022,0.556-0.151,1.103-0.379,1.61l-10.502,23.4
				c-0.416,6.168,0.468,11.5,2.651,15.995c0.507,1.043,2.617,3.062,6.33,6.058c-3.761,11.587-10.396,19.606-19.905,24.056
				c-1.251,0.585-4.041-0.783-8.372-4.106C41,100.013,32.14,96.958,25.053,91.246L8.515,77.917
				c7.643,1.204,13.463,1.118,17.458-0.257c3.524-1.213,5.021-7.178,4.491-17.894l0,0c-0.141-2.857-1.39-5.546-3.48-7.497
				L3.669,30.506c-2.26-2.11-2.538-5.596-0.64-8.037c1.847-2.376,5.271-2.805,7.648-0.958
				C10.679,21.513,10.681,21.515,10.684,21.517z"/>
		</g>
	</g>
	<g>
		<defs>
			<rect id="SVGID_115_" x="-677.783" y="-1678.278" width="1440" height="3646"/>
		</defs>
		<clipPath id="SVGID_17_">
			<use xlink:href="#SVGID_115_"  overflow="visible"/>
		</clipPath>
		<path clip-path="url(#SVGID_17_)" fill="none" stroke="#BDB4B4" stroke-miterlimit="10" d="M10.684,21.517l27.841,21.727
			c0.92,0.718,1.95,1.286,3.048,1.68l5.127,1.842c4.041,1.452,8.557,0.122,11.166-3.289l7.863-10.278
			c2.457-3.212,6.325-5.027,10.366-4.863c2.408,0.097,4.281,2.128,4.183,4.536c-0.022,0.556-0.151,1.103-0.379,1.61l-10.502,23.4
			c-0.416,6.168,0.468,11.5,2.651,15.995c0.507,1.043,2.617,3.062,6.33,6.058c-3.761,11.587-10.396,19.606-19.905,24.056
			c-1.251,0.585-4.041-0.783-8.372-4.106C41,100.013,32.14,96.958,25.053,91.246L8.515,77.917
			c7.643,1.204,13.463,1.118,17.458-0.257c3.524-1.213,5.021-7.178,4.491-17.894l0,0c-0.141-2.857-1.39-5.546-3.48-7.497
			L3.669,30.506c-2.26-2.11-2.538-5.596-0.64-8.037c1.847-2.376,5.271-2.805,7.648-0.958C10.679,21.513,10.681,21.515,10.684,21.517
			z"/>
	</g>
	<g>
		<defs>
			
				<rect id="SVGID_117_" x="-3.734" y="62.866" transform="matrix(-0.7547 -0.6561 0.6561 -0.7547 -17.0496 159.3572)" width="50" height="40"/>
		</defs>
		<clipPath id="SVGID_18_">
			<use xlink:href="#SVGID_117_"  overflow="visible"/>
		</clipPath>
		<g clip-path="url(#SVGID_18_)">
			<defs>
				<rect id="SVGID_119_" x="-677.783" y="-1678.278" width="1440" height="3646"/>
			</defs>
			<clipPath id="SVGID_19_">
				<use xlink:href="#SVGID_119_"  overflow="visible"/>
			</clipPath>
			<path clip-path="url(#SVGID_19_)" fill-rule="evenodd" clip-rule="evenodd" fill="#FFFFFF" d="M-58.941,6.815l17.364,8.458
				c3.045,1.483,4.335,5.101,2.88,8.081c-1.455,2.979-5.103,4.192-8.148,2.709l-17.364-8.458c-3.046-1.483-4.335-5.101-2.88-8.081
				C-65.634,6.544-61.986,5.331-58.941,6.815z"/>
		</g>
	</g>
	<g>
		<defs>
			<path id="SVGID_121_" d="M16.968,71.522c-3.537-1.723-7.786-0.311-9.485,3.169c-1.699,3.481-0.197,7.696,3.341,9.419
				l17.364,8.458c3.537,1.723,7.786,0.31,9.485-3.17c1.699-3.48,0.197-7.695-3.341-9.419L16.968,71.522z M16.092,73.32l17.364,8.457
				c2.553,1.244,3.63,4.265,2.419,6.744c-1.211,2.479-4.258,3.493-6.812,2.249L11.7,82.312c-2.553-1.243-3.63-4.265-2.419-6.743
				C10.491,73.089,13.539,72.076,16.092,73.32z M14.434,35.851l55.022,47.83l-38.734,44.558L-24.3,80.409L14.434,35.851z"/>
		</defs>
		<clipPath id="SVGID_20_">
			<use xlink:href="#SVGID_121_"  overflow="visible"/>
		</clipPath>
		<g clip-path="url(#SVGID_20_)">
			<defs>
				<path id="SVGID_123_" d="M16.53,72.421l17.364,8.457c3.045,1.484,4.335,5.102,2.88,8.082c-1.455,2.979-5.103,4.192-8.148,2.709
					l-17.364-8.458c-3.045-1.483-4.335-5.101-2.88-8.081C9.837,72.15,13.485,70.937,16.53,72.421z"/>
			</defs>
			<clipPath id="SVGID_21_">
				<use xlink:href="#SVGID_123_"  overflow="visible"/>
			</clipPath>
			<g clip-path="url(#SVGID_21_)">
				<defs>
					<rect id="SVGID_125_" x="-677.783" y="-1678.278" width="1440" height="3646"/>
				</defs>
				<clipPath id="SVGID_22_">
					<use xlink:href="#SVGID_125_"  overflow="visible"/>
				</clipPath>
				<path clip-path="url(#SVGID_22_)" fill="#FCC000" d="M16.53,72.421l17.364,8.457c3.045,1.484,4.335,5.102,2.88,8.082
					c-1.455,2.979-5.103,4.192-8.148,2.709l-17.364-8.458c-3.045-1.483-4.335-5.101-2.88-8.081
					C9.837,72.15,13.485,70.937,16.53,72.421z"/>
			</g>
		</g>
	</g>
	<g>
		<defs>
			<path id="SVGID_127_" d="M16.53,72.421l17.364,8.457c3.045,1.484,4.335,5.102,2.88,8.082c-1.455,2.979-5.103,4.192-8.148,2.709
				l-17.364-8.458c-3.045-1.483-4.335-5.101-2.88-8.081C9.837,72.15,13.485,70.937,16.53,72.421z"/>
		</defs>
		<clipPath id="SVGID_23_">
			<use xlink:href="#SVGID_127_"  overflow="visible"/>
		</clipPath>
		<g clip-path="url(#SVGID_23_)">
			<defs>
				<rect id="SVGID_129_" x="-677.783" y="-1678.278" width="1440" height="3646"/>
			</defs>
			<clipPath id="SVGID_24_">
				<use xlink:href="#SVGID_129_"  overflow="visible"/>
			</clipPath>
			<path clip-path="url(#SVGID_24_)" fill="none" stroke="#000000" stroke-width="4" stroke-miterlimit="10" d="M16.53,72.421
				l17.364,8.458c3.045,1.484,4.335,5.102,2.88,8.081c-1.455,2.98-5.103,4.193-8.148,2.709l-17.364-8.458
				c-3.046-1.483-4.335-5.101-2.88-8.081C9.837,72.15,13.485,70.937,16.53,72.421z"/>
		</g>
	</g>
	<g>
		<defs>
			<rect id="SVGID_131_" x="-677.783" y="-1678.278" width="1440" height="3646"/>
		</defs>
		<clipPath id="SVGID_25_">
			<use xlink:href="#SVGID_131_"  overflow="visible"/>
		</clipPath>
		<path clip-path="url(#SVGID_25_)" fill="none" stroke="#BDB4B4" stroke-miterlimit="10" d="M16.53,72.421l17.364,8.458
			c3.045,1.484,4.335,5.102,2.88,8.081c-1.455,2.98-5.103,4.193-8.148,2.709l-17.364-8.458c-3.046-1.483-4.335-5.101-2.88-8.081
			C9.837,72.15,13.485,70.937,16.53,72.421z"/>
	</g>
	<g>
		<defs>
			
				<rect id="SVGID_133_" x="-1.814" y="52.269" transform="matrix(-0.7547 -0.6561 0.6561 -0.7547 -3.2184 143.3346)" width="54" height="40"/>
		</defs>
		<clipPath id="SVGID_26_">
			<use xlink:href="#SVGID_133_"  overflow="visible"/>
		</clipPath>
		<g clip-path="url(#SVGID_26_)">
			<defs>
				<rect id="SVGID_135_" x="-677.783" y="-1678.278" width="1440" height="3646"/>
			</defs>
			<clipPath id="SVGID_27_">
				<use xlink:href="#SVGID_135_"  overflow="visible"/>
			</clipPath>
			<path clip-path="url(#SVGID_27_)" fill-rule="evenodd" clip-rule="evenodd" fill="#FFFFFF" d="M-62.339-11.292l20.251,10.737
				c3.206,1.7,4.453,5.617,2.783,8.749c-1.669,3.131-5.622,4.292-8.828,2.592L-68.384,0.048c-3.206-1.7-4.453-5.617-2.783-8.748
				C-69.498-11.832-65.545-12.992-62.339-11.292z"/>
		</g>
	</g>
	<g>
		<defs>
			<path id="SVGID_137_" d="M19.638,58.679c-3.689-1.956-8.248-0.618-10.179,3.005c-1.932,3.624-0.494,8.145,3.197,10.102
				l20.251,10.738c3.689,1.956,8.248,0.617,10.179-3.005c1.932-3.625,0.494-8.146-3.197-10.103L19.638,58.679z M18.702,60.446
				l20.251,10.737c2.722,1.443,3.776,4.756,2.369,7.395c-1.407,2.64-4.754,3.623-7.477,2.179L13.593,70.019
				c-2.722-1.443-3.776-4.755-2.369-7.394C12.632,59.984,15.978,59.002,18.702,60.446z M16.746,22.531l58.455,50.814l-39.401,45.326
				l-58.455-50.814L16.746,22.531z"/>
		</defs>
		<clipPath id="SVGID_28_">
			<use xlink:href="#SVGID_137_"  overflow="visible"/>
		</clipPath>
		<g clip-path="url(#SVGID_28_)">
			<defs>
				<path id="SVGID_139_" d="M19.17,59.562L39.421,70.3c3.207,1.7,4.453,5.617,2.783,8.748c-1.669,3.132-5.622,4.292-8.828,2.592
					L13.125,70.903c-3.206-1.7-4.452-5.617-2.783-8.749C12.011,59.023,15.964,57.862,19.17,59.562z"/>
			</defs>
			<clipPath id="SVGID_29_">
				<use xlink:href="#SVGID_139_"  overflow="visible"/>
			</clipPath>
			<g clip-path="url(#SVGID_29_)">
				<defs>
					<rect id="SVGID_141_" x="-677.783" y="-1678.278" width="1440" height="3646"/>
				</defs>
				<clipPath id="SVGID_30_">
					<use xlink:href="#SVGID_141_"  overflow="visible"/>
				</clipPath>
				<path clip-path="url(#SVGID_30_)" fill="#FCC000" d="M19.17,59.562L39.421,70.3c3.207,1.7,4.453,5.617,2.783,8.748
					c-1.669,3.132-5.622,4.292-8.828,2.592L13.125,70.903c-3.206-1.7-4.452-5.617-2.783-8.749
					C12.011,59.023,15.964,57.862,19.17,59.562z"/>
			</g>
		</g>
	</g>
	<g>
		<defs>
			<path id="SVGID_143_" d="M19.17,59.562L39.421,70.3c3.207,1.7,4.453,5.617,2.783,8.748c-1.669,3.132-5.622,4.292-8.828,2.592
				L13.125,70.903c-3.206-1.7-4.452-5.617-2.783-8.749C12.011,59.023,15.964,57.862,19.17,59.562z"/>
		</defs>
		<clipPath id="SVGID_31_">
			<use xlink:href="#SVGID_143_"  overflow="visible"/>
		</clipPath>
		<g clip-path="url(#SVGID_31_)">
			<defs>
				<rect id="SVGID_145_" x="-677.783" y="-1678.278" width="1440" height="3646"/>
			</defs>
			<clipPath id="SVGID_32_">
				<use xlink:href="#SVGID_145_"  overflow="visible"/>
			</clipPath>
			<path clip-path="url(#SVGID_32_)" fill="none" stroke="#000000" stroke-width="4" stroke-miterlimit="10" d="M19.17,59.563
				L39.421,70.3c3.206,1.7,4.453,5.617,2.783,8.749c-1.669,3.132-5.622,4.292-8.828,2.592L13.125,70.904
				c-3.206-1.7-4.452-5.617-2.783-8.749C12.011,59.023,15.964,57.863,19.17,59.563z"/>
		</g>
	</g>
	<g>
		<defs>
			<rect id="SVGID_147_" x="-677.783" y="-1678.278" width="1440" height="3646"/>
		</defs>
		<clipPath id="SVGID_33_">
			<use xlink:href="#SVGID_147_"  overflow="visible"/>
		</clipPath>
		<path clip-path="url(#SVGID_33_)" fill="none" stroke="#BDB4B4" stroke-miterlimit="10" d="M19.17,59.563L39.421,70.3
			c3.206,1.7,4.453,5.617,2.783,8.749c-1.669,3.132-5.622,4.292-8.828,2.592L13.125,70.904c-3.206-1.7-4.452-5.617-2.783-8.749
			C12.011,59.023,15.964,57.863,19.17,59.563z"/>
	</g>
	<g>
		<defs>
			
				<rect id="SVGID_149_" x="3.585" y="40.477" transform="matrix(-0.7547 -0.6561 0.6561 -0.7547 14.5409 127.3913)" width="55" height="41"/>
		</defs>
		<clipPath id="SVGID_34_">
			<use xlink:href="#SVGID_149_"  overflow="visible"/>
		</clipPath>
		<g clip-path="url(#SVGID_34_)">
			<defs>
				<rect id="SVGID_151_" x="-677.783" y="-1678.278" width="1440" height="3646"/>
			</defs>
			<clipPath id="SVGID_35_">
				<use xlink:href="#SVGID_151_"  overflow="visible"/>
			</clipPath>
			<path clip-path="url(#SVGID_35_)" fill-rule="evenodd" clip-rule="evenodd" fill="#FFFFFF" d="M-58.725-23.786l21.076,11.321
				c3.211,1.724,4.449,5.717,2.765,8.917c-1.684,3.201-5.652,4.397-8.864,2.672l-21.076-11.32c-3.211-1.725-4.449-5.717-2.765-8.917
				C-65.904-24.314-61.936-25.51-58.725-23.786z"/>
		</g>
	</g>
	<g>
		<defs>
			<path id="SVGID_153_" d="M24.766,47.5c-3.699-1.987-8.278-0.606-10.222,3.087c-1.941,3.688-0.517,8.281,3.177,10.265
				l21.076,11.32c3.699,1.986,8.278,0.606,10.222-3.088c1.941-3.687,0.517-8.28-3.176-10.264L24.766,47.5z M23.82,49.262
				l21.076,11.32c2.729,1.466,3.781,4.858,2.353,7.571c-1.424,2.707-4.782,3.719-7.505,2.257L18.667,59.09
				c-2.729-1.466-3.781-4.858-2.353-7.571C17.739,48.812,21.097,47.799,23.82,49.262z M21.94,11.289l59.286,51.536l-39.602,45.558
				l-59.286-51.537L21.94,11.289z"/>
		</defs>
		<clipPath id="SVGID_36_">
			<use xlink:href="#SVGID_153_"  overflow="visible"/>
		</clipPath>
		<g clip-path="url(#SVGID_36_)">
			<defs>
				<path id="SVGID_155_" d="M24.293,48.381l21.076,11.32c3.211,1.725,4.449,5.717,2.765,8.918c-1.684,3.2-5.653,4.396-8.864,2.672
					l-21.076-11.32c-3.211-1.725-4.449-5.718-2.765-8.918C17.114,47.853,21.082,46.656,24.293,48.381z"/>
			</defs>
			<clipPath id="SVGID_37_">
				<use xlink:href="#SVGID_155_"  overflow="visible"/>
			</clipPath>
			<g clip-path="url(#SVGID_37_)">
				<defs>
					<rect id="SVGID_157_" x="-677.783" y="-1678.278" width="1440" height="3646"/>
				</defs>
				<clipPath id="SVGID_38_">
					<use xlink:href="#SVGID_157_"  overflow="visible"/>
				</clipPath>
				<path clip-path="url(#SVGID_38_)" fill="#FCC000" d="M24.293,48.381l21.076,11.32c3.211,1.725,4.449,5.717,2.765,8.918
					c-1.684,3.2-5.653,4.396-8.864,2.672l-21.076-11.32c-3.211-1.725-4.449-5.718-2.765-8.918
					C17.114,47.853,21.082,46.656,24.293,48.381z"/>
			</g>
		</g>
	</g>
	<g>
		<defs>
			<path id="SVGID_159_" d="M24.293,48.381l21.076,11.32c3.211,1.725,4.449,5.717,2.765,8.918c-1.684,3.2-5.653,4.396-8.864,2.672
				l-21.076-11.32c-3.211-1.725-4.449-5.718-2.765-8.918C17.114,47.853,21.082,46.656,24.293,48.381z"/>
		</defs>
		<clipPath id="SVGID_39_">
			<use xlink:href="#SVGID_159_"  overflow="visible"/>
		</clipPath>
		<g clip-path="url(#SVGID_39_)">
			<defs>
				<rect id="SVGID_161_" x="-677.783" y="-1678.278" width="1440" height="3646"/>
			</defs>
			<clipPath id="SVGID_40_">
				<use xlink:href="#SVGID_161_"  overflow="visible"/>
			</clipPath>
			<path clip-path="url(#SVGID_40_)" fill="none" stroke="#000000" stroke-width="4" stroke-miterlimit="10" d="M24.293,48.381
				l21.076,11.32c3.211,1.725,4.449,5.717,2.765,8.918c-1.684,3.2-5.652,4.397-8.864,2.672l-21.076-11.32
				c-3.211-1.725-4.449-5.717-2.765-8.918S21.082,46.657,24.293,48.381z"/>
		</g>
	</g>
	<g>
		<defs>
			<rect id="SVGID_163_" x="-677.783" y="-1678.278" width="1440" height="3646"/>
		</defs>
		<clipPath id="SVGID_41_">
			<use xlink:href="#SVGID_163_"  overflow="visible"/>
		</clipPath>
		<path clip-path="url(#SVGID_41_)" fill="none" stroke="#BDB4B4" stroke-miterlimit="10" d="M24.293,48.381l21.076,11.32
			c3.211,1.725,4.449,5.717,2.765,8.918c-1.684,3.2-5.652,4.397-8.864,2.672l-21.076-11.32c-3.211-1.725-4.449-5.717-2.765-8.918
			S21.082,46.657,24.293,48.381z"/>
		<path clip-path="url(#SVGID_41_)" fill="none" stroke="#FFFFFF" stroke-miterlimit="10" d="M40.68,67.525L40.68,67.525
			c-0.909-1.488-0.44-3.431,1.047-4.341c0.544-0.332,1.175-0.492,1.812-0.459l0.58,0.03l0.168,0.267
			c0.883,1.402,0.462,3.254-0.94,4.137c-0.57,0.359-1.243,0.515-1.913,0.445L40.68,67.525z"/>
		<path clip-path="url(#SVGID_41_)" fill="none" stroke="#FFFFFF" stroke-miterlimit="10" d="M34.854,78.679L34.854,78.679
			c-1.02-1.417-0.699-3.392,0.717-4.412c0.522-0.376,1.147-0.584,1.79-0.596l0.648-0.012l0.195,0.264
			c0.986,1.331,0.707,3.21-0.624,4.196c-0.545,0.404-1.21,0.611-1.887,0.588L34.854,78.679z"/>
		<path clip-path="url(#SVGID_41_)" fill="none" stroke="#FFFFFF" stroke-miterlimit="10" d="M28.787,88.711l-0.094-0.153
			c-0.926-1.515-0.448-3.494,1.067-4.419c0.497-0.304,1.067-0.467,1.65-0.472l0.292,0.464c0.881,1.403,0.458,3.255-0.945,4.136
			c-0.524,0.329-1.138,0.488-1.756,0.455L28.787,88.711z"/>
		<path clip-path="url(#SVGID_41_)" fill="none" stroke="#FFFFFF" stroke-linecap="round" stroke-miterlimit="10" d="M28.751,69.047
			l-0.129,0.07c-1.313,0.708-2.131,2.08-2.131,3.572"/>
		<path clip-path="url(#SVGID_41_)" fill="none" stroke="#FFFFFF" stroke-linecap="round" stroke-miterlimit="10" d="M24.66,80.772
			l-0.129,0.07c-1.313,0.708-2.131,2.08-2.131,3.572"/>
		<path clip-path="url(#SVGID_41_)" fill="none" stroke="#FFFFFF" stroke-linecap="round" stroke-miterlimit="10" d="M14.478,75.822
			l-0.129,0.07c-1.313,0.708-2.131,2.08-2.131,3.572"/>
		<path clip-path="url(#SVGID_41_)" fill="none" stroke="#FFFFFF" stroke-linecap="round" stroke-miterlimit="10" d="M16.023,63.447
			l-0.129,0.07c-1.313,0.708-2.131,2.08-2.131,3.572"/>
		<path clip-path="url(#SVGID_41_)" fill="none" stroke="#FFFFFF" stroke-linecap="round" stroke-miterlimit="10" d="M20.963,51.722
			l-0.129,0.07c-1.313,0.708-2.131,2.08-2.131,3.572"/>
		<path clip-path="url(#SVGID_41_)" fill="none" stroke="#FFFFFF" stroke-linecap="round" stroke-miterlimit="10" d="M30.448,69.872
			l-0.129,0.07c-1.313,0.708-2.131,2.08-2.131,3.572"/>
		<path clip-path="url(#SVGID_41_)" fill="none" stroke="#FFFFFF" stroke-linecap="round" stroke-miterlimit="10" d="M26.357,81.597
			l-0.129,0.07c-1.313,0.708-2.131,2.08-2.131,3.572"/>
		<path clip-path="url(#SVGID_41_)" fill="none" stroke="#FFFFFF" stroke-linecap="round" stroke-miterlimit="10" d="M16.175,76.647
			l-0.129,0.07c-1.313,0.708-2.131,2.08-2.131,3.572"/>
		<path clip-path="url(#SVGID_41_)" fill="none" stroke="#FFFFFF" stroke-linecap="round" stroke-miterlimit="10" d="M17.72,64.272
			l-0.129,0.07c-1.313,0.708-2.131,2.08-2.131,3.572"/>
		<path clip-path="url(#SVGID_41_)" fill="none" stroke="#FFFFFF" stroke-linecap="round" stroke-miterlimit="10" d="M22.66,52.547
			l-0.129,0.07c-1.313,0.708-2.131,2.08-2.131,3.572"/>
		<path clip-path="url(#SVGID_41_)" fill="none" stroke="#FFFFFF" stroke-linecap="round" stroke-miterlimit="10" d="M36.236,59.147
			l-0.129,0.07c-1.313,0.708-2.131,2.08-2.131,3.572"/>
		<path clip-path="url(#SVGID_41_)" fill="none" stroke="#FFFFFF" stroke-linecap="round" stroke-miterlimit="10" d="M37.933,59.972
			l-0.129,0.07c-1.313,0.708-2.131,2.08-2.131,3.572"/>
	</g>
</g>
</svg>
