<?xml version="1.0" encoding="UTF-8"?>
<svg width="58px" height="72px" viewBox="0 0 58 72" version="1.1" xmlns="http://www.w3.org/2000/svg" xmlns:xlink="http://www.w3.org/1999/xlink">
    <!-- Generator: Sketch 46.2 (44496) - http://www.bohemiancoding.com/sketch -->
    <title>marker3</title>
    <desc>Created with Sketch.</desc>
    <defs>
        <filter x="-5.0%" y="-4.0%" width="110.1%" height="108.0%" filterUnits="objectBoundingBox" id="filter-1">
            <feGaussianBlur stdDeviation="0.877757353" in="SourceGraphic"></feGaussianBlur>
        </filter>
        <path d="M26,65.4863281 C26,65.4863281 49.9997979,42.1535922 51.748819,27.3095764 C53.3665295,17.2647163 51.6868504,0.0396201348 26,0.0396201348" id="path-2"></path>
        <path d="M26.1873719,65.4863281 C26.1873719,65.4863281 2.18757397,42.1535922 0.438552873,27.3095764 C-1.17915765,17.2647163 0.500521447,0.0396201348 26.1873719,0.0396201348" id="path-3"></path>
        <path d="M26,65.3023282 L26,65.4863281 C26,65.4863281 26.0319785,65.4552385 26.0936859,65.3946069 C26.1553934,65.4552385 26.1873719,65.4863281 26.1873719,65.4863281 L26.1873719,65.3023282 C28.4305962,63.0879047 50.0905473,41.3833983 51.748819,27.3095764 C53.3625871,17.289196 51.6950177,0.123533838 26.1873719,0.0399266885 C26.1561077,0.0396201348 26.124879,0.0396456521 26.0936859,0.0396966427 C26.0624928,0.0396456521 26.0312642,0.0396201348 26,0.0396201348 C0.492354155,0.123533838 -1.17521523,17.289196 0.438552873,27.3095764 C2.09682458,41.3833983 23.7567757,63.0879047 26,65.3023282 Z" id="path-4"></path>
    </defs>
    <g id="Welcome" stroke="none" stroke-width="1" fill="none" fill-rule="evenodd">
        <g id="start1" transform="translate(-926.000000, -5939.000000)">
            <g id="marker3" transform="translate(928.000000, 5941.000000)">
                <g id="Group-18-Copy-4" transform="translate(2.000000, 3.000000)" fill="#9C9C9C">
                    <path d="M26,65.3023282 L26,65.4863281 C26,65.4863281 26.0319785,65.4552385 26.0936859,65.3946069 C26.1553934,65.4552385 26.1873719,65.4863281 26.1873719,65.4863281 L26.1873719,65.3023282 C28.4305962,63.0879047 50.0905473,41.3833983 51.748819,27.3095764 C53.3625871,17.289196 51.6950177,0.123533838 26.1873719,0.0399266885 C26.1561077,0.0396201348 26.124879,0.0396456521 26.0936859,0.0396966427 C26.0624928,0.0396456521 26.0312642,0.0396201348 26,0.0396201348 C0.492354155,0.123533838 -1.17521523,17.289196 0.438552873,27.3095764 C2.09682458,41.3833983 23.7567757,63.0879047 26,65.3023282 Z" id="Combined-Shape" filter="url(#filter-1)"></path>
                </g>
                <g id="Group-18-Copy-5">
                    <g id="Path-6">
                        <use stroke="#BDB4B4" stroke-width="3" fill="#F4F4F4" fill-rule="evenodd" xlink:href="#path-2"></use>
                        <use stroke="#000000" stroke-width="2" xlink:href="#path-2"></use>
                    </g>
                    <g id="Path-6-Copy">
                        <use stroke="#BDB4B4" stroke-width="3" fill="#E5E5E5" fill-rule="evenodd" xlink:href="#path-3"></use>
                        <use stroke="#000000" stroke-width="2" xlink:href="#path-3"></use>
                    </g>
                </g>
                <g id="Group-18-Copy-6">
                    <g id="Combined-Shape">
                        <use stroke="#BDB4B4" stroke-width="3" xlink:href="#path-4"></use>
                        <use stroke="#000000" stroke-width="2" xlink:href="#path-4"></use>
                    </g>
                </g>
                <path d="M26.6332052,17.2073905 C26.6332052,17.2073905 24.4975987,12 17.1351306,12 C9.77266239,12 8,18.6692918 8,19.8585956 C8,35.677816 26.3676174,50.0795296 26.3676174,50.0795296 L26.6332052,17.2073905 Z" id="Path-4-Copy-2" fill="#FF4647"></path>
                <path d="M44.6332052,17.2073905 C44.6332052,17.2073905 42.4975987,12 35.1351306,12 C27.7726624,12 26,18.6692918 26,19.8585956 C26,35.677816 44.3676174,50.0795296 44.3676174,50.0795296 L44.6332052,17.2073905 Z" id="Path-4-Copy-3" fill="#FB8485" transform="translate(35.316603, 31.039765) scale(-1, 1) translate(-35.316603, -31.039765) "></path>
            </g>
        </g>
    </g>
</svg>