<?xml version="1.0" standalone="no"?>
<!DOCTYPE svg PUBLIC "-//W3C//DTD SVG 20010904//EN"
 "http://www.w3.org/TR/2001/REC-SVG-20010904/DTD/svg10.dtd">
<svg version="1.0" xmlns="http://www.w3.org/2000/svg"
 width="600.000000pt" height="600.000000pt" viewBox="0 0 600.000000 600.000000"
 preserveAspectRatio="xMidYMid meet">
<metadata>
Created by potrace 1.11, written by Peter Selinger 2001-2013
</metadata>
<g transform="translate(0.000000,600.000000) scale(0.100000,-0.100000)"
fill="#000000" stroke="none">
<path d="M318 4350 c-46 -14 -87 -43 -98 -70 -7 -17 -10 -175 -8 -487 3 -445
4 -462 23 -483 11 -12 33 -29 50 -39 28 -15 240 -16 2715 -16 2475 0 2687 1
2715 16 17 10 39 27 50 39 19 21 20 38 23 489 3 463 2 468 -19 494 -11 15 -35
35 -52 45 -30 16 -192 17 -2702 19 -1469 1 -2682 -2 -2697 -7z"/>
<path d="M304 2714 c-23 -8 -52 -26 -65 -40 l-24 -26 0 -473 0 -474 29 -30
c19 -20 45 -34 78 -40 75 -17 5302 -15 5363 1 25 7 58 25 73 41 l27 28 3 447
c2 246 0 462 -3 480 -8 44 -49 79 -108 92 -33 7 -888 10 -2690 9 -2284 -1
-2648 -3 -2683 -15z"/>
</g>
</svg>
